<svg xmlns="http://www.w3.org/2000/svg" fill="none" viewBox="0 0 400 400" height="400" width="400"><path fill="#ffffff" d="M364.6 387.764s-24.984 -45.128 -29.668 -55.122c-4.684 -9.994 -14.678 -30.292 -14.834 -35.29 -0.156 -4.998 0.156 -14.054 -0.782 -18.738 -0.938 -4.684 -5.308 -27.482 -9.212 -38.726s-1.562 -13.584 -7.028 -29.356c-5.466 -15.772 -12.476 -27.17 -18.258 -33.572 -5.782 -6.402 -12.8 -13.272 -15.148 -20.3 -2.348 -7.028 -9.838 -16.238 -13.272 -19.05 -3.434 -2.812 -15.616 -10.462 -20.456 -14.21 0 0 -9.2 -11.48 -13.154 -10.214 -3.954 1.266 -14.014 -21.374 -14.014 -21.374a10.2 10.2 0 0 0 -12.19 2.058c-5.78 5.778 -6.8 14.8 -3.484 26.2 3.316 11.4 10.846 22.166 13.934 24.778 3.088 2.612 14.882 15.042 18.444 17.97 3.562 2.928 12.508 17.576 9.026 26.362l-81.824 118.6a9.354 9.354 0 0 0 4.174 7.704c4.6 3.64 17.872 9.42 20.548 10.81 2.676 1.39 13.378 10.706 21.198 12.306 7.82 1.6 17.874 6.956 21.4 7.386 3.526 0.43 0.318 0.962 1.176 3.2a5.844 5.844 0 0 0 2.784 3.104c11.514 35.118 9.49 27.474 12.522 36.922 0 0 31.462 0.856 39.6 -0.428 15.61 -2.454 81.474 2.994 88.518 -1.02Z" stroke-width="1"></path><path fill="#96d905" d="M251.164 252.92c0.718 12.32 -12.65 14.856 -50.384 31.464 -34.156 15.032 -41.314 17.984 -50.524 20.046 -12.11 2.71 -15.512 -3.106 -23.146 -20.074a2.03 2.03 0 0 1 0 -1.428c6.076 -15.756 0.776 -31.46 -14.564 -29.278 2.536 -6.6 3.902 -7.978 4.676 -15.184 1.172 -10.918 -4.944 -16.024 -12.6 -16.8 -2.718 -0.274 4.366 -15.226 -1.278 -23.832 -2.666 -4.062 -4.916 -6.286 -9.8 -6.548 -2.664 -0.144 -2.182 -1.332 -3.164 -3.628C76 154.024 66.13 132.538 57.506 110.328c-18.04 -46.47 -24.082 -48 9 -63.88C90.578 34.896 133.2 19.34 144.414 16.366c2.234 -0.6 6.052 -1.468 10.32 3.414 5.3 6.062 9.528 16.714 12.108 22.2 1.536 3.262 9.652 22.222 14.82 35.966 10.2 27.114 9.54 21.852 8.916 26.2 -0.712 4.944 1.296 18.118 5.022 25.872 5.052 10.506 9.506 13.76 15.13 20.382 2 2.356 23.914 57.134 33.444 81.414 0.84 2.128 6.78 17.506 6.99 21.106Zm-68.2 -12.424c33.866 -14.8 32.676 -7.8 25.332 -26.87 -5 -13 0 -10.63 -53.168 11.232 -24.2 9.956 -22.228 8.068 -18.07 17.72 5.416 12.57 5.2 14.154 8.422 13.378 0.134 -0.034 25.102 -10.052 37.478 -15.46h0.006Zm15.38 -97.4a2.174 2.174 0 0 0 -0.428 -1.72c-6.316 -10.408 -6.868 -13.156 -9.116 -10.104 -9.032 12.24 -9.228 11.364 -2.73 12.21 0 8.842 -4.98 21.414 -14.782 30.708 -22.06 20.922 -57.836 16.082 -74.222 -7.458 -1.2 -1.724 -2.85 -0.046 -5.328 2.386a1.486 1.486 0 0 0 -0.084 2.136C123.27 212.222 185.544 196.226 193.2 146.636c0.45 -2.914 0.378 -2.714 0.748 -2.758 0.37 -0.044 1.982 -0.068 2.672 -0.074 1.118 -0.004 1.534 -0.112 1.718 -0.702l0.006 -0.006ZM187.886 115.6c1.36 -0.648 1.6 -0.982 0.902 -2.368 -33.154 -66.278 -120.576 -32.6 -108.676 31.72 -2.936 0.706 -3.732 0.6 -4.074 1.4a2.2 2.2 0 0 0 0.566 2.2c0.444 0.6 0.228 0.428 7.736 7.612 1.31 1.254 2.486 0.758 3.24 -0.726 4.8 -9.436 5.922 -10.944 3.588 -11.134a19.762 19.762 0 0 0 -3.736 0.078c-0.762 -0.098 -0.746 -1.262 -1 -4.082 -2.62 -28.328 16.496 -51.4 41.696 -55.024A45.716 45.716 0 0 1 157.4 90a57.128 57.128 0 0 1 24.534 26.516c1.11 2.41 2.92 0.524 5.952 -0.916ZM173.8 161.324c1.54 -0.708 1.102 -1.63 -1.014 -6.18 -0.904 -1.946 -2.724 -1.056 -6.824 0.894 -1.672 0.8 -1.272 0.2 -9.526 -13.142 -4 -6.474 -10.866 -6.034 -15.828 -6.768 -1.504 -0.222 -1.954 -2.28 -0.94 -3.566 7.932 -10.046 8.36 -9.426 2.55 -31.034 5.858 -2.718 6.416 -1.896 3.6 -7.8 -0.93 -1.95 -0.892 -1.756 -12.462 3.178 -40 17.056 -36.76 16.166 -36.226 17.654 2.452 6.862 2.07 5.698 8.668 3.114 6.444 12.164 8.06 16.658 15.182 18.048 2.602 0.316 5.174 0.86 7.682 1.622a2.674 2.674 0 0 1 1.2 3.324c-5.558 8.184 -8.306 10.696 -0.8 30.638 0.632 1.678 0.776 0.97 -4.672 3.786 -1.978 1.022 -1.366 2.276 0.694 6.37 0.942 1.904 -1.284 2.888 48.716 -20.138ZM138.81 31.8c12.478 -5 12.262 -4.686 11.728 -6.516a17.932 17.932 0 0 0 -1.898 -4.362c-0.912 -1.324 -1.682 -1 -3.278 -0.438 -12.734 4.574 -12.286 3.42 -8.656 10.874 0.174 0.364 0.614 1.042 2.104 0.442Zm-5.828 2c0.668 -0.296 1.56 -0.624 1.238 -1.588a22.912 22.912 0 0 0 -2.29 -5.072c-3.282 0.062 -1.768 2.086 -0.254 5.9 0.238 0.604 0.606 1.07 1.306 0.76Zm-3.24 1.146c1.224 -0.33 0.908 -0.926 -0.876 -4.894 -0.614 -1.37 -2.2 0.32 -2.2 1.348 1.876 4.6 1.372 4 3.076 3.546Zm-4.094 1.424a0.92 0.92 0 0 0 0.57 -1.4c-1.422 -3.308 -1.384 -2.746 -2.976 -1.224 1.014 2.606 0.84 3.186 2.406 2.624Zm-30.776 5.846c11.686 -5.23 9.1 -3.69 10.16 -4.974 -0.024 -4.432 -3.178 -2.04 -17.382 4.524 -1.508 0.698 -1.324 4.296 1.2 3.262 1.786 -0.73 3.55 -1.702 6.022 -2.812Z" stroke-width="1"></path><path fill="#ffffff" d="M246.812 264.92c7.474 -5.276 7.528 -10.512 2.822 -23.64 -6.29 -17.544 -33.018 -81.888 -34.236 -86.326 5.49 5.364 -0.52 -7.534 28.726 63.918 1.2 2.944 2.128 6 3.254 8.98 6.648 17.576 15.784 33.296 -0.02 43.146 -10.506 6.548 -79.244 34.364 -95.848 39.584 -7.1 2.232 -12.686 3.458 -18.242 -0.252 -7.516 -5.016 -8.8 -15.27 -10.384 -14.6 -1.292 -3.138 0.968 -6.292 2.75 -9.666 7.926 16.694 11.274 22.966 25.084 19.906 10.66 -2.362 36.28 -13.7 80.494 -32.746a88.036 88.036 0 0 0 15.6 -8.304Z" stroke-width="1"></path><path fill="#ffffff" d="M216.8 102.302c4.988 10.482 5.694 9.31 3.56 10.516 -6.676 3.768 -5.826 7.488 -9.342 2.4a34.796 34.796 0 0 1 -5.36 -12.116 20.914 20.914 0 0 1 -0.8 -4.618c0.114 -2.306 0.908 -2.874 2.422 -4.652a3.49 3.49 0 0 1 4.048 -1.364c2.624 0.932 3.888 6.514 5.472 9.834Z" stroke-width="1"></path><path fill="#ffffff" d="M196.536 142a0.188 0.188 0 0 1 -0.074 0.244 0.184 0.184 0 0 1 -0.09 0.024c-3.366 0 -3.904 -0.4 -4.216 1.574A67.336 67.336 0 0 1 188 160c-15.856 37 -67.478 45.656 -94.68 10.66 -0.4 -0.504 0 -0.758 0.416 -1.176 2.118 -2.114 1.728 -1.912 3.572 0.338C125.988 204.8 181.23 190.172 187.554 145.4c0.212 -1.494 0.73 -3.37 -0.386 -3.534a32.632 32.632 0 0 0 -2.764 -0.22c-1.6 0.058 -0.6 -1.092 -0.42 -1.356 2.854 -4.344 4.524 -6.47 5.332 -7.554 0.944 -1.27 1.31 -0.6 1.8 0.222 5.018 8.59 5.108 8.41 5.42 9.042Z" stroke-width="1"></path><path fill="#ffffff" d="M187.938 82.126c6.034 14.854 6.296 12.254 4.138 17.216 -6.562 -11.652 -26.774 -75.988 -39.782 -83.76a11.5 11.5 0 0 0 -9.4 -0.454c-16.308 4.8 -88.982 30.572 -99.232 44.144a14.086 14.086 0 0 0 -2.4 9.4c0.276 7.112 5.2 18.058 11.484 34.366 14.26 37 20.572 48.248 36.474 88.148l-4.694 2c-7.286 -15.852 -25.164 -57.11 -37.668 -90 -16.8 -44.164 -25.6 -45.582 67.26 -80.136 17.164 -6.386 26.936 -11.346 34.14 -11.634A11.6 11.6 0 0 1 156.14 13.5c6.734 5.052 8.66 11.68 31.798 68.626Z" stroke-width="1"></path><path fill="#ffffff" d="M187.4 113.8c0.188 0.416 -0.376 0.4 -3.732 2.28a0.322 0.322 0 0 1 -0.454 -0.144C176 101.2 168.144 93.924 157.56 88.488a50.11 50.11 0 0 0 -64.694 17.744A52.924 52.924 0 0 0 84.938 139.2c0.49 5.362 0.308 6.848 1.776 6.826 0.896 -0.014 2.52 -0.32 3.148 -0.294 0.58 0.026 0.49 0.29 0.152 0.99a50.72 50.72 0 0 1 -3.976 7.856c-0.4 0.366 -0.79 0.118 -1.232 -0.3 -8.68 -8.248 -8.024 -6.866 -3.972 -7.704 1.514 -0.312 1.26 -0.054 0.8 -2.276 -6.982 -33.12 18.63 -64.752 52.272 -65.53C161.044 78.138 179.722 96.7 187.4 113.8Z" stroke-width="1"></path><path fill="#ffffff" d="M149.75 143.362c1.672 1.1 4.51 4.304 3 5.642 -3.854 3.432 -7.018 2.784 -14.92 3.29a28.228 28.228 0 0 0 -8.178 2.486 8.32 8.32 0 0 1 1.39 -6.614c1.936 -3.42 4.764 -8.578 5.568 -8.11 2.8 1.62 9.426 0.872 13.14 3.306Z" stroke-width="1"></path><path fill="#ffffff" d="M149.308 24.8c0.67 1.684 0.6 1.524 -6.222 4.218 -5 1.978 -5.382 1.968 -5.7 1.296 -2.8 -5.928 -4.136 -4.29 9.106 -9.226 1.052 -0.394 1.526 0.47 2.816 3.712Zm-3.574 0.916c-0.51 -1.952 -1.172 -2.534 -1.664 -2.364 -7.814 2.714 -7.39 2.338 -6.75 3.906 0.178 0.654 0.48 1.264 0.896 1.8 0.242 0.28 0.482 0.086 0.886 -0.058 5.662 -2.044 6.86 -2.4 6.632 -3.286v0.002Z" stroke-width="1"></path><path fill="#ffffff" d="M136.862 105.098c1.29 5.11 2.2 5.588 1.21 6.818 -6.11 7.642 -13.43 1.228 -21.056 6.874 -1.882 1.4 -2.548 2.416 -3.114 1.352 -2.694 -5.066 -3 -5.176 -1.988 -5.6 23.098 -9.718 24.318 -11.942 24.948 -9.444Z" stroke-width="1"></path><path fill="#ffffff" d="M127.584 268.788c1.154 15.58 -12.952 22.342 -4.32 30.582 -10.784 4.338 -26.586 -9.894 -24.644 -21.04 1.122 0.978 2.132 1.906 3.2 2.768a2.328 2.328 0 0 0 3.81 -1.292c0.514 -4.342 0.84 -11.888 5.46 -19.4 2.148 -3.488 3.736 -6.142 7.08 -4.918 5.514 2.024 8.858 5.792 9.414 13.3Z" stroke-width="1"></path><path fill="#ffffff" d="M115.262 232.826c0.914 6.626 -2.92 20.086 -6.136 21.188a15.58 15.58 0 0 0 -8.49 8.482c-0.974 2.024 -16.964 -6.096 -15.6 -18.71a6.504 6.504 0 0 0 5.348 2.76c2.99 0.2 0.6 -2.054 3.728 -9.684 3.342 -8.132 6.368 -16.342 13.736 -12.7 4.334 2.14 6.722 3.638 7.414 8.664Z" stroke-width="1"></path><path fill="#ffffff" d="M112.356 255.288c-6.19 7.15 -8.16 15.08 -8.676 24.548 -5.134 -2.334 -5.448 -8.4 -2.82 -13.6 3.066 -6.036 5.664 -10.314 11.496 -10.948Z" stroke-width="1"></path><path fill="#ffffff" d="M96.244 194.134c9.534 3.628 7.246 16.618 5.518 26.654 -7.348 -1.534 -12.272 6.096 -16.214 11.312a10.3 10.3 0 0 1 -9.238 -7.868c4.046 0.78 5.012 1.844 4.57 -6.6a46.538 46.538 0 0 1 2.704 -19.7c1.836 -4.932 8.88 -5.238 12.66 -3.798Z" stroke-width="1"></path><path fill="#ffffff" d="M100.138 222.5a42.474 42.474 0 0 0 -9.918 22.016 4.584 4.584 0 0 1 -3.302 -1.228 4.6 4.6 0 0 1 -1.466 -3.204c-0.452 -5.37 7.226 -17.584 14.686 -17.584Z" stroke-width="1"></path><path fill="#ffffff" d="M81.738 196.356c-1.876 7.558 -2.69 9.336 -2.8 15.484 0.156 3.6 0.126 7.204 -0.092 10.8 -6.23 -0.172 -5.4 -6.97 -4.528 -13.104 0.604 -4.336 3.282 -11.996 7.42 -13.18Z" stroke-width="1"></path><path fill="#ffffff" d="M53.646 126.212C74.31 175.724 74.116 172.942 73.2 173.6 49.234 146.818 45.66 143.272 41.6 137.8c-6.78 -9.126 -1.98 -18.92 6.54 -18.14 4.78 0.44 4.114 3.216 5.506 6.552Z" stroke-width="1"></path><path fill="#ffffff" d="M198 232.516c12.508 -5.088 13.488 -5.142 12.512 -7.83 -6.23 -17.176 -5.782 -17.984 -8.6 -17.018 -21.216 7.256 -19.068 7.562 -46.172 18.738 -20.352 8.39 -18.55 7.508 -19.704 9.504 0.56 1.724 -0.67 -1.082 6.7 15.378 2.384 5.326 -3.69 5.21 55.264 -18.772Z" stroke-width="1"></path><path fill="#0a0430" d="M328.2 315.534c-12.332 -26.928 -2.2 -15.852 -10.528 -51.4 -14.046 -59.942 -12.644 -49.756 -18.048 -64.048 -7.254 -19.182 -17.902 -26.2 -26.294 -38.97 -3.224 -4.904 -5.68 -13.816 -11.958 -20.304 -13.54 -14 -13.782 -6.858 -30.776 -23.588a31.632 31.632 0 0 0 -4.618 -4.318c-4.738 -3.058 -8.578 -14.312 -10.708 -18.514a5.504 5.504 0 0 0 -6.542 -3.498c-6.734 -3.368 -13.4 2.71 -13.6 2.858 -5.048 -9.018 -24.898 -60.706 -30.262 -71.134 -2.752 -5.358 -4.966 -8.882 -8.48 -10.818 -9 -4.942 -19.814 1.25 -34.79 6.85 -104.458 39.052 -93.432 38.766 -76.062 86.16 7.4 20.174 6.37 10.23 -2.424 13.53a11.716 11.716 0 0 0 -6.6 13.236C38.8 140.95 46.8 146.34 62.754 165.2c14.016 16.568 11.542 9.876 15.064 17.586 9.682 21.2 2.546 3.528 -3.852 20.022 -4.906 12.648 -0.218 19.884 0.302 21.174 1.984 4.918 1.926 7.65 10.478 10.108 -3.456 17.042 -1.328 21.522 13.888 31.22 -2.446 10.6 -0.856 7.4 -1.78 10.916 -3.656 13.902 15.038 30.362 27 25.182 9.216 17.778 17.692 13.42 28.262 11.366 0.896 -0.174 1.662 1.176 3.758 3 7 6.092 18.336 10.074 23.4 12.972 7.82 4.484 11.646 8.622 19.684 11.18 14.986 4.772 10.024 4.438 20.94 7.44a5.5 5.5 0 0 0 2.428 5.244 30.66 30.66 0 0 1 2.474 5.902c9.504 30.734 1.778 4 9.914 29.364 0.71 2.2 1.348 1.88 2.132 2.128 0.6 -1.918 0.478 -0.494 -0.458 -3.542 -6.666 -21.696 -1.42 -2.022 -10.132 -30.298 -2.114 -6.866 -4.044 -1.384 14.788 -2.246 6.916 -0.318 8.03 -0.052 12.944 -1.288 0.342 -0.084 0.532 -0.8 0.8 -1.224 -0.466 -0.222 -0.952 -0.662 -1.4 -0.618 -1.274 0.126 -2.524 0.564 -3.8 0.66 -30.254 2.278 -28.024 -3.616 -27.304 -3.6 11.478 0.382 15.56 0.918 20.434 -0.738 2.132 -0.724 1.05 -2.574 -0.582 -2.092 -3.954 1.174 -12.846 0.958 -14.098 0.92 -11.212 -0.332 -15.044 -3.42 -22.71 -6.284 -2.716 -1.016 -5.55 -1.724 -8.264 -2.746 -6.078 -2.292 -13.43 -8.386 -19.038 -11.296 -13.162 -6.826 -16.978 -7.134 -23.542 -13.706a125.612 125.612 0 0 1 11.8 -4.35c39.8 -15 23.468 -10.022 49.31 -19.938 0.668 -0.258 13.6 -5.256 14.566 -5.67 9.364 -4 8.038 -4.038 8.688 -3.032 4.84 7.496 9.54 16.094 18.524 24.342 9.168 8.42 12.126 7.786 12.2 9.56 1.248 26.314 -21.6 27.324 -19.778 30.106 0.228 0.346 1 0.726 2.2 0.156 7.834 -3.71 19.77 -8.11 19.77 -29.8 14.376 3.23 11.34 2.686 12.136 2.776 10.062 1.15 21.944 -4.736 20.634 -6.952 -0.42 -0.71 -1.108 -0.414 -1.772 0.086 -12.668 9.532 -38.106 6.858 -57.682 -24.16 -4.964 -7.866 -4.822 -7.898 -3.732 -8.434 15.042 -7.4 20.52 -15.24 13.846 -33.368 -15.92 -43.254 -21.062 -49.374 -19.464 -53.522a19.88 19.88 0 0 0 -1.1 -14.38C225 152.09 192.764 144.966 192.56 106c-0.05 -9.2 7.42 -16.254 14.23 -13.864 -2.474 2.2 -4.188 4.276 -3.752 7.57 1 7.612 4.882 15.618 7.788 18.706 4.582 4.866 6.212 -2.636 11.546 -3.902 2.278 -0.54 1.862 -1.16 11.172 8.508 11.54 11.982 21.97 6.874 34.482 33.262 8.526 17.978 21.116 21.116 32.31 50.952 6.972 18.586 6.236 21.568 11.456 42.066 1 3.934 2.514 10.168 5.352 22.556 4.322 18.866 -0.544 21.148 4.6 34.3 1.126 2.884 21.292 48.222 41.756 81.542 0.18 0.294 0.734 1.506 1.872 0.9 2.612 -1.396 -10.466 -14.758 -37.172 -73.062ZM73.2 173.6C49.234 146.818 45.66 143.272 41.6 137.8c-6.78 -9.126 -1.98 -18.92 6.54 -18.14 4.782 0.436 4.116 3.212 5.508 6.548C74.312 175.724 74.116 172.942 73.2 173.6Zm1.104 35.938c0.612 -4.336 3.284 -12 7.428 -13.184 -1.876 7.558 -2.69 9.336 -2.8 15.484 0.156 3.6 0.126 7.204 -0.092 10.8 -6.24 -0.166 -5.398 -6.964 -4.53 -13.098l-0.006 -0.002Zm2 14.692c4.046 0.78 5.012 1.844 4.57 -6.6a46.532 46.532 0 0 1 2.704 -19.7c1.836 -4.914 8.88 -5.228 12.66 -3.788 9.534 3.628 7.246 16.618 5.518 26.654 -7.348 -1.534 -12.272 6.096 -16.214 11.312a10.28 10.28 0 0 1 -9.232 -7.876l-0.006 -0.002Zm23.828 -1.732a42.472 42.472 0 0 0 -9.918 22.016 4.584 4.584 0 0 1 -3.302 -1.228 4.6 4.6 0 0 1 -1.466 -3.204c-0.446 -5.368 7.232 -17.582 14.692 -17.582l-0.006 -0.002Zm-15.092 21.288a6.504 6.504 0 0 0 5.348 2.76c2.99 0.2 0.6 -2.054 3.728 -9.684 3.342 -8.132 6.368 -16.342 13.736 -12.7 4.33 2.14 6.718 3.632 7.4 8.664 0.914 6.626 -2.92 20.084 -6.136 21.188a15.58 15.58 0 0 0 -8.49 8.482c-0.964 2.024 -16.954 -6.096 -15.586 -18.71Zm27.316 11.502c-6.19 7.15 -8.16 15.08 -8.676 24.548 -5.134 -2.334 -5.448 -8.4 -2.82 -13.6 3.066 -6.036 5.666 -10.314 11.496 -10.948Zm-13.736 23.042c1.122 0.978 2.132 1.906 3.2 2.768a2.328 2.328 0 0 0 3.81 -1.292c0.514 -4.342 0.84 -11.89 5.46 -19.4 2.148 -3.488 3.736 -6.142 7.08 -4.918 5.518 2.016 8.864 5.784 9.418 13.294 1.152 15.58 -12.952 22.342 -4.32 30.582 -10.788 4.344 -26.59 -9.888 -24.648 -21.034ZM233.922 187.6c-0.512 2.338 -7.72 -18 -11.13 -25.786 6.648 6.186 13.072 16.92 11.13 25.786Zm10.2 31.27c1.2 2.944 2.128 6 3.254 8.98 6.648 17.578 15.784 33.296 -0.02 43.146 -10.506 6.548 -79.244 34.364 -95.848 39.584 -7.1 2.232 -12.688 3.458 -18.242 -0.252 -7.516 -5.018 -8.8 -15.27 -10.384 -14.6 -1.29 -3.138 0.968 -6.292 2.75 -9.666 7.926 16.694 11.274 22.966 25.084 19.906 10.66 -2.362 36.28 -13.7 80.494 -32.746a88.046 88.046 0 0 0 15.6 -8.306c7.474 -5.278 7.528 -10.512 2.822 -23.64 -5.92 -16.512 -33.144 -82.35 -34.236 -86.326 5.492 5.368 -0.522 -7.528 28.728 63.922l-0.002 -0.002ZM195.6 130c5.052 10.508 9.506 13.76 15.13 20.382 2 2.356 23.914 57.134 33.444 81.414 0.842 2.146 6.78 17.522 6.99 21.122 0.718 12.32 -12.65 14.856 -50.384 31.464 -34.156 15.032 -41.314 17.984 -50.524 20.046 -12.11 2.71 -15.512 -3.106 -23.146 -20.074a2.03 2.03 0 0 1 0 -1.428c6.07 -15.758 0.776 -31.46 -14.564 -29.278 2.536 -6.6 3.902 -7.978 4.676 -15.184 1.172 -10.918 -4.944 -16.024 -12.6 -16.8 -2.718 -0.274 4.366 -15.226 -1.278 -23.832 -2.666 -4.062 -4.916 -6.286 -9.8 -6.548 -2.664 -0.144 -2.182 -1.332 -3.164 -3.628 -14.382 -33.64 -24.242 -55.126 -32.866 -77.336 -18.04 -46.47 -24.082 -48 9 -63.88C90.578 34.896 133.2 19.34 144.414 16.366c2.234 -0.6 6.052 -1.468 10.32 3.414 5.3 6.062 9.528 16.714 12.108 22.2 1.536 3.262 9.652 22.222 14.82 35.966 10.2 27.114 9.54 21.852 8.916 26.2 -0.712 4.928 1.296 18.104 5.022 25.854Zm-3.524 -30.66c-6.434 -11.426 -26.774 -75.988 -39.782 -83.76a11.5 11.5 0 0 0 -9.4 -0.454c-16.308 4.8 -88.982 30.572 -99.232 44.144a14.1 14.1 0 0 0 -2.4 9.4c0.276 7.112 5.2 18.058 11.484 34.366 14.26 37 20.574 48.248 36.474 88.148l-4.694 2c-7.286 -15.852 -25.164 -57.11 -37.668 -90 -16.8 -44.164 -25.6 -45.582 67.26 -80.136 17.164 -6.386 26.936 -11.346 34.14 -11.634A11.6 11.6 0 0 1 156.14 13.5c6.734 5.052 8.67 11.682 31.8 68.626 6.036 14.874 6.288 12.274 4.136 17.216v-0.002Zm28.28 13.476c-6.676 3.768 -5.826 7.488 -9.342 2.4a34.796 34.796 0 0 1 -5.36 -12.116 20.8 20.8 0 0 1 -0.8 -4.618c0.114 -2.306 0.908 -2.874 2.422 -4.652a3.488 3.488 0 0 1 4.048 -1.364c2.624 0.93 3.89 6.516 5.468 9.834 4.99 10.486 5.698 9.312 3.564 10.518v-0.002Z" stroke-width="1"></path><path fill="#0a0430" d="M137.052 242.578c5.416 12.57 5.2 14.144 8.422 13.378 0.14 -0.034 25.108 -10.052 37.484 -15.46 33.866 -14.8 32.676 -7.8 25.332 -26.87 -5 -13 0 -10.63 -53.168 11.232 -24.206 9.956 -22.228 8.068 -18.07 17.72Zm64.858 -34.91c2.82 -0.966 2.37 -0.158 8.6 17.018 0.976 2.688 0 2.742 -12.512 7.83 -58.954 23.984 -52.88 24.098 -55.266 18.772 -7.37 -16.46 -6.14 -13.654 -6.7 -15.378 1.154 -2 -0.648 -1.114 19.704 -9.504 27.106 -11.176 24.958 -11.48 46.174 -18.738Z" stroke-width="1"></path><path fill="#0a0430" d="M188.8 131.272c-9.028 12.242 -9.228 11.364 -2.73 12.21 0 8.842 -4.982 21.414 -14.782 30.708 -22.06 20.922 -57.836 16.082 -74.222 -7.458 -1.2 -1.724 -2.85 -0.046 -5.328 2.386a1.482 1.482 0 0 0 -0.084 2.136C123.27 212.222 185.544 196.226 193.2 146.636c0.45 -2.908 0.378 -2.714 0.748 -2.758 0.37 -0.044 1.982 -0.07 2.672 -0.074 1.124 0 1.542 -0.112 1.726 -0.702a2.174 2.174 0 0 0 -0.428 -1.72c-6.318 -10.414 -6.87 -13.162 -9.118 -10.11Zm2.314 1.686c5.326 9.106 5.84 9.31 5.262 9.308 -3.366 -0.012 -3.904 -0.4 -4.216 1.574A67.328 67.328 0 0 1 188 160c-15.906 37.128 -67.54 45.578 -94.68 10.66 -0.4 -0.504 0 -0.758 0.416 -1.176 2.118 -2.114 1.728 -1.912 3.572 0.338C125.98 204.812 181.23 190.172 187.554 145.4c0.212 -1.494 0.73 -3.37 -0.386 -3.534a32.568 32.568 0 0 0 -2.764 -0.22c-1.6 0.058 -0.6 -1.092 -0.42 -1.356 2.856 -4.342 4.524 -6.47 5.332 -7.554 0.944 -1.27 1.31 -0.602 1.794 0.222h0.004Z" stroke-width="1"></path><path fill="#0a0430" d="M152.154 235.37a19.36 19.36 0 0 0 2.156 5.44 3.314 3.314 0 0 0 4.628 0.658c0.464 -0.348 0.832 -0.808 1.062 -1.34 0.354 -0.894 0.656 -1.808 0.904 -2.738a3.994 3.994 0 0 0 3.756 1.02c1.538 -0.564 1.448 -2.154 1.918 -3.386 1.83 0.862 4.564 2.342 5.8 -0.096 0.906 -1.786 1.46 -0.614 3.076 -1.022 2.486 -0.628 3.414 -3.436 4.388 -3.356 4.916 0.4 4.814 -3.87 6.71 -3.316 3.11 0.908 4.882 -0.786 9.484 -4 1.32 -0.92 1 -0.812 0.912 -2.4 -1.49 0.108 0.256 -0.774 -5.844 3.6 -4.342 3.114 -5.238 -0.978 -6.544 1.172 -2.158 3.552 -3.716 3.492 -5.514 2.63 -0.586 -0.28 -1.312 -0.31 -1.32 0.516a3.66 3.66 0 0 1 -1.538 2.656c-2.968 2.894 -3.662 -3.088 -4.91 0.04 -0.074 0.186 0.164 0.488 0.106 0.69 -0.478 1.666 -0.478 2.734 -2.564 1.934 -3.654 -1.4 -0.982 -5.678 -3.724 -5.51 -0.222 0.014 -0.586 0.578 -0.582 0.89a18.64 18.64 0 0 1 0.02 6.504c-0.2 1.624 -2.948 0.844 -3.698 -2.2 -0.156 -0.636 -0.182 -1.928 -1.15 -1.828 -0.908 0.094 -0.6 1.382 -0.512 2.054 0.76 5.666 -2 7.906 -3.776 5.712a17.774 17.774 0 0 1 -2.112 -5.3 1.17 1.17 0 0 0 -0.826 -0.792 1.142 1.142 0 0 0 -0.592 0.006 1.144 1.144 0 0 0 -0.512 0.296 15.564 15.564 0 0 0 -1.856 3.122c-0.096 0.2 0.288 0.652 0.45 0.986 1.932 -1.612 1.424 -2.868 2.204 -2.642Z" stroke-width="1"></path><path fill="#0a0430" d="M91.168 144.294a19.78 19.78 0 0 0 -3.736 0.078c-0.762 -0.098 -0.746 -1.262 -1 -4.082 -2.618 -28.318 16.498 -51.39 41.696 -55.014A45.714 45.714 0 0 1 157.4 90a57.128 57.128 0 0 1 24.534 26.516c1.11 2.4 2.92 0.524 5.952 -0.918 1.36 -0.648 1.6 -0.982 0.902 -2.368 -33.146 -66.282 -120.576 -32.6 -108.676 31.72 -2.936 0.706 -3.734 0.6 -4.074 1.4a2.2 2.2 0 0 0 0.566 2.2c0.446 0.6 0.228 0.428 7.736 7.612 1.31 1.254 2.486 0.758 3.24 -0.726 4.8 -9.436 5.922 -10.952 3.588 -11.142Zm-1.154 2.424a50.702 50.702 0 0 1 -3.976 7.856c-0.4 0.366 -0.79 0.118 -1.232 -0.3 -8.678 -8.25 -8.024 -6.866 -3.972 -7.704 1.514 -0.312 1.26 -0.054 0.8 -2.276 -6.984 -33.12 18.632 -64.752 52.272 -65.53C161.044 78.138 179.73 96.696 187.4 113.8c0.188 0.416 -0.368 0.4 -3.732 2.28a0.326 0.326 0 0 1 -0.454 -0.144c-7.254 -14.81 -15.102 -22.038 -25.644 -27.452a50.11 50.11 0 0 0 -64.694 17.744A52.924 52.924 0 0 0 84.938 139.2c0.49 5.362 0.308 6.848 1.776 6.826 0.896 -0.014 2.52 -0.322 3.148 -0.294 0.58 0.024 0.49 0.286 0.152 0.986Z" stroke-width="1"></path><path fill="#0a0430" d="M124.376 175.094c-1.978 1.022 -1.366 2.276 0.694 6.37 0.956 1.902 -1.264 2.886 48.728 -20.14 1.54 -0.708 1.102 -1.63 -1.014 -6.18 -0.904 -1.946 -2.724 -1.056 -6.824 0.894 -1.67 0.8 -1.272 0.2 -9.526 -13.142 -4 -6.474 -10.866 -6.034 -15.828 -6.768 -1.504 -0.222 -1.954 -2.28 -0.94 -3.566 7.932 -10.046 8.36 -9.426 2.55 -31.034 5.86 -2.718 6.416 -1.896 3.6 -7.8 -0.93 -1.95 -0.892 -1.756 -12.462 3.178 -40 17.056 -36.76 16.166 -36.226 17.654 2.452 6.862 2.07 5.698 8.668 3.114 6.444 12.164 8.062 16.658 15.182 18.048 2.604 0.316 5.174 0.86 7.682 1.622a2.676 2.676 0 0 1 1.2 3.324c-5.556 8.186 -8.31 10.696 -0.8 30.638 0.62 1.68 0.764 0.972 -4.684 3.788ZM117.016 118.8c-1.882 1.4 -2.548 2.416 -3.114 1.352 -2.694 -5.066 -3 -5.176 -1.988 -5.6 23.1 -9.718 24.318 -11.946 24.948 -9.444 1.29 5.11 2.19 5.588 1.21 6.818 -6.11 7.634 -13.43 1.218 -21.056 6.874Zm14.036 29.376c1.936 -3.42 4.764 -8.578 5.568 -8.11 2.79 1.62 9.416 0.872 13.13 3.306 1.672 1.098 4.51 4.304 3 5.642 -3.854 3.432 -7.018 2.784 -14.92 3.29a28.228 28.228 0 0 0 -8.178 2.486 8.314 8.314 0 0 1 1.4 -6.624v0.01Z" stroke-width="1"></path><path fill="#0a0430" d="M138.81 31.8c12.478 -5 12.262 -4.686 11.728 -6.516a17.932 17.932 0 0 0 -1.898 -4.362c-0.912 -1.324 -1.682 -1 -3.278 -0.438 -12.734 4.574 -12.286 3.42 -8.656 10.874 0.174 0.364 0.612 1.042 2.104 0.442Zm7.682 -10.722c1.052 -0.4 1.526 0.472 2.816 3.712 0.67 1.684 0.6 1.524 -6.222 4.218 -5 1.978 -5.382 1.968 -5.7 1.296 -2.804 -5.92 -4.136 -4.282 9.106 -9.218v-0.008Z" stroke-width="1"></path><path fill="#0a0430" d="M139.102 29c5.662 -2.036 6.86 -2.4 6.632 -3.278 -0.51 -1.952 -1.172 -2.534 -1.664 -2.364 -7.814 2.714 -7.39 2.338 -6.75 3.906 0.178 0.654 0.48 1.264 0.896 1.8 0.242 0.266 0.482 0.072 0.886 -0.064Z" stroke-width="1"></path><path fill="#0a0430" d="M132.982 33.8c0.67 -0.296 1.56 -0.624 1.238 -1.588a22.912 22.912 0 0 0 -2.29 -5.072c-3.282 0.062 -1.768 2.086 -0.254 5.9 0.238 0.602 0.606 1.07 1.306 0.76Z" stroke-width="1"></path><path fill="#0a0430" d="M129.742 34.946c1.224 -0.33 0.908 -0.926 -0.876 -4.894 -0.614 -1.37 -2.2 0.32 -2.2 1.348 1.874 4.6 1.372 4 3.076 3.546Z" stroke-width="1"></path><path fill="#0a0430" d="M125.648 36.37a0.918 0.918 0 0 0 0.57 -1.4c-1.422 -3.308 -1.386 -2.746 -2.976 -1.224 1.016 2.606 0.842 3.186 2.406 2.624Z" stroke-width="1"></path><path fill="#0a0430" d="M88.85 45.028c1.786 -0.73 3.544 -1.702 6.022 -2.812 11.686 -5.23 9.1 -3.69 10.16 -4.974 -0.024 -4.432 -3.178 -2.04 -17.382 4.524 -1.508 0.698 -1.324 4.296 1.2 3.262Z" stroke-width="1"></path></svg>