<svg viewBox="0 0 100 100" xmlns="http://www.w3.org/2000/svg" height="100" width="100"><path d="M10 50a40 40 0 1 0 80 0 40 40 0 1 0 -80 0Z" fill="#96d90566" stroke-width="1"></path><path d="M31.828 84.954a9.261 1.736 0 1 0 18.522 0 9.261 1.736 0 1 0 -18.522 0Z" fill="#96d905" stroke-width="1"></path><path d="M58.812 74.9a4.933 4.933 0 0 1 -4.933 4.933H28.3a4.931 4.931 0 0 1 -4.933 -4.933V20.04a4.933 4.933 0 0 1 4.933 -4.932h25.58a4.933 4.933 0 0 1 4.933 4.932Z" fill="#ffffff" stroke-width="1"></path><path d="M58.812 74.9a4.933 4.933 0 0 1 -4.933 4.933H28.3a4.931 4.931 0 0 1 -4.933 -4.933V20.04a4.933 4.933 0 0 1 4.933 -4.932h25.58a4.933 4.933 0 0 1 4.933 4.932Z" fill="none" stroke="#333333" stroke-linecap="round" stroke-linejoin="round" stroke-width="1"></path><path d="M55.642 21.118a2.555 2.555 0 0 0 -2.553 -2.553h-2.406a0.638 0.638 0 0 0 -0.638 0.638v0.865c0 1.057 -0.857 1.276 -1.915 1.276H34.048c-1.057 0 -1.915 -0.219 -1.915 -1.276V19.2a0.637 0.637 0 0 0 -0.638 -0.638h-2.407a2.553 2.553 0 0 0 -2.552 2.552v52.771a2.553 2.553 0 0 0 2.553 2.553h24a2.552 2.552 0 0 0 2.552 -2.553Z" fill="#96d905" stroke-width="1"></path><path d="M55.642 21.118a2.555 2.555 0 0 0 -2.553 -2.553h-2.406a0.638 0.638 0 0 0 -0.638 0.638v0.865c0 1.057 -0.857 1.276 -1.915 1.276H34.048c-1.057 0 -1.915 -0.219 -1.915 -1.276V19.2a0.637 0.637 0 0 0 -0.638 -0.638h-2.407a2.553 2.553 0 0 0 -2.552 2.552v52.771a2.553 2.553 0 0 0 2.553 2.553h24a2.552 2.552 0 0 0 2.552 -2.553Z" fill="none" stroke="#333333" stroke-linecap="round" stroke-linejoin="round" stroke-width="1"></path><path d="m35.186 18.133 7.455 0" fill="none" stroke="#333333" stroke-linecap="round" stroke-linejoin="round" stroke-width="1"></path><path d="M45.006 18.133a1.276 1.276 0 1 0 2.552 0 1.276 1.276 0 1 0 -2.552 0Z" fill="#333333" stroke-width="1"></path><path d="m48.348 48.945 33.212 0 0 30.996 -33.212 0Z" fill="#96d905" stroke-width="1"></path><path d="M68.276 57.8a1.158 1.158 0 0 1 -1.158 1.157h-4.327a1.157 1.157 0 0 1 -1.157 -1.157v-8.855h6.642Z" fill="#ffffff" stroke="#333333" stroke-linecap="round" stroke-linejoin="round" stroke-width="1"></path><path d="m48.348 48.945 33.212 0 0 30.996 -33.212 0Z" fill="none" stroke="#333333" stroke-linecap="round" stroke-linejoin="round" stroke-width="1"></path><path d="m62.302 68.652 16.513 0 0 8.544 -16.513 0Z" fill="#ffffff" stroke="#333333" stroke-linecap="round" stroke-linejoin="round" stroke-width="1"></path><path d="m65.323 71.021 0 3.805" fill="none" stroke="#333333" stroke-linecap="round" stroke-linejoin="round" stroke-width="1"></path><path d="m67.676 71.021 0 3.805" fill="none" stroke="#333333" stroke-linecap="round" stroke-linejoin="round" stroke-width="1"></path><path d="m71.597 71.021 0 3.805" fill="none" stroke="#333333" stroke-linecap="round" stroke-linejoin="round" stroke-width="1"></path><path d="m73.871 71.021 0 3.805" fill="none" stroke="#333333" stroke-linecap="round" stroke-linejoin="round" stroke-width="1"></path><path d="m76.145 71.021 0 3.805" fill="none" stroke="#333333" stroke-linecap="round" stroke-linejoin="round" stroke-width="1"></path></svg>