<svg xmlns="http://www.w3.org/2000/svg" fill="none" viewBox="0 0 400 400" height="400" width="400"><g id="create-new-post-2--social-media-create-new-post"><g id="post"><path id="vector" fill="#ffffff" fill-rule="evenodd" d="M244.748 47.96c6.554 0.488 11.662 4.18 15.212 8.208 8.43 9.568 4.664 34.48 4.96 50.21 1.276 67.846 -1.568 146.39 0 220.684 0.436 20.704 3.374 38.512 -17.112 44.912 -14.73 4.602 -132.39 1.274 -150.026 0.618 -8.3 -0.308 -18.528 0.398 -24.594 -6.75 -11.038 -13.014 -6.996 -28.326 -7.004 -49.876 -0.01 -26.652 -2.332 -59.938 -1.708 -86.586 0.922 -39.244 2.4 -80.622 0.78 -119.86 -0.762 -18.454 -2.44 -41.31 6.814 -54.416 8.024 -11.364 30.134 -7.758 46.588 -7.48 36.584 0.616 89.576 -2.386 126.09 0.336Z" clip-rule="evenodd" stroke-width="1"></path><path id="vector_2" fill="#0a0430" fill-rule="evenodd" d="M244.826 46.928c-32.48 -3.1 -89.028 0.028 -126.144 -0.628 -15.962 -0.282 -39.118 -4.144 -47.722 8.02 -4.074 5.76 -6.13 13.34 -7.052 21.63 -1.956 17.624 0.968 27.726 0.666 81.504 -0.276 49.082 -1.944 66.034 -1.162 97.934 0.502 20.432 1.62 42.1 1.638 60.58 0.02 21.654 -4.072 37.21 7.29 50.594 6.268 7.382 16.254 6.796 25.4 7.132 15.848 0.584 135.304 4.01 150.384 -0.702 21.014 -6.566 18.296 -24.456 17.858 -45.95 -0.314 -15.394 0.332 -206.686 0.058 -220.684 -0.306 -15.622 3.542 -40.932 -5.262 -50.908 -4.234 -4.798 -9.666 -8.094 -15.948 -8.556v0.036l-0.004 -0.002Zm-0.156 2.102c5.73 0.432 10.632 3.492 14.472 7.86 8.062 9.172 4.38 34.098 4.658 49.51 0.252 13.984 -0.28 205.278 0.056 220.684 0.448 20.63 3.332 37.72 -16.366 43.872 -14.682 4.584 -133.886 1.128 -149.668 0.536 -8.594 -0.322 -18.134 0.3 -23.788 -6.37 -10.844 -12.792 -6.72 -28.512 -6.718 -49.158 0 -18.496 -1.12 -40.182 -1.57 -60.632 -0.694 -31.472 1.186 -50.796 1.572 -97.86 0.428 -52.398 -2.598 -63.722 -0.674 -81.22 0.856 -7.794 2.716 -14.944 6.538 -20.364 7.594 -10.77 29.854 -7.192 45.456 -6.942 25.226 0.406 58.25 -0.9 88.298 -0.896 14.316 0.002 37.742 0.778 37.734 0.98Z" clip-rule="evenodd" stroke-width="1"></path><path id="vector_3" fill="#ffffff" fill-rule="evenodd" d="M236.196 334.12c0.058 3.816 -0.448 9.03 0.068 12.816 0.02 0.14 0.512 3.412 0.622 3.386 2.004 -0.462 3.514 -4.762 5.274 -4.356 2.56 0.588 3.696 4.138 5.702 4.644 0.744 0.188 1.458 -3.652 1.58 -4.064 0.842 -2.838 -0.036 -9.07 -0.004 -12.004 0.006 -0.572 -10.074 -0.446 -13.242 -0.42v-0.002Z" clip-rule="evenodd" stroke-width="1"></path><path id="vector_4" fill="#ffffff" fill-rule="evenodd" d="M95.622 353.558c-4.602 -3.292 -15.33 -10.552 -10.41 -18.126 1.68 -2.586 5.886 -2.014 7.99 3.656 0.236 0.634 0.118 2.252 0.668 1.916 0.672 -0.41 1.06 -2.568 1.37 -3.314 0.844 -2.024 2.138 -3.646 4.16 -4.294 3.908 -1.254 5.782 2.702 5.442 6.364 -0.49 5.286 -5.956 10.194 -9.22 13.798Z" clip-rule="evenodd" stroke-width="1"></path><path id="vector_5" fill="#ffffff" fill-rule="evenodd" d="M238.832 91.946c6 0.352 10.676 3.014 13.924 5.92 7.716 6.896 4.268 24.86 4.54 36.202 1.168 48.92 -1.436 105.552 0 159.12 0.4 14.928 3.088 27.77 -15.664 32.384 -13.484 3.318 -121.182 0.918 -137.324 0.446 -7.596 -0.222 -16.96 0.288 -22.51 -4.868 -10.104 -9.384 -6.404 -20.424 -6.412 -35.962 -0.01 -19.216 -2.136 -43.216 -1.562 -62.432 0.844 -28.296 2.196 -58.132 0.714 -86.424 -0.696 -13.306 -2.234 -29.786 6.236 -39.236 7.344 -8.194 27.582 -5.594 42.644 -5.394 33.486 0.444 81.992 -1.718 115.414 0.244Z" clip-rule="evenodd" stroke-width="1"></path><path id="vector_6" fill="#ffffff" fill-rule="evenodd" d="M84.18 58.388c-9.486 8.012 -5.302 23.434 3.732 27.132 2.178 0.892 4.59 0.904 6.894 0.688 4.148 -0.39 7.618 -2.17 10.668 -4.964 1.248 -1.144 3.866 -3.788 4.334 -10.5 0.434 -6.224 -3.068 -9.856 -5.682 -12.056 -1.758 -1.478 -3.78 -2.94 -6.032 -3.35 -4.356 -0.79 -10.694 0.33 -13.914 3.05Z" clip-rule="evenodd" stroke-width="1"></path><path id="vector_7" fill="#0a0430" fill-rule="evenodd" d="M244.826 46.928c-32.48 -3.1 -89.028 0.028 -126.144 -0.628 -15.962 -0.282 -39.118 -4.144 -47.722 8.02 -4.074 5.76 -6.13 13.34 -7.052 21.63 -1.956 17.624 0.968 27.726 0.666 81.504 -0.276 49.082 -1.944 66.034 -1.162 97.934 0.502 20.432 1.62 42.1 1.638 60.58 0.02 21.654 -4.072 37.21 7.29 50.594 6.268 7.382 16.254 6.796 25.4 7.132 15.848 0.584 135.304 4.01 150.384 -0.702 21.014 -6.566 18.296 -24.456 17.858 -45.95 -0.314 -15.394 0.332 -206.686 0.058 -220.684 -0.306 -15.622 3.542 -40.932 -5.262 -50.908 -4.234 -4.798 -9.666 -8.094 -15.948 -8.556v0.036l-0.004 -0.002Zm-0.156 2.102c5.73 0.432 10.632 3.492 14.472 7.86 8.062 9.172 4.38 34.098 4.658 49.51 0.252 13.984 -0.28 205.278 0.056 220.684 0.448 20.63 3.332 37.72 -16.366 43.872 -14.682 4.584 -133.886 1.128 -149.668 0.536 -8.594 -0.322 -18.134 0.3 -23.788 -6.37 -10.844 -12.792 -6.72 -28.512 -6.718 -49.158 0 -18.496 -1.12 -40.182 -1.57 -60.632 -0.694 -31.472 1.186 -50.796 1.572 -97.86 0.428 -52.398 -2.598 -63.722 -0.674 -81.22 0.856 -7.794 2.716 -14.944 6.538 -20.364 7.594 -10.77 29.854 -7.192 45.456 -6.942 25.226 0.406 58.25 -0.9 88.298 -0.896 14.316 0.002 37.742 0.778 37.734 0.98Z" clip-rule="evenodd" stroke-width="1"></path><path id="vector_8" fill="#0a0430" fill-rule="evenodd" d="M235.348 334.134c0.016 3.816 -0.706 8.512 -0.046 12.934 0.04 0.27 0.55 3.19 0.754 3.608 0.514 1.054 1.774 0.366 2.624 -0.432 1.098 -1.032 2.688 -3.562 3.284 -3.422 2.2 0.516 3.26 4.048 5.678 4.67 1.822 0.468 2.338 -3.504 2.7 -4.68 0.892 -2.916 0.224 -10.848 0.236 -12.258 0.01 -1.162 -1.174 -1.334 -2.31 -1.42 -2.458 -0.184 -7.858 -0.15 -10.88 -0.034 -1.014 0.038 -2.044 0.14 -2.04 1.034Zm1.742 0.984c3.784 0.036 11.014 0.274 11.214 0.274 0.074 3.368 0.982 8.28 0.238 10.886 -0.072 0.254 -1.172 2.046 -1.224 3.028 -1.37 -1.156 -4.122 -6.002 -7.01 -3.564 -0.96 0.81 -2.006 2.478 -2.796 3.212 -0.79 -5.258 -0.396 -9.858 -0.422 -13.836Z" clip-rule="evenodd" stroke-width="1"></path><path id="vector_9" fill="#0a0430" fill-rule="evenodd" d="M238.894 90.912c-28.348 -2.32 -81.578 -0.066 -115.456 -0.548 -14.058 -0.2 -35.718 -3.068 -43.688 5.812 -3.728 4.152 -5.644 9.59 -6.522 15.548 -1.878 12.75 0.85 21.202 0.606 59.166 -0.228 35.458 -1.784 47.658 -1.076 70.636 0.454 14.726 1.482 30.344 1.498 43.662 0.018 15.434 -3.77 26.982 6.786 36.776 5.862 5.438 15.364 4.926 23.234 5.152 14.138 0.406 123.846 2.876 137.612 -0.512 7.468 -1.838 11.668 -4.97 14.028 -8.938 3.77 -6.34 2.712 -15.006 2.474 -24.508 -0.278 -11.094 0.278 -149.022 0.028 -159.12 -0.282 -11.394 3.266 -29.676 -4.932 -36.99 -4.096 -3.654 -9.108 -5.86 -14.588 -6.174v0.036l-0.004 0.002Zm-0.124 2.102c4.992 0.302 9.534 2.324 13.258 5.662 7.238 6.488 3.896 24.422 4.15 35.416 0.232 10.078 -0.29 148.01 0.026 159.124 0.256 9.048 1.464 17.322 -2.12 23.364 -2.122 3.578 -5.974 6.3 -12.706 7.956 -13.504 3.322 -122.668 0.806 -137.038 0.38 -7.252 -0.216 -16.542 0.292 -21.786 -4.582 -9.68 -8.996 -6.038 -19.704 -6.036 -35.148 0 -13.34 -1.018 -28.982 -1.438 -43.732 -0.648 -22.844 1.046 -36.146 1.426 -70.544 0.428 -38.924 -2.386 -46.108 -0.532 -58.786 0.79 -5.396 2.458 -10.346 5.828 -14.11 7.044 -7.87 28.992 -5.13 41.6 -4.974 23.088 0.284 53.314 -0.664 80.814 -0.676 5.466 -0.002 34.57 0.442 34.554 0.65Z" clip-rule="evenodd" stroke-width="1"></path><path id="vector_10" fill="#0a0430" fill-rule="evenodd" d="M93.988 338.638c-2.472 -6.412 -7.514 -6.738 -9.51 -3.682 -2.06 3.152 -1.796 6.546 0.116 9.738 2.366 3.952 6.898 7.056 10.518 9.578v-0.024a0.9 0.9 0 0 0 1.162 -0.122c0.144 -0.12 0.316 -0.216 0.478 -0.354 0.344 -0.292 0.652 -0.654 0.992 -1 3.45 -3.514 7.764 -8.032 8.234 -12.912 0.282 -2.92 -0.708 -5.284 -2.07 -6.524 -2.334 -2.122 -5.784 -1.112 -7.76 1.092 -1.318 1.472 -1.806 2.99 -2.158 4.206l-0.002 0.004Zm1.428 13.68c-5.746 -4.216 -13.338 -10.426 -9.474 -16.412 1.282 -1.984 4.622 -1.412 6.418 3.494 0.296 0.808 -0.026 2.268 1.144 2.53 0.718 0.16 1.28 -0.422 1.618 -1.08 0.706 -1.378 0.692 -3.278 2.416 -5.154 1.55 -1.688 4.07 -2.292 5.374 -0.216 0.696 1.108 0.936 2.67 0.794 4.172 -0.442 4.654 -5.098 9.124 -8.29 12.666Z" clip-rule="evenodd" stroke-width="1"></path><path id="vector_11" fill="#0a0430" fill-rule="evenodd" d="M109.436 63.546c-1.692 -3.42 -5.584 -6.758 -8.248 -8.174 -5.28 -2.8 -17.624 -1.28 -21.756 7.084 -1.78 3.602 -1.964 8.696 -0.954 12.51 0.69 2.592 2.478 6.264 4.582 8.376a13.192 13.192 0 0 0 8.184 3.794c6.02 0.528 10.842 -1.428 14.93 -5.12 3.154 -2.91 4.342 -6.872 4.628 -11.2 0.206 -2.918 -0.398 -5.304 -1.37 -7.268l0.004 0Zm-18.06 21.88c-2.438 -0.156 -4.326 -0.9 -6.486 -2.912 -1.108 -7.2 3.55 -10.37 4.386 -12.216 0.602 -1.34 -0.062 -2.874 -0.03 -3.946 0.062 -2.632 1.818 -4.988 4.2 -5.44 1.386 -0.238 2.954 0.068 3.752 1.228 0.81 1.194 0.722 2.922 0.65 4.234 -0.04 0.628 -0.51 1.57 -0.034 2.522 0.81 1.614 2.62 2.152 3.592 3.22 2.3 2.516 3.102 5.108 3.156 8.436 0 0.04 -0.004 0.08 -0.008 0.12 -3.914 3.548 -8.392 5.054 -13.178 4.752Zm17.43 -14.752c-0.214 2.904 -0.914 5.96 -2.638 8.272 -0.332 -2.82 -1.42 -5.714 -3.378 -8.04 -0.882 -1.054 -2.744 -1.954 -3.18 -2.89 0.054 -1.198 0.188 -2.58 -0.32 -4.684 -0.434 -1.806 -1.248 -3.16 -3.268 -3.752 -4.23 -1.25 -8.294 2.216 -8.704 6.66 -0.058 0.686 0.14 1.708 0.14 2.58 0 1.266 -1.352 1.62 -3.036 5.054a12.748 12.748 0 0 0 -1.296 6.734c-1.512 -1.906 -2.254 -3.686 -2.848 -6.1 -1.09 -4.454 -0.626 -7.62 1.212 -10.98 1.404 -2.566 3.412 -4.512 5.384 -5.544 2.992 -1.574 6.662 -2.464 11.032 -1.626 2.052 0.368 3.958 1.772 5.56 3.114 3.636 3.044 5.668 6.432 5.34 11.202Z" clip-rule="evenodd" stroke-width="1"></path><path id="vector_12" fill="#0a0430" d="M210.064 69.996c-0.296 -0.274 -0.564 -0.258 -0.798 -0.286 -3.198 -0.378 -8.164 2.18 -12.484 2.016 -1.792 -0.07 -3.638 -1.374 -5.75 -1.842 -2.522 -0.56 -6.184 0.556 -8.906 1.372 -4.98 1.494 -5.666 1.484 -7.192 0.45 -1.554 -1.058 -3.004 -2.604 -4.86 -2.294 -3.9 0.626 -7.11 4.438 -10.802 4.34 -3.044 -0.054 -3.866 -4.974 -7.946 -5.252 -5.914 -0.412 -10.314 6.24 -15.514 4.652 -1.074 -0.334 -1.668 -2.544 -1.996 -3.648 -0.668 -2.238 -1.872 -5.734 -3.968 -4.702 -0.692 0.342 -2.072 1.468 -2.524 1.838 -2.604 2.134 -4.544 3.772 -8.342 8.504a1.08 1.08 0 0 0 1.676 1.36c5.118 -6.246 7.498 -7.428 8.14 -8.126 0.282 -0.306 0.91 -0.986 1.4 -1.332 1.35 1.754 1.642 7.338 4.976 8.276 6.322 1.76 10.972 -5.022 16 -4.668 3.636 0.268 4.01 7.922 12 4.464 2.494 -1.08 4.654 -3.04 7.258 -3.44 0.472 -0.07 0.79 0.132 2.084 1.17 2.664 2.144 3.384 2.986 11.252 0.73 5.882 -1.686 6.356 -1.416 9.176 -0.29 2.388 0.952 3.77 1.452 7.882 0.564 2.31 -0.498 4.6 -1.306 6.93 -1.716 0.976 -0.172 0.478 -0.02 1.642 -0.324a1.05 1.05 0 0 0 0.666 -1.82v0.004Z" stroke-width="1"></path></g><g id="megaphone"><path id="vector_13" fill="#ffffff" fill-rule="evenodd" d="M128.41 251.602c0.708 3.772 3.214 12.116 4.98 16.07 1.328 2.976 4.728 -0.948 5.848 2.864 2.46 8.364 4.812 15.926 7.54 27.22 1.064 4.398 1.576 8.534 5.612 8.818 1.436 0.1 9.492 -1.704 10.85 -2.498 6.47 -3.776 0.672 -11.608 -2.074 -38.352 -0.3 -2.916 3.19 -1.132 3.878 -3.684 0.846 -3.132 -0.674 -10.866 -1.48 -15.576 2.26 -0.974 3.168 -1.998 3.85 -3.67 16.86 -3.092 27.716 -2.116 43.344 -1.502 15.294 0.602 25.398 2.378 42.204 3.786 12.776 1.07 39.912 6.304 46.77 0.868 7.022 -5.564 7.822 -26.132 5.586 -41.024 -3.514 -23.414 -6.746 -39.69 -20.478 -64.224 -6.088 -10.878 -13.194 -20.328 -23.602 -19.812 -13.954 0.692 -64.834 40.574 -80.2 48.662 -8.024 4.222 -19.028 12.122 -28.302 13.308 -3.406 -3.532 -11.136 -1.848 -15.586 -0.728 -8.826 2.22 -22.55 6.408 -27.388 10.174 -2.508 1.952 -1.86 8.492 -0.322 15.902 -2.262 0.512 -5 1.236 -6.344 1.672 -10.862 3.518 -8.128 13.122 -6.546 20.864 0.704 3.444 1.712 10.142 5.284 12.366 3.004 1.868 10.58 0.626 15.694 -0.502 1.754 4.368 4.75 7.728 10.88 8.998Z" clip-rule="evenodd" stroke-width="1"></path><path id="vector_14" fill="#96d905" fill-rule="evenodd" d="M109.398 192.986c-2.126 3.232 -1.39 6.392 -1.086 10.098 0.576 7.004 6.248 28.616 8.068 36.58 0.712 3.118 3.508 7.86 6.29 9.802 4.864 3.396 10.34 2.63 14.582 2.222 4.02 -0.388 23.936 -3.29 28.184 -6.524 4.382 -3.336 3.03 -8.388 1.624 -12.92 -3.584 -11.554 -6.298 -22.236 -9.066 -33.358 -1.142 -4.586 -1.714 -13.526 -5.88 -16.462 -7.174 -5.056 -20.752 1.746 -30.818 4.83 -2.672 0.818 -9.84 2.61 -11.898 5.736v-0.004Z" clip-rule="evenodd" stroke-width="1"></path><path id="vector_15" fill="#96d905" d="M298.258 207.462c-2.586 -16.09 -1.39 -28.442 -14.352 -55.106 -3.586 -7.39 -9.27 -18.488 -17.126 -20.954 -5.254 -1.658 -10.048 3.472 -11.714 8.724 -2.664 8.386 -1.036 17.274 0.538 25.788 1.538 8.29 3.096 21.618 5.716 32.424 1.208 5.004 3.472 10.584 5.108 15.43 6.8 20.17 28.166 32.898 32 16.522 1.65 -7.06 0.67 -17.67 -0.168 -22.828h-0.002Z" stroke-width="1"></path><path id="vector_16" fill="#0a0430" d="M298.258 207.462c-2.586 -16.09 -1.39 -28.442 -14.352 -55.106 -3.586 -7.39 -9.27 -18.488 -17.126 -20.954 -5.254 -1.658 -10.048 3.472 -11.714 8.724 -2.664 8.386 -1.036 17.274 0.538 25.788 1.538 8.29 3.096 21.618 5.716 32.424 1.208 5.004 3.472 10.584 5.108 15.43 6.8 20.17 28.166 32.898 32 16.522 1.65 -7.06 0.67 -17.67 -0.168 -22.828h-0.002Zm-3.246 26.266c-2.984 4.756 -11.242 0.216 -15.356 -3.464 -5.544 -4.956 -9.326 -12.154 -11.016 -17.24 -0.488 -1.468 -3.036 -8.642 -3.686 -10.674 -2.968 -9.262 -4.932 -25.082 -7.228 -36.876 -0.848 -4.36 -1.724 -8.87 -1.962 -13.334 -0.338 -6.266 0.604 -14.326 5.774 -17.944 1.432 -1.008 2.992 -1.416 4.644 -0.902 7.152 2.23 12.706 13.196 15.976 19.908 12.83 26.348 10.994 36.976 13.984 54.612 1.102 6.476 2.302 20.408 -1.13 25.914Z" stroke-width="1"></path><path id="vector_17" fill="#0a0430" fill-rule="evenodd" d="M306.244 204.786c-3.848 -25.466 -7.432 -40.97 -20.624 -64.518 -5.436 -9.7 -13.36 -21.102 -24.484 -20.56 -13.292 0.642 -67.188 41.948 -80.52 49.02 -7.948 4.194 -18.22 11.78 -27.282 13.128a6.588 6.588 0 0 0 -2.548 -1.542c-1.858 -0.594 -3.784 -0.774 -5.718 -0.692 -5.87 0.248 -19.6 4.586 -25.11 6.626 -3.542 1.314 -8.058 3.04 -10.71 5.382l-0.016 -0.028c-3.486 2.684 -1.654 11.906 -0.788 16.266 -6.066 0.836 -11.352 2.12 -13.474 7.888 -1.658 4.502 -0.314 10.194 0.698 15.164 1.748 9.18 3.082 14.948 12.22 14.41 2.738 -0.154 8.192 -1.302 9.05 -1.816 2.002 4.562 5.252 7.544 10.816 8.82 0.724 3.838 3.034 11.82 4.756 15.734 1.242 2.896 4.176 1.324 5.148 1.778 0.278 0.132 0.454 0.442 0.612 0.978 1.368 4.496 2.728 8.754 4.094 13.504 4.124 14.352 4.07 17.63 5.618 20.35 0.902 1.586 2.218 2.636 4.352 2.79 1.608 0.116 9.862 -1.716 11.376 -2.596 7.07 -4.088 1.398 -12.636 -1.434 -39.264 -0.078 -0.644 0.024 -0.62 0.718 -0.796 1.46 -0.396 2.66 -0.83 3.098 -2.494 0.952 -3.598 -1.092 -14.026 -1.52 -15.36 2.14 -1.068 2.788 -1.964 3.462 -3.368 5.394 -0.782 11.596 -1.59 16.88 -1.818 9.492 -0.414 30.09 0.672 38.44 1.426 9.274 0.832 17.756 2.008 29.52 3.01 12.602 1.07 40.148 6.422 47.5 0.542 8.474 -6.766 7.496 -31.2 5.866 -41.966l0.004 0.002Zm-142.228 56.97c-0.4 1.446 -4.298 0.302 -3.942 4.08 2.572 25.908 8.546 34.034 2.708 37.442 -1.174 0.698 -9.06 2.488 -10.318 2.404 -1.444 -0.102 -2.326 -0.816 -2.942 -1.88 -1.436 -2.514 -0.022 -1.054 -9.3 -33.55 -0.418 -1.444 -1.138 -2.064 -1.908 -2.344 -1.65 -0.616 -3.426 0.678 -4.03 -0.63 -1.68 -3.692 -3.814 -10.704 -4.664 -14.59 6.656 0.978 13.042 -0.65 20.276 -2.294 3.452 -0.788 8.492 -1.126 12.91 -2.684 0.098 1.564 2.11 10.78 1.206 14.05l0.004 -0.004Zm1.802 -17.916c-2.274 3.15 -12.486 3.944 -16.318 4.83 -3.588 0.82 -7.512 1.78 -11.374 2.266 -6.332 0.804 -13.614 0.222 -17.578 -4.812 -3.526 -4.468 -3.916 -11.168 -5.244 -17.826 -1.958 -9.244 -9.282 -31.926 -4.998 -35.308l-0.016 -0.022c6.406 -4.396 28.478 -10.876 34.87 -11.118 1.666 -0.062 3.328 0.09 4.928 0.616 4.27 1.384 4.644 9.148 5.676 12.804 2.262 7.794 4.07 15.728 6.162 23.58 3.372 12.696 4.942 14.922 5.22 19.358 0.13 2.04 -0.152 4.012 -1.328 5.632Zm139.066 -13.548c-0.868 6.73 -2.636 12.376 -5.782 14.85 -6.376 5.008 -32.838 -0.094 -46.036 -1.2 -16.776 -1.378 -27.042 -3.156 -42.258 -3.72 -13.562 -0.51 -27.84 -1.686 -42.092 1.478 1.264 -5.492 -1.736 -10.804 -4.95 -23.328 -2.018 -7.89 -3.674 -15.872 -5.824 -23.716 -0.858 -3.058 -1.166 -7.862 -3.332 -11.226 9.272 -1.766 18.838 -8.85 26.866 -13.07 16.474 -8.6 66.196 -47.892 79.812 -48.604 10.568 -0.522 17.606 10.106 22.794 19.374 12.886 23.068 16.492 38.21 20.328 63.928 1.166 7.852 1.496 17.292 0.474 25.234Z" clip-rule="evenodd" stroke-width="1"></path></g><g id="message 1"><path id="vector_18" fill="#96d905" fill-rule="evenodd" d="M16.074 124.06c4.99 -2.026 21.022 -0.76 29.372 -1.064 9.934 -0.366 19.876 0.232 29.806 0.06 8.916 -0.152 38.252 -0.092 43.946 -0.148 3.76 -0.04 10.668 -0.256 14.096 1.39 3.912 1.878 3.93 6.634 4.046 11.728 0.166 7.278 0.298 24.09 0.106 28.36 -0.174 3.87 1.062 10.212 -2.916 12.312 -5.862 3.096 -27.434 1.916 -35.738 1.898 -3.322 -0.008 -15.508 -0.184 -15.508 -0.184l10.118 10.07 -40.148 -10.336s-14.608 0.434 -19.862 0.42c-5.39 -0.01 -14.59 1 -18.928 -2.354 -3.316 -2.564 -2.862 -8.332 -2.822 -11.806 0.11 -9.744 -0.304 -19.4 -0.612 -29.138 -0.108 -3.402 0.884 -9.52 5.046 -11.208h-0.002Z" clip-rule="evenodd" stroke-width="1"></path><path id="vector_19" fill="#0a0430" fill-rule="evenodd" d="M11.614 127.242c-2.374 4.792 -1.456 7.916 -1.108 25.528 0.286 14.466 -0.342 15.864 0.452 19.398 2.05 9.126 13.078 7.498 22.432 7.53 1.848 0.006 18.734 -0.37 19.738 -0.4l40.032 10.124c0.956 0.246 1.628 -0.934 0.928 -1.63l-8.484 -8.414c25.726 0.272 30.846 0.578 38.418 0.124 4.768 -0.286 8.822 -0.904 10.926 -2.016 4.486 -2.372 3.204 -8.966 3.386 -13.062 0.218 -4.902 0.008 -22.918 -0.12 -28.42 -0.214 -9.306 -1.02 -12.974 -10.386 -13.806 -3.676 -0.326 -99.354 -0.278 -103.042 -0.168 -3.886 0.116 -7.194 0.462 -9.042 1.216 0.102 0.25 -2.236 0.174 -4.13 3.996Zm4.792 -2.368c4.714 -1.902 20.85 -0.67 29.076 -0.958 10.006 -0.35 19.82 0.262 29.79 0.162 50.798 -0.508 49.426 -0.402 52.402 -0.142 8.242 0.722 8.602 3.626 8.792 12.108 0.09 4.006 0.18 26.39 0.094 28.3 -0.168 3.704 0.974 9.756 -2.45 11.56 -5.678 2.994 -26.862 1.852 -50.812 1.56a0.946 0.946 0 0 0 -0.68 1.614l7.556 7.55 -36.954 -9.632c-6.78 0.166 -27.858 0.744 -31.35 0.416 -2.63 -0.248 -5.076 -0.79 -6.736 -2.072 -1.134 -0.874 -1.718 -2.206 -2.05 -3.656 -0.744 -3.26 -0.126 -4.266 -0.47 -18.96 -0.404 -17.222 -1.3 -20.276 0.784 -24.61 0.618 -1.286 1.688 -2.664 2.994 -3.268l0.012 0.028h0.002Z" clip-rule="evenodd" stroke-width="1"></path><path id="vector_20" fill="#0a0430" fill-rule="evenodd" d="M45.006 135.006c-0.864 2.67 -3.252 4.768 -4.204 6.158a1.286 1.286 0 0 0 0.162 1.714c1.98 1.404 5.454 0.5 7.79 -0.158 4.838 -1.364 10.756 -5.73 15.85 -5.44 0.018 0.232 0.036 0.51 0.034 0.566 -0.042 1.124 -2.268 5.322 0.92 6.164 6.788 1.794 12.744 -5.414 18.708 -6.176 -0.18 1.034 -0.492 2.294 0.04 3.358 0.386 0.776 1.166 1.442 2.832 1.468 5.004 0.08 8.636 -2.768 13.05 -3.198 0.642 -0.062 1.404 1.478 2.926 2.254 1.242 0.634 2.826 0.54 4.434 0.326 3.19 -0.424 4.356 -1.23 10.94 -1.258 6.272 -0.026 8.648 0.984 8.84 -0.646a1.034 1.034 0 0 0 -0.906 -1.15c-3.698 -0.916 -9.856 -0.832 -13.258 -0.548 -2.728 0.228 -5.664 1.224 -8.25 1.032 -1.514 -0.112 -2.294 -3.006 -4.99 -2.756 -4.688 0.434 -8.714 3.244 -12.786 3.308a1.88 1.88 0 0 1 -0.474 -0.034l-0.026 -0.01c0.264 -0.198 -0.056 -0.826 0.018 -1.25 0.092 -0.534 0.182 -1.044 0.176 -1.444 -0.02 -1.19 -0.756 -2.008 -1.992 -1.932 -6.6 0.406 -12.932 8.046 -18.72 6.522 -0.432 -0.114 0.668 -3.3 0.696 -3.932 0.052 -1.208 -0.178 -2.618 -1.378 -2.764 -7.594 -0.922 -15.08 6.75 -21.988 6.282 2.09 -2.416 5.754 -6.58 3.11 -8.408 -1.91 -1.322 -5.82 0.054 -8.03 0.796 -6.058 2.034 -12.114 4.666 -15.726 9.938a1.072 1.072 0 0 0 1.766 1.214c3.312 -4.784 9.166 -7.11 14.71 -8.854 1.066 -0.336 4.49 -1.408 5.726 -1.142Z" clip-rule="evenodd" stroke-width="1"></path><path id="vector_21" fill="#0a0430" fill-rule="evenodd" d="M21.482 163.05c2.644 -2.224 5.236 -3.588 8.212 -4.602 0.648 -0.182 4.492 -1.362 5.14 -0.9 0.452 0.322 -0.682 3.966 1.258 5.578 2.244 1.866 7.836 0.214 10.706 -0.87 6.354 -2.402 13.632 -6.968 17.442 -6.226 1.864 0.362 -2.2 7.49 3.208 8.076 8.734 0.948 15.68 -6.858 23.998 -7.368 1.26 -0.078 1.424 0.876 1.692 1.76 0.722 2.392 1.542 4.232 4.2 4.484 3.754 0.354 7.052 -1.18 10.48 -1.724 7.43 -1.174 13.126 1.272 13.318 -0.992a1.036 1.036 0 0 0 -0.944 -1.12c-2.188 -0.478 -2.806 -0.528 -6.272 -0.71 -7.242 -0.382 -9.506 1.156 -13.556 1.73 -3.982 0.566 -3.942 -0.394 -4.446 -2.1 -0.75 -2.544 -1.764 -4.316 -4.66 -4.076 -8.246 0.684 -15.792 8.698 -23.576 7.906 -1.03 -0.104 -1.058 -0.614 -1.008 -1.67 0.106 -2.278 1.144 -5.722 -2.024 -6.324 -6.576 -1.25 -17.038 8.06 -25.866 7.668 -0.502 -0.022 -0.854 -0.104 -1.086 -0.288 -0.552 -0.44 -0.126 -2.332 -0.346 -3.744 -0.31 -2 -1.806 -2.752 -3.832 -2.406 -5.844 0.996 -9.758 3.148 -13.424 6.286a1.072 1.072 0 0 0 1.386 1.632Z" clip-rule="evenodd" stroke-width="1"></path></g><g id="message 2"><path id="vector_22" fill="#96d905" fill-rule="evenodd" d="M309.684 256.066c-4.636 -1.882 -19.532 -0.704 -27.29 -0.99 -9.23 -0.34 -18.466 0.216 -27.692 0.056 -8.284 -0.142 -35.54 -0.088 -40.83 -0.14 -3.494 -0.034 -9.912 -0.238 -13.096 1.292 -3.634 1.746 -3.65 6.164 -3.758 10.896 -0.154 6.762 -0.278 22.38 -0.098 26.348 0.162 3.596 -0.986 9.488 2.708 11.44 5.284 2.79 23.152 1.946 47.612 1.592l-9.4 9.356 37.302 -9.604s13.572 0.402 18.454 0.392c5.008 -0.01 13.556 0.928 17.586 -2.19 3.08 -2.384 2.658 -7.74 2.622 -10.968 -0.102 -9.054 0.282 -18.024 0.568 -27.072 0.1 -3.16 -0.822 -8.844 -4.688 -10.414v0.006Z" clip-rule="evenodd" stroke-width="1"></path><path id="vector_23" fill="#0a0430" fill-rule="evenodd" d="M310.014 255.252c-4.882 -1.996 -19.784 -0.796 -27.586 -1.098 -0.602 -0.024 -73.118 -0.186 -76.58 0.122 -8.738 0.778 -9.506 4.206 -9.706 12.886 -0.086 3.73 -0.19 24.62 -0.112 26.41 0.186 4.208 -0.994 9.982 3.178 12.19 5.678 3.004 24.316 1.996 45.71 1.772l-7.766 7.698c-0.696 0.692 -0.03 1.876 0.928 1.63l37.186 -9.39c0.962 0.028 16.612 0.374 18.33 0.368 5.464 -0.018 13.91 0.924 18.256 -2.45 3.364 -2.61 3.082 -7.642 3.026 -11.85 -0.12 -9.274 0.264 -18.168 0.516 -27.026 0.122 -4.262 -1.298 -9.808 -5.392 -11.232l0.01 -0.028 0.002 -0.002Zm-0.65 1.6c1.184 0.552 2.176 1.834 2.74 3.012 1.944 4.054 1.092 6.882 0.716 22.832 -0.612 25.908 5.534 23.548 -37.648 22.472 -0.26 -0.006 -0.016 -0.044 -34.106 8.898l6.838 -6.836a0.946 0.946 0 0 0 -0.68 -1.614l-14.396 0.19c-6.408 0.02 -27.542 1.136 -32.784 -1.628 -3.138 -1.656 -2.088 -7.304 -2.242 -10.688 -0.204 -4.498 -0.026 -21.292 0.086 -26.29 0.232 -10.334 0.822 -11.458 15.972 -11.326 84.886 0.742 91.008 -0.804 95.492 1.004l0.01 -0.028 0.002 0.002Z" clip-rule="evenodd" stroke-width="1"></path><path id="vector_24" fill="#0a0430" fill-rule="evenodd" d="M229.662 266.306c-0.814 2.41 -2.96 4.288 -3.864 5.608a1.274 1.274 0 0 0 0.168 1.7c1.868 1.32 5.088 0.488 7.306 -0.136 4.484 -1.264 9.938 -5.282 14.636 -5.054 0.014 0.192 0.026 0.402 0.024 0.448 -0.042 1.062 -2.106 5.006 0.912 5.806 6.304 1.668 11.804 -4.936 17.294 -5.712 -0.196 1.084 -0.402 2.126 0.062 3.06 0.37 0.744 1.114 1.388 2.714 1.416 4.686 0.08 8.026 -2.564 12.134 -2.968 0.502 -0.05 1.288 1.382 2.664 2.082 1.17 0.596 2.648 0.516 4.176 0.312 2.96 -0.394 4.058 -1.144 10.152 -1.174 5.78 -0.028 8.096 0.916 8.286 -0.68a1.038 1.038 0 0 0 -0.906 -1.15c-3.044 -0.866 -9.18 -0.792 -12.334 -0.528 -2.476 0.206 -5.298 1.134 -7.65 0.954 -1.32 -0.1 -2.132 -2.794 -4.652 -2.562 -4.288 0.396 -9.882 3.66 -12.188 3.008 0.104 -0.23 -0.1 -0.696 -0.044 -1.024 0.146 -0.854 0.344 -1.806 -0.174 -2.524 -0.304 -0.42 -0.77 -0.768 -1.606 -0.716 -6.112 0.382 -12.044 7.466 -17.368 6.07 -0.06 -0.016 -0.016 -0.09 -0.02 -0.148 -0.05 -0.894 0.694 -2.72 0.724 -3.426 0.05 -1.168 -0.188 -2.506 -1.348 -2.648 -5.65 -0.692 -11.268 3.766 -16.064 5.108 -1.294 0.362 -2.836 0.776 -4.21 0.738 1.084 -1.256 3.088 -3.602 3.546 -5.25 0.51 -1.84 -0.606 -3.334 -3.524 -3.064 -2.334 0.216 -9.872 2.632 -14.274 5.544 -2.014 1.332 -3.778 2.944 -5.154 4.956a1.074 1.074 0 0 0 1.764 1.216c1.226 -1.766 2.81 -3.158 4.604 -4.304 3.536 -2.262 11.884 -5.178 14.216 -4.954l-0.002 -0.004Z" clip-rule="evenodd" stroke-width="1"></path><path id="vector_25" fill="#0a0430" fill-rule="evenodd" d="M207.96 292.35a22.728 22.728 0 0 1 7.608 -4.258c0.208 -0.058 4.12 -1.25 4.7 -0.84 0.314 0.222 -0.642 3.68 1.16 5.178 2.128 1.768 7.336 0.216 10.03 -0.804 5.87 -2.222 12.658 -6.462 16.166 -5.782 1.594 0.31 -2.086 6.956 2.986 7.508 8.018 0.872 14.704 -6.364 22.314 -6.828 1.11 -0.068 1.234 0.788 1.47 1.568 0.68 2.252 1.476 3.998 3.986 4.234 3.518 0.328 6.568 -1.102 9.76 -1.608 6.826 -1.082 12.242 1.214 12.432 -1.006a1.04 1.04 0 0 0 -0.944 -1.12c-2.05 -0.468 -2.41 -0.494 -5.83 -0.676 -6.752 -0.36 -8.79 1.06 -12.612 1.602 -3.67 0.52 -3.576 -0.37 -4.024 -1.886 -0.708 -2.4 -1.688 -4.086 -4.43 -3.856 -7.682 0.642 -14.646 8.098 -21.888 7.364 -0.91 -0.092 -0.91 -0.524 -0.866 -1.468 0.102 -2.196 1.076 -5.382 -1.942 -5.956 -6.134 -1.168 -15.826 7.476 -24.046 7.116 -0.442 -0.02 -0.754 -0.088 -0.956 -0.252 -0.428 -0.344 -0.1 -2.22 -0.288 -3.422 -0.3 -1.916 -1.746 -2.634 -3.658 -2.306 -5.35 0.918 -9.042 2.888 -12.512 5.864a1.072 1.072 0 0 0 1.384 1.634Z" clip-rule="evenodd" stroke-width="1"></path></g><g id="details"><path id="vector_26" fill="#96d905" fill-rule="evenodd" d="M317.536 95.792c-2.652 -2.888 -3.366 -4.246 -4.15 -5.832 -0.444 -0.898 -0.99 -2.01 -0.758 -3.05 0.54 -2.416 4.34 -1.828 6.07 -1.494 1.06 0.206 3.106 1.184 4.17 0.702 0.884 -0.402 1.498 -1.686 2.138 -2.388 0.982 -1.08 2.058 -2.036 3.128 -3.024 4.836 -4.464 5.078 1.686 6.014 8.412 0.1 0.718 3.2 1.71 5.478 2.438 1.088 0.348 3.126 1.324 3.152 2.544 0.056 2.648 -3.706 4.19 -5.762 4.92 -0.256 0.092 -1.952 0.394 -2.068 0.578 -0.324 0.514 -0.158 1.798 -0.192 2.374 -0.11 1.87 -0.198 3.77 -0.594 5.604 -0.18 0.836 -0.276 2.074 -1.188 2.364 -2.71 0.866 -7.926 -6.256 -8.7 -6.536 -0.774 -0.28 -1.754 0.304 -2.526 0.458 -3.726 0.738 -9.426 2.68 -8.894 -1.106 0.076 -0.536 0.236 -1.068 0.406 -1.582 0.274 -0.832 3.254 -4.516 4.276 -5.382Z" clip-rule="evenodd" stroke-width="1"></path><path id="vector_27" fill="#96d905" fill-rule="evenodd" d="M364.786 111.62c-0.984 -4.036 -0.952 -5.66 -0.868 -7.526 0.048 -1.058 0.108 -2.366 0.854 -3.208 1.732 -1.952 4.95 0.55 6.382 1.752 0.878 0.736 2.274 2.696 3.502 2.8 1.024 0.082 2.246 -0.786 3.198 -1.104 1.46 -0.49 2.944 -0.818 4.438 -1.178 6.752 -1.626 3.842 4.18 1.28 10.87 -0.274 0.714 2.092 3.23 3.828 5.08 0.83 0.88 2.22 2.834 1.622 3.974 -1.298 2.474 -5.568 1.956 -7.844 1.57 -0.284 -0.048 -2.008 -0.644 -2.208 -0.534 -0.562 0.306 -1.062 1.58 -1.388 2.094 -1.056 1.668 -2.104 3.38 -3.408 4.868 -0.592 0.68 -1.312 1.772 -2.306 1.57 -2.95 -0.6 -4.15 -9.866 -4.724 -10.524 -0.574 -0.658 -1.778 -0.624 -2.574 -0.88 -3.828 -1.24 -10.094 -2.39 -7.672 -5.61 0.344 -0.456 0.764 -0.864 1.182 -1.252 0.678 -0.628 5.314 -2.488 6.702 -2.76h0.004Z" clip-rule="evenodd" stroke-width="1"></path><path id="vector_28" fill="#0a0430" fill-rule="evenodd" d="M316.376 95.64c-0.888 0.932 -3.604 4.168 -3.954 5.256 -0.668 2.08 -0.816 3.98 1.214 4.788 2.16 0.86 5.768 -0.352 8.29 -0.94 1.776 -0.414 1.55 -1.146 2.88 0.3 1.142 1.24 2.896 3.24 4.58 4.514 1.658 1.254 3.856 2.08 4.994 0.368 1.154 -1.734 1.232 -7.7 1.228 -9.776 0.464 -0.308 1.282 -0.33 1.654 -0.456 1.284 -0.434 3.188 -1.172 4.538 -2.264 1.8 -1.454 2.69 -3.732 0.62 -5.388 -2.08 -1.666 -5.888 -1.95 -7.572 -3.154 -0.4 -2.8 -0.93 -9.64 -3.308 -10.268 -1.474 -0.388 -2.748 0.554 -3.894 1.548 -4.27 3.708 -3.268 3.046 -4.542 4.51 -1.224 1.406 -2.74 0.308 -4.266 0.036 -2.724 -0.484 -6.2 -0.65 -6.81 2.06 -0.272 1.206 0.222 2.36 0.748 3.488 0.876 1.884 1.492 3 3.602 5.374l-0.002 0.002Zm7.966 -9.464c1.334 -1.56 -0.268 -0.448 4.288 -4.938 0.712 -0.7 1.598 -1.57 2.566 -1.316 1.4 0.368 2.074 7.928 2.242 9.292 0.17 1.374 4.37 2.632 5.932 3.152 0.684 0.228 2.56 1.054 2.584 1.75 0.07 2.06 -3.242 3.512 -5.174 4.224 -1.568 0.58 -2.582 0.004 -2.84 1.87 -0.094 0.676 0.058 3.794 -0.676 7.168 -0.114 0.52 -0.224 1.592 -0.56 1.702 -1.678 0.55 -6.142 -4.624 -7.244 -5.748 -0.654 -0.668 -1.076 -0.95 -2.086 -0.82 -0.606 0.076 -1.254 0.366 -1.798 0.462 -3.76 0.664 -5.378 1.18 -6.71 1.096 -1.628 -0.1 -1.254 -0.78 -0.764 -2.624 0.24 -0.72 2.89 -3.828 3.672 -4.612 0.586 -0.586 0.286 -1.584 0.028 -1.884 -1.014 -1.178 -2.31 -2.706 -3.04 -3.926 -1.374 -2.298 -2.654 -4.65 -0.028 -5.164 1.278 -0.25 2.888 0.054 3.834 0.252 2.804 0.584 3.916 2.236 5.776 0.06l-0.002 0.004Z" clip-rule="evenodd" stroke-width="1"></path><path id="vector_29" fill="#0a0430" fill-rule="evenodd" d="M363.842 110.92c-1.24 0.382 -5.474 1.984 -6.36 2.812 -1.054 0.988 -2.104 2.082 -1.96 3.512 0.29 2.864 5.056 3.78 8.772 4.856 1.91 0.554 2.044 -0.252 2.55 1.804 0.722 2.942 1.92 9.01 4.848 9.626 1.428 0.3 2.32 -0.86 3.178 -1.846 1.612 -1.85 3.264 -4.714 4.426 -6.806 0.594 0.06 1.52 0.434 1.764 0.48 1.404 0.256 3.534 0.556 5.336 0.246 2.38 -0.41 4.36 -2.024 3.296 -4.6 -1 -2.42 -4.542 -4.97 -5.402 -6.836 1.004 -2.654 4.062 -9.36 2.19 -11.156 -1.154 -1.106 -2.792 -0.896 -4.356 -0.566 -1.496 0.316 -2.922 0.562 -4.55 1.048 -0.902 0.27 -2.124 1.028 -2.834 0.946 -1.438 -0.166 -1.782 -1.252 -3.126 -2.35 -2.256 -1.84 -5.372 -3.786 -7.304 -1.618 -0.864 0.97 -0.99 2.304 -1.074 3.588 -0.144 2.162 -0.148 3.522 0.61 6.854l-0.004 0.004Zm1.572 0.066c-0.33 -1.528 -0.76 -3.692 -0.812 -5.2 -0.024 -0.706 -0.034 -2.72 0.174 -3.534 0.722 -2.82 3.718 -0.964 5.918 0.934 2.29 1.974 2.176 3.164 3.88 3.246 1.414 0.068 2.492 -0.86 3.56 -1.26 1.184 -0.44 5.05 -1.624 6.084 -1.636 0.486 -0.006 0.96 0.1 1.33 0.452 1.13 1.084 -2.066 8.328 -2.646 9.782 -0.532 1.332 2.714 4.652 3.878 5.92 0.532 0.58 1.858 2.322 1.51 3.006 -0.998 1.96 -4.818 1.59 -6.99 1.246 -1.73 -0.272 -2.364 -1.332 -3.54 0.25 -0.492 0.662 -0.638 1.402 -2.862 4.49 -0.466 0.646 -1.918 2.452 -2.312 2.81 -0.164 0.148 -0.322 0.314 -0.538 0.272 -1.876 -0.368 -3.354 -7.412 -3.818 -9.086 -0.602 -2.172 -1.9 -1.78 -3.38 -2.294 -1.81 -0.626 -4.93 -1.61 -5.014 -1.64 -3.79 -1.39 -2.742 -2.06 -1.154 -3.714 0.588 -0.54 4.684 -2.078 5.86 -2.4 0.516 -0.144 0.956 -1.246 0.87 -1.644h0.002Z" clip-rule="evenodd" stroke-width="1"></path><path id="vector_30" fill="#0a0430" fill-rule="evenodd" d="M298.258 135.088c2.054 -1.78 3.476 -3.12 4.78 -5.436 1.002 -1.778 1.82 -4.14 3.538 -5.192 2.234 -1.368 5.416 0.016 8.204 -0.794 2.096 -0.61 3.524 -2.388 4.19 -4.468 0.702 -2.192 0.59 -4.584 1.764 -6.24 0.792 -1.116 1.968 -1.964 2.578 -3.11 0.586 -0.794 -0.616 -1.68 -1.202 -0.886 -0.918 0.932 -1.956 1.97 -2.726 3.026 -1.528 2.1 -1.26 4.202 -2.08 6.666 -2.06 6.192 -7.474 1.622 -11.658 4.326 -2.098 1.356 -2.898 3.888 -3.904 5.994 -0.928 1.944 -2.494 4.074 -3.872 5.73 -0.252 0.254 0.134 0.642 0.388 0.384Z" clip-rule="evenodd" stroke-width="1"></path><path id="vector_31" fill="#0a0430" fill-rule="evenodd" d="M324.444 153.982c2.504 1.054 4.336 1.736 6.99 1.88 2.038 0.112 4.518 -0.2 6.222 0.874 2.216 1.4 2.382 4.864 4.344 7.006 1.474 1.61 3.702 2.102 5.86 1.78 2.276 -0.34 4.372 -1.5 6.376 -1.18 1.352 0.216 2.632 0.896 3.93 0.934 0.972 0.174 1.234 -1.296 0.262 -1.47 -1.242 -0.41 -2.632 -0.88 -3.92 -1.104 -2.558 -0.44 -4.326 0.73 -6.898 1.084 -6.466 0.894 -4.762 -5.984 -9.038 -8.54 -2.144 -1.28 -4.77 -0.878 -7.104 -0.848 -2.154 0.028 -4.756 -0.432 -6.852 -0.936 -0.34 -0.114 -0.514 0.402 -0.17 0.52l-0.002 0Z" clip-rule="evenodd" stroke-width="1"></path><path id="vector_32" fill="#0a0430" fill-rule="evenodd" d="M313.37 140.146c7.8 -1.12 8.286 -1.8 12.872 -0.86 2.108 0.43 4.164 0.832 6.192 0.08 6.458 -2.392 7.248 -10.32 14.74 -10.72 2.798 -0.152 10.882 0.796 10.154 -1.5a0.832 0.832 0 0 0 -1.042 -0.54c-4.238 1.31 -9.01 -1.07 -13.51 1.132 -3.82 1.87 -5.842 5.9 -8.826 8.252 -4.848 3.826 -6.572 -0.792 -15.84 1.8 -2.25 0.63 -2.64 0.932 -4.882 1.83 -0.35 0.094 -0.204 0.62 0.142 0.526Z" clip-rule="evenodd" stroke-width="1"></path></g><g id="plus"><path id="vector_33" fill="#96d905" fill-rule="evenodd" d="M227.7 34.544c-8.458 7.144 -13.508 16.716 -14.434 27.826 -1.456 17.436 7.356 38.518 24.526 45.546 5.888 2.41 12.412 2.446 18.64 1.86 11.216 -1.05 20.602 -5.868 28.848 -13.424 3.376 -3.094 10.456 -10.246 11.722 -28.4 1.174 -16.828 -8.298 -26.652 -15.366 -32.6 -4.754 -4 -10.224 -7.954 -16.314 -9.06 -11.782 -2.136 -28.914 0.898 -37.622 8.252Z" clip-rule="evenodd" stroke-width="1"></path><path id="vector_34" fill="#ffffff" fill-rule="evenodd" d="M230.518 61.718c2.306 -2.192 12.242 -1.246 15.376 -0.824l0.998 -17.612 17.38 -0.362c-0.628 14.476 -0.664 12.334 -0.42 17.934 0 0 11.828 0.822 15.504 1.696 2.65 0.63 0.608 12.806 -0.482 13.104 -2.902 0.794 -14.256 -1.59 -15.122 1.096 -1.374 4.258 0.292 16.092 -1.364 17.048 -1.304 0.754 -12.838 0.906 -14.266 0.078 -3.384 -1.962 0.51 -15.288 -1.648 -16.62 -3.044 -1.88 -15.648 0.036 -16.608 -1.138 -1.332 -1.628 -2.018 -11.862 0.652 -14.4Z" clip-rule="evenodd" stroke-width="1"></path><g id="group"><path id="vector_35" fill="#0a0430" fill-rule="evenodd" d="M226.94 33.644c-26.154 21.932 -14.428 64.872 10.54 75.034 6.032 2.456 12.524 2.58 19.04 2.004 11.494 -1.016 21.09 -5.894 29.468 -13.562 8.262 -7.564 11.25 -18.012 12.016 -29.098 0.978 -14.124 -5.014 -24.444 -15.708 -33.454 -4.882 -4.114 -10.518 -8.164 -16.788 -9.294 -13.07 -2.354 -30.954 1.982 -38.568 8.366v0.004Zm38.2 -6.332c5.914 1.082 11.236 4.956 15.84 8.824 10.184 8.556 15.972 18.268 15.024 31.75 -0.746 10.626 -3.61 20.524 -11.428 27.698 -8.19 7.514 -17.382 12.212 -28.226 13.29 -6.12 0.608 -12.584 0.612 -18.246 -1.72 -8.188 -3.372 -14.936 -10.766 -18.794 -18.478 -3.626 -7.252 -5.928 -17.29 -5.118 -26.228 0.89 -9.8 5.6 -19.638 14.268 -27.004 7.41 -6.3 22.604 -10.706 36.68 -8.132Z" clip-rule="evenodd" stroke-width="1"></path><path id="vector_36" fill="#0a0430" fill-rule="evenodd" d="m245.952 78.104 -0.044 -0.028c0.098 -0.088 0.124 0.252 0.17 0.444 0.896 3.738 -2.236 13.99 1.546 16.214 1.9 1.118 13.762 0.68 15.204 -0.17 2.45 -1.446 0.188 -12.766 1.724 -17.554 0.172 -0.446 0.866 -0.382 1.71 -0.476 4.454 -0.504 10.658 0.434 12.794 -0.208 0.244 -0.074 0.62 -0.406 0.9 -1.08 1.252 -3.012 2.95 -12.746 -0.396 -13.554 -3.088 -0.746 -11.62 -1.46 -14.796 -1.704 -0.146 -5.93 -0.21 -2.03 0.472 -17.024a0.966 0.966 0 0 0 -0.984 -1.008l-17.38 0.418a0.908 0.908 0 0 0 -0.888 0.856l-1.034 16.518c-3.596 -0.436 -9.36 -0.836 -12.846 0.14 -1.124 0.318 -1.962 0.754 -2.698 1.58 -2.396 2.7 -2.126 13.128 -0.34 15.3 0.504 0.616 1.496 0.706 2.346 0.754 3.708 0.208 12.548 -0.734 14.54 0.58Zm32.606 -3.088c-3.334 0.654 -14.444 -2.464 -15.606 1.476 -1.336 4.53 0.1 14.06 -1.06 16.568 -0.948 0.39 -7.486 0.588 -11.574 0.22 -1.566 -0.142 -1.928 -0.048 -2.314 -1.194 -0.866 -2.572 0.016 -8.746 0.06 -12.208 0.014 -1.152 0.026 -2.772 -1.066 -3.468 -2.978 -1.896 -12.568 -0.504 -16.422 -1.074 -1.056 -1.84 -1.394 -10.374 0.58 -12.948 1.874 -1.736 12.042 -0.814 14.602 -0.49a1.016 1.016 0 0 0 1.146 -0.946l0.852 -16.78 15.508 -0.268c-0.598 13.852 -0.584 10.132 -0.342 16.99a0.926 0.926 0 0 0 0.866 0.89c3.292 0.224 12.134 0.9 15.364 1.628 0.132 0.03 0.31 0.51 0.352 0.64 0.752 2.4 -0.062 9.6 -0.946 10.964Z" clip-rule="evenodd" stroke-width="1"></path></g></g></g></svg>