<svg width="400" height="400" viewBox="0 0 400 400" fill="none" xmlns="http://www.w3.org/2000/svg">
<path d="M340.794 67.2438C340.794 62.6158 334.948 56.2818 330.32 55.7938L327.776 55.5518C331.742 56.5798 334.704 60.1538 334.704 64.3198C335.192 146.166 334.704 229.96 333.486 315.218C333.486 322.254 328.738 328.058 322.23 329.944L324.23 329.832C329.832 329.588 339.088 322.768 339.088 314.486C340.306 229.23 341.28 149.088 340.794 67.2418V67.2438Z" fill="#96D905"/>
<path d="M204.872 326.424C242.542 331.706 280.636 332.656 318.628 330.566C326.912 330.11 333.428 323.502 333.486 315.22C334.094 229.958 334.948 146.17 334.704 64.3219C334.69 59.6939 331.054 55.7599 326.422 55.3099C285.53 51.3319 244.596 51.6539 203.652 54.8219C200.244 55.0859 197.746 57.7419 197.562 61.1559C193.2 142.45 194.638 228.258 196.344 317.168C196.832 321.796 200.232 325.774 204.872 326.424Z" fill="white"/>
<path d="M341.794 67.2439C341.794 62.2919 337.074 55.4219 326.51 54.3119C285.254 50.6279 243.892 50.4639 203.582 53.8219C199.736 54.0979 196.782 57.0779 196.564 61.1159C192.56 135.902 193.476 219.722 195.352 317.27C195.914 322.61 199.958 326.778 204.75 327.414C244.164 332.644 282.522 333.414 318.686 331.56C333.052 330.724 340.09 322.088 340.09 314.5C341.272 231.762 342.292 150.594 341.796 67.2419L341.794 67.2439ZM197.346 317.148C195.478 219.724 194.552 135.94 198.56 61.2279C198.72 58.2419 200.896 56.0199 203.736 55.8179C243.942 52.4679 285.19 52.6319 326.318 56.3039C330.46 56.7399 333.704 60.2639 333.704 64.3279C334.172 142.99 333.774 225.052 332.486 315.22C332.486 322.806 326.372 329.108 318.576 329.566C281.222 331.482 242.922 330.786 205.01 325.434C200.932 324.858 197.792 321.344 197.346 317.148ZM338.09 314.488C338.09 319.964 333.48 325.01 328.902 327.396C332.336 324.39 334.488 320.036 334.488 315.232C335.776 225.066 336.174 142.99 335.706 64.3199C335.706 61.9519 334.826 59.7299 333.362 57.9799C336.668 60.0099 339.796 64.1699 339.796 67.2479C340.292 150.588 339.272 231.746 338.09 314.486V314.488Z" fill="#0A0430"/>
<path d="M322.414 60.4417C285.492 56.8917 247.116 56.7277 208.364 59.9577C205.734 60.1597 203.724 62.3977 203.678 65.0497C202.394 140.964 200.7 224.102 202.46 313.086C202.46 317.154 205.432 320.776 209.404 321.374C243.29 326.47 278.878 327.246 314.926 325.504C322.172 325.05 327.858 318.962 327.858 311.644C329.146 224.072 329.544 144.726 329.076 68.2237C329.076 64.2057 326.212 60.8637 322.414 60.4397V60.4417Z" fill="white"/>
<path d="M209.274 322.366C204.806 321.612 201.462 317.624 201.462 313.086C199.706 224.272 200.116 140.802 202.68 65.0156C202.688 63.4878 203.269 62.0186 204.307 60.8976C205.345 59.7766 206.765 59.0851 208.288 58.9596C247.092 55.7256 285.56 55.6196 322.518 59.4456C326.828 59.8916 330.078 63.6976 330.078 68.2216C330.544 144.526 330.146 224.156 328.86 311.658C328.86 319.488 322.768 326.016 314.99 326.502C279.818 328.202 244.186 326.97 209.276 322.364L209.274 322.366ZM208.448 60.9536C207.421 61.0399 206.463 61.5087 205.766 62.2673C205.068 63.0259 204.68 64.0189 204.68 65.0496C202.116 140.834 201.706 224.268 203.462 313.066C203.462 316.66 206.088 319.8 209.572 320.388C243.454 324.856 278.896 326.244 314.878 324.506C321.59 324.086 326.858 318.436 326.858 311.644C328.144 224.142 328.542 144.524 328.076 68.2276C328.076 64.7196 325.598 61.8036 322.312 61.4356C286.532 57.9956 248.262 57.6356 208.448 60.9556V60.9536Z" fill="#0A0430"/>
<path d="M289.642 52.9999C288.424 56.1659 286.476 60.3079 284.77 61.2819C282.09 62.5019 279.168 63.1859 276.244 63.2299C268.446 63.3519 260.654 63.2299 252.86 62.4999C252.372 62.4999 251.642 62.2559 251.154 62.0119C249.778 60.6359 248.008 55.5519 247.5 52.7559C261.872 52.7559 276 52.7559 289.642 52.9999Z" fill="white"/>
<path d="M270.432 64.3199C264.552 64.3199 258.628 64.0439 252.766 63.4939C252.084 63.4939 251.256 63.1799 250.708 62.9059C250.158 62.6299 249.56 61.5479 249.286 60.9959C247.946 58.3179 246.99 55.5299 246.518 52.9359C246.491 52.7917 246.497 52.6434 246.534 52.5016C246.572 52.3599 246.64 52.228 246.733 52.1154C246.827 52.0028 246.945 51.9123 247.078 51.8501C247.21 51.788 247.355 51.7558 247.502 51.7559C262.164 51.7559 276.01 51.7559 289.662 51.9999C289.823 52.0026 289.981 52.0441 290.122 52.1209C290.264 52.1977 290.384 52.3076 290.474 52.4411C290.564 52.5746 290.621 52.7278 290.639 52.8878C290.657 53.0477 290.636 53.2097 290.578 53.3599C289.516 56.1139 287.416 60.9219 285.268 62.1499C280.228 64.4499 276.784 64.3219 270.434 64.3219H270.432V64.3199ZM251.75 61.1859C252.144 61.3599 252.622 61.4979 252.86 61.4979C260.67 62.2259 268.498 62.4699 276.214 62.2299C278.876 62.2299 281.68 61.5859 284.356 60.3699C285.28 59.8379 286.756 57.3739 288.174 53.9739C275.392 53.7619 262.41 53.7559 248.73 53.7559C249.224 55.8399 250.782 60.1099 251.75 61.1859Z" fill="#0A0430"/>
<path d="M345.308 120.102C345.064 120.346 345.064 120.832 344.82 121.076C344.09 122.05 342.498 122.05 341.28 121.806C340.066 121.806 339.332 120.686 339.332 119.858C338.996 116.498 338.574 98.3617 339.576 93.5497C341.071 93.3057 342.595 93.3057 344.09 93.5497C344.334 93.5497 344.578 93.7937 344.82 93.7937C345.064 94.0377 345.064 94.2817 345.064 94.7677C346.442 103.49 345.808 118.604 345.308 120.102Z" fill="white"/>
<path d="M346.064 94.768C346.064 94.204 346.064 93.622 345.526 93.088C344.572 92.136 340.76 92.34 339.412 92.564C339.213 92.597 339.029 92.6893 338.884 92.8289C338.738 92.9685 338.639 93.1487 338.598 93.346C337.558 98.336 338.022 116.806 338.334 119.858C338.334 121.298 339.618 122.83 341.086 122.788C342.616 123.094 344.608 123.034 345.528 121.784C345.814 121.498 345.928 121.164 346.072 120.748C346.966 119.694 347.354 102.852 346.066 94.768H346.064ZM344.394 119.65C344.206 119.936 344.206 120.082 344.02 120.476C343.44 121.252 340.916 120.856 340.714 120.628C340.546 120.294 340.338 120.318 340.328 119.758C339.988 116.362 339.646 99.85 340.436 94.442C342.164 94.258 343.868 94.498 344.068 94.598C344.068 94.678 344.07 94.78 344.076 94.926C345.402 103.33 344.816 117.668 344.392 119.652H344.394V119.65Z" fill="#0A0430"/>
<path d="M345.308 156.06C345.064 156.304 345.064 156.79 344.82 157.034C344.09 158.008 342.498 158.008 341.28 157.764C340.066 157.764 339.332 156.644 339.332 155.816C338.996 152.456 338.574 134.32 339.576 129.508C341.071 129.264 342.595 129.264 344.09 129.508C344.334 129.508 344.578 129.752 344.82 129.752C345.064 129.996 345.064 130.24 345.064 130.726C346.442 139.448 345.808 154.562 345.308 156.06Z" fill="white"/>
<path d="M346.064 130.726C346.064 130.162 346.064 129.58 345.526 129.046C345.338 128.856 345.166 128.736 344.902 128.736C344.72 128.646 344.464 128.508 344.254 128.524C342.65 128.264 341.015 128.264 339.412 128.524C339.213 128.557 339.029 128.649 338.884 128.788C338.738 128.928 338.639 129.108 338.598 129.306C337.558 134.294 338.022 152.764 338.334 155.818C338.334 157.266 339.638 158.804 341.086 158.746C342.616 159.052 344.606 158.994 345.528 157.746C345.814 157.458 345.928 157.122 346.072 156.708C347.036 155.56 347.32 138.592 346.066 130.728L346.064 130.726ZM344.394 155.608C344.202 155.902 344.208 156.032 344.02 156.434C343.44 157.208 340.92 156.814 340.712 156.586C340.546 156.252 340.336 156.276 340.328 155.716C339.988 152.32 339.646 135.808 340.436 130.4C341.627 130.275 342.829 130.316 344.008 130.524C344.094 130.568 344.062 130.514 344.078 130.884C345.404 139.286 344.818 153.624 344.394 155.608Z" fill="#0A0430"/>
<path d="M217.538 303.282C247.5 307.18 277.478 308.662 307.666 306.692C314.246 306.262 319.556 300.602 319.602 294.026C320.09 223.38 320.82 154.206 320.576 86.4878C320.562 82.5898 317.892 79.4778 314 79.1798C281.566 76.7038 249.204 76.0018 216.808 78.9358C214.128 79.1778 211.984 81.3718 211.936 84.2938C210.84 151.552 209.5 222.41 210.962 295.974C210.718 299.384 213.642 302.55 217.538 303.282Z" fill="#96D905"/>
<path d="M320.756 127.244L210.864 124.234C210.733 124.23 210.603 124.201 210.483 124.148C210.363 124.094 210.255 124.018 210.165 123.922C210.075 123.827 210.004 123.715 209.957 123.592C209.91 123.47 209.888 123.339 209.892 123.208C209.894 123.076 209.922 122.946 209.975 122.825C210.028 122.704 210.105 122.595 210.2 122.504C210.296 122.414 210.409 122.343 210.533 122.297C210.656 122.251 210.788 122.23 210.92 122.236L320.784 125.246C321.049 125.249 321.301 125.358 321.486 125.548C321.671 125.738 321.773 125.994 321.769 126.259C321.765 126.524 321.656 126.776 321.466 126.961C321.276 127.146 321.021 127.247 320.756 127.244Z" fill="#0A0430"/>
<path d="M320.71 173.984L210.448 171.038C210.317 171.034 210.187 171.005 210.067 170.952C209.947 170.898 209.839 170.822 209.748 170.726C209.658 170.631 209.587 170.519 209.54 170.396C209.493 170.274 209.47 170.143 209.474 170.012C209.488 169.46 210.026 169.032 210.5 169.038L320.736 171.984C321.001 171.987 321.254 172.096 321.439 172.286C321.624 172.476 321.726 172.731 321.723 172.997C321.719 173.262 321.611 173.515 321.421 173.7C321.231 173.885 320.975 173.987 320.71 173.984Z" fill="#0A0430"/>
<path d="M320.432 220.73H210.064C209.799 220.73 209.544 220.625 209.357 220.437C209.169 220.25 209.064 219.995 209.064 219.73C209.064 219.465 209.169 219.21 209.357 219.023C209.544 218.835 209.799 218.73 210.064 218.73H320.432C320.697 218.73 320.951 218.835 321.139 219.023C321.326 219.21 321.432 219.465 321.432 219.73C321.432 219.995 321.326 220.25 321.139 220.437C320.951 220.625 320.697 220.73 320.432 220.73Z" fill="#0A0430"/>
<path d="M319.934 269.478L210.424 266.498C209.11 266.462 209.144 264.472 210.478 264.498L319.96 267.478C320.225 267.482 320.477 267.59 320.662 267.78C320.847 267.97 320.949 268.226 320.945 268.491C320.941 268.756 320.832 269.008 320.642 269.193C320.452 269.378 320.197 269.48 319.932 269.476L319.934 269.478Z" fill="#0A0430"/>
<path d="M311.53 288.326H283.518V298.556H311.53V288.326Z" fill="#96D905"/>
<path d="M311.53 299.558H283.518C283.253 299.558 282.998 299.452 282.811 299.265C282.623 299.077 282.518 298.823 282.518 298.558V288.328C282.518 288.062 282.623 287.808 282.811 287.621C282.998 287.433 283.253 287.328 283.518 287.328H311.53C311.795 287.328 312.049 287.433 312.237 287.621C312.424 287.808 312.53 288.062 312.53 288.328V298.558C312.53 298.823 312.424 299.077 312.237 299.265C312.049 299.452 311.795 299.558 311.53 299.558ZM284.518 297.558H310.53V289.328H284.518V297.558Z" fill="#0A0430"/>
<path d="M306.692 86.9497H225.332C222.124 86.9497 219.704 89.3697 219.704 92.5777C219.705 94.0699 220.299 95.5004 221.354 96.5555C222.409 97.6107 223.84 98.2041 225.332 98.2057H306.692C308.184 98.2041 309.615 97.6107 310.67 96.5555C311.725 95.5004 312.318 94.0699 312.32 92.5777C312.318 91.0856 311.725 89.655 310.67 88.5999C309.615 87.5448 308.184 86.9513 306.692 86.9497ZM306.692 96.2057H225.332C220.598 96.2057 220.41 88.9497 225.332 88.9497H306.692C308.692 88.9497 310.32 90.5757 310.32 92.5777C310.319 93.5396 309.936 94.4618 309.256 95.1419C308.576 95.8221 307.654 96.2047 306.692 96.2057Z" fill="#0A0430"/>
<path d="M217.354 304.264C212.922 303.498 209.688 299.762 209.966 295.902C208.474 221.03 208.8 149.792 210.938 84.262C210.934 82.6756 211.526 81.1456 212.596 79.9748C213.667 78.804 215.138 78.0778 216.718 77.94C248.128 75.106 280.888 75.188 314.092 78.184C318.42 78.454 321.58 81.946 321.58 86.488C322.022 147.87 321.712 213.824 320.606 294.04C320.606 301.036 314.836 307.164 307.744 307.69C273.52 309.622 235.598 307.416 217.356 304.266L217.354 304.264ZM217.696 302.294C247.854 306.216 278.104 307.358 307.61 305.694C313.664 305.246 318.602 300.01 318.602 294.026C319.708 213.81 320.018 147.87 319.576 86.494C319.576 83.036 317.204 80.382 313.936 80.178C280.826 77.19 248.186 77.11 216.896 79.932C215.808 80.0293 214.797 80.5322 214.063 81.3407C213.329 82.1491 212.926 83.2041 212.934 84.296C210.798 149.824 210.472 221.026 211.96 295.956C211.752 298.902 214.27 301.642 217.694 302.296L217.696 302.294Z" fill="#0A0430"/>
<path d="M220.706 281.848C232.142 281.848 241.412 272.578 241.412 261.142C241.412 249.706 232.142 240.436 220.706 240.436C209.27 240.436 200 249.706 200 261.142C200 272.578 209.27 281.848 220.706 281.848Z" fill="white"/>
<path d="M220.704 282.846C208.736 282.846 198.998 273.11 198.998 261.14C198.998 249.17 208.736 239.434 220.704 239.434C232.672 239.434 242.41 249.172 242.41 261.14C242.41 273.108 232.672 282.846 220.704 282.846ZM220.704 241.436C209.838 241.436 200.998 250.276 200.998 261.142C200.998 272.008 209.838 280.848 220.704 280.848C231.57 280.848 240.41 272.008 240.41 261.142C240.41 250.276 231.57 241.436 220.704 241.436Z" fill="#0A0430"/>
<path d="M168.334 174.18C171.772 150.276 176.896 123.33 197.322 110.604C211.72 101.632 231.18 102.81 245.552 111.822C259.924 120.834 269.606 136.194 273.322 152.746C278.356 175.174 271.616 201.952 284.04 221.682C286.476 224.848 288.424 228.502 290.374 232.156C295.976 246.528 284.29 256.34 271.374 257.246C252.624 258.562 233.618 258.974 214.862 258.708C199.028 258.484 150.752 265.536 147.144 242.632C145.418 231.674 156.22 220.736 160.298 211.208C165.496 199.064 166.516 186.834 168.336 174.182L168.334 174.18Z" fill="white"/>
<path d="M291.246 231.67C289.312 228.046 287.314 224.298 284.884 221.148C272.684 201.772 279.414 174.942 274.296 152.528C270.414 134.932 260.13 119.784 246.082 110.974C230.758 101.364 210.948 100.874 196.792 109.754C176.786 122.138 171.172 147.194 167.342 174.038C165.494 186.984 164.364 198.934 159.376 210.806C155.228 220.33 144.368 231.32 146.152 242.786C149.332 262.712 184.048 260.994 204.27 260.036C222.912 259.154 234.25 260.656 271.446 258.24C279.506 257.632 286.724 253.742 290.282 248.09C293.262 243.356 293.614 237.72 291.244 231.668L291.246 231.67ZM288.59 247.026C285.364 252.152 278.736 255.686 271.306 256.246C252.634 257.458 233.638 257.95 214.874 257.706C199.204 257.478 151.608 264.282 148.128 242.474C146.49 231.954 157.022 221.21 161.216 211.592C166.304 199.476 167.434 187.54 169.322 174.32C173.086 147.96 178.566 123.388 197.85 111.448C211.374 102.966 230.33 103.454 245.018 112.666C258.616 121.194 268.574 135.88 272.344 152.964C277.43 175.252 270.572 202.174 283.244 222.288C285.626 225.384 287.586 229.058 289.44 232.516C291.512 237.832 291.22 242.852 288.59 247.026Z" fill="#0A0430"/>
<path d="M218.756 111.82C220.401 111.841 222.033 111.535 223.559 110.92C225.084 110.305 226.472 109.393 227.643 108.237C228.813 107.082 229.742 105.705 230.377 104.188C231.011 102.67 231.338 101.041 231.338 99.3967C231.338 97.7519 231.011 96.1234 230.377 94.6058C229.742 93.0882 228.813 91.7117 227.643 90.556C226.472 89.4004 225.084 88.4886 223.559 87.8737C222.033 87.2587 220.401 86.9528 218.756 86.9737C215.461 86.9737 212.301 88.2826 209.971 90.6126C207.641 92.9425 206.332 96.1026 206.332 99.3977C206.332 102.693 207.641 105.853 209.971 108.183C212.301 110.513 215.461 111.822 218.756 111.822V111.82Z" fill="white"/>
<path d="M218.756 112.82C215.197 112.815 211.785 111.4 209.268 108.883C206.752 106.367 205.336 102.955 205.332 99.3957C205.336 95.8367 206.752 92.4247 209.268 89.9082C211.785 87.3916 215.197 85.9759 218.756 85.9717C222.315 85.9759 225.726 87.3917 228.243 89.9083C230.759 92.4249 232.174 95.8369 232.178 99.3957C232.174 102.954 230.758 106.366 228.242 108.882C225.726 111.399 222.315 112.815 218.756 112.82ZM218.756 87.9737C215.727 87.9774 212.824 89.1822 210.682 91.3238C208.54 93.4654 207.336 96.369 207.332 99.3977C207.335 102.427 208.54 105.33 210.681 107.472C212.823 109.614 215.727 110.819 218.756 110.822C221.785 110.819 224.688 109.614 226.83 107.472C228.971 105.33 230.175 102.426 230.178 99.3977C230.175 96.3692 228.97 93.4656 226.829 91.3239C224.688 89.1822 221.784 87.9774 218.756 87.9737Z" fill="#0A0430"/>
<path d="M204.332 370.524C204.016 370.524 203.698 370.208 203.698 370.524C203.698 370.84 203.382 371.158 203.382 371.474C203.698 373.374 204.648 374.958 204.016 376.858C203.384 378.758 201.166 378.758 200.216 380.658V381.292C200.227 381.457 200.297 381.612 200.414 381.728C200.53 381.845 200.685 381.915 200.85 381.926C202.116 382.56 203.7 382.56 205.284 382.242C206.5 382.242 206.456 383.098 207.184 383.826C208.038 385.962 209.068 387.294 210.35 388.576C210.35 388.576 210.666 388.576 210.666 388.26C211.932 386.676 210.982 383.51 212.882 382.244C213.198 381.928 213.832 381.928 214.466 381.928C215.732 381.612 219.85 382.244 219.85 380.344C219.85 379.078 217.316 377.81 216.366 377.494C215.522 377.494 214.426 375.674 215.1 374.328L215.734 370.528C215.734 369.894 215.734 368.628 215.1 368.628C214.89 368.628 214.678 368.734 214.466 368.944C212.882 369.894 211.3 372.428 209.716 373.06C208.132 373.694 205.6 371.16 204.332 370.526V370.524Z" fill="#96D905"/>
<path d="M113.494 373.08C114.346 373.08 114.444 373.18 114.444 372.446C114.444 371.18 113.494 369.596 114.128 368.33C114.762 367.064 116.344 367.064 117.294 365.796C117.294 365.486 117.34 365.162 116.978 365.162C113.888 364.132 113.178 364.834 113.178 364.212C112.862 363.896 112.544 363.578 112.544 363.262C112.228 361.996 111.278 360.728 110.644 359.778C110.644 359.778 110.644 359.462 110.328 359.462H110.012C108.91 360.564 109.458 364.212 107.162 364.212C106.212 364.212 103.046 363.578 103.046 365.162C103.046 366.112 104.946 367.062 105.58 367.696C105.744 367.707 105.9 367.777 106.016 367.894C106.133 368.01 106.203 368.165 106.214 368.33C106.53 368.964 106.53 369.596 106.214 370.23L105.58 373.08C105.58 373.714 105.58 374.346 105.896 374.664C106.212 374.982 106.212 374.664 106.53 374.664C107.796 374.03 109.064 372.13 110.33 371.814C111.596 371.498 112.544 372.448 113.494 373.08Z" fill="#96D905"/>
<path d="M61.4139 304.086C62.3379 304.086 63.2241 303.719 63.8775 303.066C64.5309 302.412 64.8979 301.526 64.8979 300.602C64.8979 299.678 64.5309 298.792 63.8775 298.139C63.2241 297.485 62.3379 297.118 61.4139 297.118C60.4899 297.118 59.6037 297.485 58.9504 298.139C58.297 298.792 57.9299 299.678 57.9299 300.602C57.9299 301.526 58.297 302.412 58.9504 303.066C59.6037 303.719 60.4899 304.086 61.4139 304.086Z" fill="#96D905"/>
<path d="M364.424 299.774C365.432 299.774 366.398 299.373 367.111 298.661C367.824 297.948 368.224 296.982 368.224 295.974C368.224 294.966 367.824 293.999 367.111 293.287C366.398 292.574 365.432 292.174 364.424 292.174C363.416 292.174 362.45 292.574 361.737 293.287C361.024 293.999 360.624 294.966 360.624 295.974C360.624 296.982 361.024 297.948 361.737 298.661C362.45 299.373 363.416 299.774 364.424 299.774Z" fill="#96D905"/>
<path d="M305.734 370.752C306.05 371.068 306.368 370.752 306.684 370.752C307.95 370.118 309.218 368.536 310.8 368.536C312.382 368.536 313.334 370.12 314.916 370.436C315.768 370.436 315.866 370.536 315.866 369.802C315.866 368.536 315.55 367.268 314.916 366.318C314.916 366.002 314.6 365.684 314.6 365.368C314.6 364.818 314.938 364.496 318.084 360.302V359.986C318.084 359.986 318.084 359.67 317.768 359.67C316.184 359.036 313.968 360.936 312.384 359.986L311.434 359.036C310.8 358.086 309.85 354.286 308.268 355.236C307.318 355.552 307.002 358.086 307.002 359.036C307.002 359.352 307.002 359.67 306.686 359.986C306.37 360.62 305.42 360.936 304.47 361.252L300.986 361.886C300.352 361.886 299.402 362.52 299.72 363.152C299.72 363.468 300.036 363.468 300.036 363.468C301.302 364.418 303.836 364.734 304.786 366.002C305.874 367.452 305.734 369.386 305.734 370.752Z" fill="#96D905"/>
<path d="M216.536 376.522C216.034 376.25 215.72 375.322 215.994 374.77C216.108 374.546 216.076 374.552 216.732 370.522C216.732 369.73 216.732 367.622 215.1 367.622C214.48 367.622 214.228 367.776 213.844 368.148C212.374 369.082 210.522 371.656 209.344 372.128C208.006 372.66 204.744 368.492 203.174 369.572C203.024 369.691 202.9 369.839 202.809 370.007C202.719 370.175 202.663 370.36 202.646 370.55C202.465 370.882 202.378 371.258 202.396 371.636C202.706 373.502 203.58 375 203.066 376.54C202.618 377.892 200.38 378.09 199.32 380.208C199.18 380.486 199.214 380.68 199.214 381.288C199.214 382.062 199.818 382.752 200.564 382.894C201.882 383.498 203.526 383.608 205.28 383.238C205.576 383.238 205.526 383.224 205.874 383.744C206.02 383.964 206.17 384.18 206.318 384.358C207.056 386.142 208.092 387.73 209.322 388.962C209.73 389.37 209.892 389.572 210.346 389.572C210.624 389.573 210.896 389.486 211.122 389.323C211.347 389.159 211.516 388.929 211.602 388.664C212.874 386.79 212.058 384.004 213.53 382.988C213.71 382.904 214.34 382.984 214.704 382.892C215.832 382.612 220.846 383.378 220.846 380.34C220.846 377.996 216.72 376.554 216.532 376.522H216.536ZM214.358 380.924C213.598 380.924 212.766 380.946 212.33 381.408C210.326 382.744 210.692 385.428 210.21 386.974C208.59 385.084 208.24 383.466 207.89 383.116C207.77 382.994 207.25 382.158 206.94 381.85C206.382 381.292 205.81 381.236 205.086 381.26C202.954 381.686 202.054 381.324 201.214 380.994V380.916C202.066 379.548 204.218 379.404 204.962 377.174C205.684 375.014 204.708 373.114 204.476 371.786C208.708 374.71 209.492 375.31 213.032 371.578C213.602 370.976 214.19 370.358 214.726 369.966C214.758 370.454 214.818 369.92 214.134 374.026C213.332 375.884 214.704 378.274 216.156 378.476C217.352 378.904 218.808 379.906 218.848 380.368C218.468 380.932 215.484 380.7 214.354 380.922L214.358 380.924Z" fill="#0A0430"/>
<path d="M117.192 364.182C116.562 363.976 115.22 363.588 113.91 363.534L113.884 363.508C113.76 363.384 113.554 363.184 113.544 363.264C113.544 362.2 111.976 359.966 111.584 359.384C111.504 359.115 111.337 358.879 111.111 358.713C110.884 358.547 110.609 358.459 110.328 358.464H110.012C108.92 358.464 108.49 360.182 108.258 361.23C108.086 362.002 107.906 362.802 107.396 363.204C106.938 363.33 102.046 362.192 102.046 365.164C102.046 366.758 104.27 367.802 104.872 368.404C104.981 368.515 105.116 368.598 105.264 368.646C105.28 368.69 105.298 368.734 105.318 368.776C105.626 369.394 105.308 369.694 105.236 370.012C104.614 372.738 104.578 372.876 104.578 373.08C104.578 373.868 104.578 374.76 105.188 375.37C106.86 377.042 109.296 373.102 110.57 372.784C111.326 372.598 112.016 373.296 112.94 373.912C113.244 374.114 113.446 374.08 114.128 374.08C114.524 374.08 115.446 373.92 115.446 372.446C115.446 371.858 115.3 371.276 115.156 370.712C114.672 368.79 114.87 368.58 116.152 367.898C116.922 367.49 118.296 366.67 118.296 365.796V365.478C118.3 365.165 118.191 364.861 117.988 364.623C117.785 364.384 117.503 364.227 117.194 364.18L117.192 364.182ZM115.212 366.134C112.86 367.386 112.578 368.67 113.216 371.202C113.262 371.386 113.308 371.566 113.346 371.748C112.528 371.164 111.442 370.502 110.086 370.842C108.716 371.184 107.624 372.622 106.582 373.438C106.574 373.11 106.516 373.472 107.166 370.556C107.538 369.734 107.546 368.876 107.188 368.054C107.127 367.757 106.989 367.482 106.788 367.256C106.586 367.03 106.328 366.862 106.04 366.768C105.706 366.49 104.118 365.362 103.994 365.248C104.41 364.914 106.568 365.212 107.164 365.212C107.556 365.212 108.21 365.212 108.712 364.696C109.858 363.838 110.022 362.37 110.338 361.11C112.206 363.892 111.124 363.526 112.268 364.714C112.42 365.11 112.814 365.53 113.808 365.53C114.306 365.53 114.992 365.642 115.742 365.838C115.576 365.938 115.398 366.034 115.21 366.132V366.134H115.212Z" fill="#0A0430"/>
<path d="M61.4139 296.12C60.225 296.121 59.0851 296.594 58.2444 297.435C57.4038 298.275 56.931 299.415 56.9299 300.604C56.931 301.793 57.4038 302.933 58.2444 303.774C59.0851 304.614 60.225 305.087 61.4139 305.088C62.6027 305.087 63.7423 304.614 64.5828 303.773C65.4234 302.932 65.8963 301.793 65.8979 300.604C65.8963 299.415 65.4234 298.276 64.5828 297.435C63.7423 296.595 62.6027 296.122 61.4139 296.12ZM61.4139 303.086C60.7724 303.06 60.1657 302.787 59.7209 302.324C59.276 301.861 59.0276 301.244 59.0276 300.602C59.0276 299.96 59.276 299.343 59.7209 298.88C60.1657 298.417 60.7724 298.144 61.4139 298.118C62.0555 298.144 62.6622 298.417 63.107 298.88C63.5518 299.343 63.8002 299.96 63.8002 300.602C63.8002 301.244 63.5518 301.861 63.107 302.324C62.6622 302.787 62.0555 303.06 61.4139 303.086Z" fill="#0A0430"/>
<path d="M364.422 291.174C363.149 291.175 361.929 291.682 361.03 292.581C360.13 293.481 359.624 294.701 359.622 295.974C359.622 298.62 361.776 300.774 364.422 300.774C367.068 300.774 369.222 298.62 369.222 295.974C369.222 293.328 367.068 291.174 364.422 291.174ZM364.422 298.774C362.878 298.774 361.622 297.518 361.622 295.974C361.622 294.43 362.878 293.174 364.422 293.174C365.966 293.174 367.222 294.43 367.222 295.974C367.222 297.518 365.966 298.774 364.422 298.774Z" fill="#0A0430"/>
<path d="M110.044 279.92C111.374 280.012 111.5 278.02 110.186 277.924C107.71 277.748 101.908 277.334 99.72 281.398C99.22 282.396 99.014 283.45 98.814 284.468C98.162 287.798 97.966 288.64 91.846 288.64C88.776 288.64 85.546 289.974 85.244 293.05C85.244 294.788 85.194 295.022 83.322 295.49C79.472 296.452 75.402 296.93 71.504 297.416C70.198 297.58 70.43 299.56 71.752 299.4C85.944 297.684 87.268 297.14 87.24 293.148C87.412 291.424 89.748 290.638 91.848 290.638C94.574 290.638 97.966 290.638 99.482 288.514C102.246 284.644 98.434 279.086 110.046 279.918L110.044 279.92Z" fill="#0A0430"/>
<path d="M150.248 305.45C149.983 305.465 149.736 305.585 149.559 305.783C149.383 305.981 149.293 306.241 149.308 306.506C149.526 310.206 147.85 313.802 144.784 316.162C142.952 317.734 140.29 319.016 140.314 322.232C140.55 323.41 141.318 324.694 141.512 325.69C141.512 327.108 140.892 328.574 139.786 329.69L134.668 336.026C132.84 338.31 132.104 340.008 133.816 342.148C134.01 342.39 134.192 342.616 134.226 342.694C134.406 343.594 134.004 344.478 133.412 345.09C130.246 349.614 125.658 353.462 120.144 356.218C119.907 356.336 119.726 356.544 119.642 356.796C119.558 357.048 119.577 357.322 119.696 357.56C119.814 357.797 120.022 357.978 120.274 358.062C120.526 358.146 120.801 358.126 121.038 358.008C126.85 355.102 131.694 351.032 134.938 346.372C135.468 345.826 135.856 345.159 136.068 344.428C136.28 343.698 136.309 342.926 136.154 342.182C135.852 341.28 135.098 340.718 134.916 340.178C134.462 339.044 136.442 337.014 141.272 331.026C141.991 330.304 142.559 329.445 142.941 328.501C143.324 327.556 143.514 326.545 143.5 325.526C143.254 324.044 142.514 322.838 142.296 322.036C142.296 320.156 144.422 319.114 146.046 317.714C149.598 314.982 151.564 310.748 151.306 306.388C151.289 306.123 151.169 305.876 150.971 305.7C150.774 305.524 150.514 305.434 150.25 305.448L150.248 305.45Z" fill="#0A0430"/>
<path d="M348.87 278.04C347.008 275.806 345.094 274.758 343.232 275.03C342.186 275.292 341.18 275.786 340.208 276.272C338.282 276.698 336.314 275.558 334.026 272.696C327.554 264.608 324.012 269.624 321.692 271.018C320.292 270.434 319.132 268.55 317.438 267.348C314.45 265.556 310.828 266.036 308.626 268.514C308.539 268.612 308.472 268.727 308.429 268.851C308.386 268.975 308.368 269.106 308.376 269.237C308.383 269.369 308.417 269.497 308.474 269.615C308.532 269.733 308.612 269.839 308.71 269.926C308.808 270.013 308.923 270.08 309.047 270.123C309.171 270.166 309.302 270.184 309.433 270.176C309.564 270.169 309.693 270.135 309.811 270.078C309.929 270.02 310.035 269.94 310.122 269.842C311.676 268.092 314.262 267.772 316.344 269.016C318.068 270.248 319.214 272.484 321.554 273.07C321.786 273.127 322.03 273.1 322.244 272.994C325.316 271.458 326.982 267.092 332.464 273.942C334.274 276.206 337.112 279.106 340.796 278.186C340.867 278.169 340.937 278.143 341.002 278.11C341.91 277.654 342.85 277.186 343.62 276.986C344.628 276.844 345.948 277.722 347.368 279.35C355.312 288.456 355.038 287.958 355.66 287.958C355.854 287.957 356.043 287.901 356.205 287.795C356.367 287.689 356.495 287.538 356.573 287.361C356.651 287.184 356.677 286.988 356.646 286.797C356.615 286.606 356.53 286.428 356.4 286.284L348.878 278.036L348.87 278.04Z" fill="#0A0430"/>
<path d="M211.974 330.672C212.548 332.198 212.462 334.104 211.772 335.718C210.652 337.958 210.864 340.528 212.446 342.718C212.868 343.14 213.64 343.538 213.95 343.924C214.17 344.72 214.232 343.914 210.958 358.106C210.899 358.364 210.944 358.636 211.085 358.861C211.226 359.086 211.45 359.245 211.709 359.305C211.968 359.364 212.239 359.319 212.464 359.178C212.689 359.037 212.849 358.812 212.908 358.554L215.806 345.978C216.244 344.664 215.966 343.328 215.688 342.916C215.204 342.188 214.168 341.53 213.964 341.428C213.454 340.732 213.147 339.907 213.08 339.046C213.012 338.186 213.186 337.323 213.582 336.556C214.496 334.426 214.592 331.962 213.774 329.82C212.682 327.91 210.584 327.2 209.692 325.778C209.396 324.682 209.214 323.126 209.964 321.598L212.886 312.098C212.964 311.844 212.938 311.57 212.814 311.336C212.69 311.101 212.478 310.926 212.224 310.848C212.098 310.809 211.967 310.796 211.836 310.808C211.705 310.821 211.578 310.859 211.462 310.92C211.227 311.044 211.052 311.256 210.974 311.51L208.112 320.856C207.318 322.446 207.21 324.38 207.802 326.45C208.244 327.97 211.27 329.498 211.968 330.668L211.974 330.672Z" fill="#0A0430"/>
<path d="M294.662 340.12C293.254 339.516 292.082 340.494 291.23 341.208C290.916 341.472 290.392 341.912 290.348 342.036C290.134 341.822 289.976 341.666 289.826 341.37C284.696 329.644 290.126 324.938 283.308 324.938C281.542 324.938 279.762 323.548 279.42 321.862C278.932 319.446 280.524 316.064 278.782 313.448C277.106 310.936 273.916 310.61 271.928 309.516C267.762 306.738 267.808 301.082 268.702 296.156C268.731 296.025 268.733 295.889 268.708 295.757C268.684 295.625 268.633 295.499 268.558 295.387C268.484 295.275 268.388 295.18 268.276 295.106C268.164 295.032 268.038 294.981 267.906 294.957C267.773 294.933 267.638 294.935 267.507 294.965C267.375 294.994 267.252 295.05 267.142 295.128C267.033 295.206 266.941 295.306 266.871 295.421C266.801 295.535 266.755 295.663 266.736 295.796C265.68 301.602 265.852 307.872 270.888 311.22C271.686 311.664 272.55 311.98 273.384 312.286C277.628 313.842 277.864 314.864 277.484 318.562C277.36 319.76 277.208 321.004 277.46 322.254C277.992 324.89 280.612 326.934 283.308 326.934C285.052 326.934 285.23 326.796 285.23 329.344C285.23 333.662 286.052 338.026 288.016 342.216C288.318 342.858 288.666 343.182 289.086 343.574C291.238 345.008 293.022 341.598 293.952 341.986C295.736 342.58 296.324 344.59 295.972 346.18C295.915 346.439 295.963 346.71 296.105 346.934C296.248 347.158 296.474 347.316 296.733 347.373C296.992 347.43 297.263 347.382 297.487 347.24C297.711 347.097 297.869 346.871 297.926 346.612C298.562 343.74 297.128 340.936 294.664 340.118L294.662 340.12Z" fill="#0A0430"/>
<path d="M317.992 358.686C316.138 358.066 314.036 359.634 312.988 359.172C312.112 358.332 312.304 358.656 311.81 357.5C311.224 356.128 310.56 354.572 309.332 354.174C309.086 354.094 308.827 354.067 308.57 354.093C308.313 354.12 308.064 354.2 307.84 354.328C305.894 355.136 306.082 359.078 305.978 359.278C305.61 359.642 306.104 359.618 304.29 360.268L300.986 360.886C300.192 360.886 299.32 361.364 298.914 362.02C298.416 362.826 298.654 364.088 299.628 364.404C301.016 365.328 303.314 365.704 303.988 366.602C304.73 367.592 304.738 368.776 304.738 370.752C304.738 371.514 305.66 372.176 306.688 371.752C307.648 371.752 309.494 369.536 310.806 369.536C312.094 369.536 313.054 371.436 315.556 371.436C317.686 371.436 316.834 367.524 315.876 365.956C315.827 365.761 315.733 365.579 315.602 365.426C315.65 365.172 315.696 365.156 318.89 360.902C319.326 360.322 319.158 358.868 317.996 358.686H317.992ZM314.528 363.394C314.082 363.84 313.602 364.72 313.602 365.368C313.602 365.762 313.76 366.08 313.918 366.318C313.918 367.026 314.688 367.19 314.844 369.38C313.656 368.962 312.634 367.536 310.802 367.536C309.088 367.536 307.832 368.802 306.732 369.558C306.714 368.292 306.582 366.732 305.586 365.402C304.518 363.978 302.31 363.608 300.994 362.894C302.968 362.464 306.476 362.294 307.502 360.576C308.002 360 308.002 359.402 308.002 359.036C308.002 357.95 308.354 356.412 308.71 356.076C309.29 356.326 310.07 358.832 310.728 359.742C311.398 360.412 311.666 360.72 311.87 360.842C313.488 361.814 315.344 360.786 316.634 360.574L314.526 363.396L314.528 363.394Z" fill="#0A0430"/>
</svg>
