<svg xmlns="http://www.w3.org/2000/svg" fill="none" viewBox="0 0 400 400" height="400" width="400"><g id="send-receive-via-qr-code-1--finance-send-receive-via-qr-code"><g id="phone"><path id="vector" fill="#96d905" d="M218.026 386.212c-3.452 -0.462 -11.986 -3.834 -14.83 -5.846 -2.646 -1.872 -4.71 -6.55 -6.45 -13.73 -5.26 -21.69 -24.318 -186.056 -26.458 -244.49 -0.224 -6.14 9.534 -13.192 14.352 -16.552 1.116 3.256 -8.258 6.904 -1.854 42.028 1.462 8.02 0.244 1.546 7.038 50.33 13.21 94.862 13.234 148.08 18.904 169.7 3.834 14.616 9.708 17.162 9.298 18.56Z" stroke-width="1"></path><path id="vector_2" fill="#ffffff" d="M354.592 348.258c-1.206 8.066 -5.058 17.892 -13.926 20.462 -33.156 9.608 -88.228 17.938 -104.62 18.536 -15.73 0.572 -22.108 -4.438 -26.25 -27.884 -2.492 -14.104 -24.082 -199.032 -26.352 -224.44 -1.362 -15.244 0.144 -23.98 6.88 -32.458 7.868 -9.9 84.784 -15.34 102.764 -14.874 17.122 0.446 25.444 8.636 27.824 19.628 6.124 28.272 -1.442 4.906 24.332 174.136 4.4 28.89 10.758 57.456 9.346 66.894h0.002Z" stroke-width="1"></path><path id="vector_3" fill="#ffffff" d="M335.034 354.698c-11.608 5.59 -43.936 11.82 -48.42 12.634 -62.822 11.4 -61.98 15.24 -67.168 -14.172 -4.378 -24.814 -9.892 -109.926 -14.464 -142.46 -10.164 -72.346 -11.348 -82.394 -10.84 -94.226 0.206 -4.778 5.366 -8.34 9.566 -9.296 17.72 -4.034 20.094 -3.936 22.02 -1.036 3.986 5.998 10.69 3.98 19.808 3.464 13.554 -0.768 9.572 -0.14 27.998 -2.778 8.034 -1.15 4.75 -7.746 9.518 -8.514 6.284 -1.012 12.598 -1.708 18.956 -0.702 9.626 1.524 9.676 12.836 17.372 70.8 23.802 179.276 32.844 178.008 15.652 186.288l0.002 -0.002Z" stroke-width="1"></path><path id="vector_4" fill="#96d905" d="M261.604 311.486c-5.062 1.244 -10.246 1.822 -15.372 2.634 -3.626 0.574 -3.974 1.128 -4.536 -3.352 -1.382 -11.008 -0.212 -10.138 3.734 -11.004 7.798 -1.71 15.786 -2.228 23.57 -3.994 12.75 -2.894 25.344 -5.946 38.222 -6.918 3.496 -0.264 3.406 5.5 3.794 11.718 0.228 3.674 -27.38 5.506 -49.412 10.916Z" stroke-width="1"></path><path id="vector_5" fill="#0a0430" d="M351.28 302.124c-3.086 -17.496 -6.51 -45.1 -8.07 -54.742 -14.22 -87.898 -10.15 -67.34 -16.652 -122.778 -3.74 -31.896 -10.036 -38.74 -42.674 -39.41 -16.838 -0.346 -80.084 7.142 -89.982 11.972 -7.72 3.766 -14.75 8.626 -20.936 14.626 -4.592 4.454 -5.424 7.562 -4.726 20.712 0.8 15.144 18.96 200.084 24.754 228.916 1.232 6.134 2.628 11.176 4.27 14.896 4.776 10.832 23.85 13.962 35.686 13.67 19.062 -0.472 75.608 -9.106 108.858 -18.952 10.774 -3.19 15.292 -16.418 15.682 -25.578 0.396 -9.29 -2.29 -21.114 -6.208 -43.328l-0.002 -0.004Zm-133.256 84.088c-3.452 -0.462 -11.986 -3.834 -14.83 -5.846 -3.592 -2.542 -5.674 -11.016 -7.766 -23.142 -3.99 -23.132 -19.102 -168.068 -24.928 -229.97 -0.384 -4.086 -0.9 -7.058 2.22 -11.288 2.008 -2.72 5.596 -5.964 11.918 -10.374 1.116 3.256 -8.412 6.92 -2.01 42.042 1.292 7.09 17.768 156.246 23.644 206.292 3.72 31.676 12.504 29.714 11.75 32.282l0.002 0.004Zm0.458 0.088c-0.164 -0.068 -0.14 -0.016 -0.012 -0.216 0.148 0.136 0.132 0.08 0.012 0.216Zm136.11 -38.042c-1.206 8.066 -5.058 17.892 -13.926 20.462 -33.156 9.608 -88.228 17.938 -104.62 18.536 -16.938 0.616 -23.718 -6.348 -26.858 -34.848 -1.702 -15.458 -21.84 -189.734 -24.98 -215.596 -2 -16.44 -0.932 -25.466 6.116 -34.336 7.868 -9.9 84.784 -15.34 102.764 -14.874 17.122 0.446 25.444 8.636 27.824 19.628 6.124 28.272 -1.442 4.906 24.332 174.136 4.4 28.89 10.758 57.456 9.346 66.894l0.002 -0.002Z" stroke-width="1"></path><path id="vector_6" fill="#0a0430" d="M331.456 240.532c-1.53 -11.758 -3.944 -36.424 -7.078 -55.992 -10.42 -65.06 -7.37 -87.808 -22.702 -89.638 -5.934 -0.708 -15.95 0.142 -18.45 0.614 -7.134 1.348 -4.22 6.48 -8.154 8.062 -3.444 1.384 -21.318 3.08 -23.478 3.156 -17.44 0.612 -20.466 2.86 -24.028 -2.196 -1.466 -2.08 -3.77 -3.528 -6.134 -3.12 -31.214 5.406 -33.296 4.466 -28.342 42.072 0.276 2.1 21.108 182.182 25.848 215.88 1.828 12.998 5.44 19.388 18.626 18.634 14.64 -0.838 89.898 -13.858 101.424 -22.758 13.376 -10.328 5.062 -17.974 -7.532 -114.714Zm3.576 114.166c-7.876 3.792 -16.356 5.834 -24.874 7.632 -30.582 6.458 -50.392 10.646 -63.284 12.178 -17.71 2.106 -23.256 -2.398 -24.692 -11.338 -3.378 -21.028 -19.66 -168.974 -23.02 -195.546 -7.374 -58.392 -12.464 -58.726 22.876 -63.318 4.584 -0.596 3.228 5.876 11.944 6.022 0.498 0.008 24.136 -1.186 30.414 -2.228 8.634 -1.432 13.858 -0.48 15.572 -6.824 0.442 -1.634 1.478 -2.704 3.084 -2.96 6.284 -1.014 12.598 -1.71 18.956 -0.704 3.942 0.624 6.226 3.212 7.31 6.82 3.13 10.42 4.73 21.136 5.806 31.928 1.562 15.688 7.316 49.924 11.546 87.71 11.95 106.766 25.552 122.35 8.362 130.63v-0.002Z" stroke-width="1"></path><path id="vector_7" fill="#0a0430" d="M248.668 99.544c-0.088 3.766 -5.408 3.846 -5.198 0.366 0.242 -4.034 5.264 -3.1 5.198 -0.366Z" stroke-width="1"></path><path id="vector_8" fill="#0a0430" d="M257.248 100.022c-2.714 -0.022 -2.188 -3.868 0.048 -3.874 2.866 -0.006 2.32 3.892 -0.048 3.874Z" stroke-width="1"></path><path id="vector_9" fill="#0a0430" d="M311.612 289.048c-1.162 -2.9 -1.844 -3.29 -11.856 -1.874 -8.366 1.182 -16.684 2.658 -24.862 4.806 -11.048 2.9 -22.546 3.486 -33.566 6.556 -2.682 0.748 -2.226 3.22 -2.328 6.384 -0.088 2.73 0.284 5.42 0.686 8.102 0.372 2.486 1.288 3.48 3.284 3.69 1.032 0.108 2.128 0.196 3.12 -0.032 5.078 -1.172 10.31 -1.432 15.388 -2.63 28.894 -6.81 51.512 -6.796 51.712 -12.698 0.142 -4.18 0.006 -8.352 -1.578 -12.3v-0.004Zm-50.01 22.438c-5.062 1.244 -10.246 1.822 -15.372 2.634 -3.626 0.574 -3.974 1.128 -4.536 -3.352 -1.382 -11.008 -0.212 -10.138 3.734 -11.004 7.798 -1.71 15.786 -2.228 23.57 -3.994 12.75 -2.894 25.344 -5.946 38.222 -6.918 3.496 -0.264 3.406 5.5 3.794 11.718 0.228 3.674 -27.38 5.506 -49.412 10.916Z" stroke-width="1"></path><path id="vector_10" fill="#0a0430" d="M207.29 122.01c1.75 1.426 3.316 0.406 3.152 2.432 -0.112 1.37 -2.452 1.104 -3.706 0.16 -1.424 -1.072 -1.392 0.156 -3.858 2.746 -1.116 1.172 -2.55 -0.12 -1.662 -1.446 1.82 -2.712 3.018 -2.92 1.376 -3.798 -1.446 -0.77 -3.11 -1.618 -2.376 -2.89 0.672 -1.164 2.864 0.308 3.954 1.084 0.744 0.528 1.186 0.372 1.626 -0.354 0.564 -0.932 1.26 -1.786 1.766 -2.746 0.826 -1.566 2.9 -0.96 2.204 1.032 -0.494 1.414 -1.458 2.286 -2.476 3.78Z" stroke-width="1"></path></g><g id="qr code 1"><path id="vector_11" fill="#96d905" d="M265.454 260.882c-0.048 0.01 -19.89 4.672 -35.252 6.704 -2.882 0.382 -3.116 -1.288 -5.898 -20.322 -2.87 -19.642 -6.922 -14.254 36.536 -21.458 2.626 -0.436 2.67 1.052 3.746 9.534 1.586 12.504 2.59 12.26 0.79 12.574 -2.702 0.472 -4.416 1.226 -4.798 -0.856 -2.598 -14.136 -2.846 -16.592 -5.64 -16.09 -7.928 1.422 -16.04 1.886 -23.77 4.388 -2.584 0.836 -2.574 0.872 -2.53 4.24 0.762 6.194 1.672 13.014 3.24 19.724 0.668 2.858 0.216 2.226 34.08 -2.97 1.256 -0.192 1.618 0.164 1.75 1.304 0.31 2.662 0.356 2.732 -2.256 3.228h0.002Z" stroke-width="1"></path><path id="vector_12" fill="#96d905" d="M259.452 202.362c-2.912 0.424 -3.596 1.266 -3.938 -0.542 -0.962 -5.074 -2.012 -10.294 -2.28 -13.384 -0.398 -4.572 -8.322 -1.82 -27.796 1.104 -1.458 0.22 -2.58 1.434 -2.898 2.882 -0.284 1.292 0.722 13.112 2.518 20.594 1.24 5.166 1.196 4.164 19.924 1.148 2.068 -0.334 2.35 -0.16 2.654 1.562 0.954 5.396 -0.748 2.55 -21.282 6.448 -5.548 1.054 -5.484 -3.68 -7.054 -11.466 -5.554 -27.538 -3.096 -23.898 14.292 -27.194 11.972 -2.27 22.168 -2.334 22.208 -2.34 3.652 -0.672 3.038 2.004 3.794 10.908 0.252 2.962 0.168 5.95 0.754 8.88 0.164 0.822 -0.004 1.27 -0.896 1.4Z" stroke-width="1"></path><path id="vector_13" fill="#96d905" d="M308.252 207.472c-9.46 1.672 -9.932 2.686 -10.12 0.494 -0.172 -1.988 -0.544 -2.67 2.802 -3.018 4.896 -0.51 3.638 0.144 0.852 -21.152 -0.148 -1.136 -0.734 -2.06 -1.22 -3.03 -0.476 -0.952 -1.426 -0.952 -2.324 -0.908 -11.714 0.57 -22.084 2.756 -23.638 3.244 -2.32 0.728 -2.046 1.264 -0.442 14.682 0.52 4.344 1.098 8.688 1.794 13.008 0.304 1.884 -1.1 1.618 -2.044 1.914 -2.408 0.756 -2.444 -1.156 -3.496 -8.434 -3.62 -25.004 -4.268 -24.64 -1.368 -25.128 14.64 -2.448 3.448 -1.748 30.25 -3.734 8.676 -0.64 5.208 1.87 10.478 29.852 0.258 1.364 -0.172 1.974 -1.522 2.212l-0.002 -0.002Z" stroke-width="1"></path><path id="vector_14" fill="#96d905" d="M293.684 248.44c-9.904 2.088 -9.808 2.248 -9.916 5.488 -0.11 3.292 0.904 4.248 -0.594 4.404 -4.076 0.422 -4.38 1.972 -5.284 -3.1 -1.31 -7.35 -1.328 -7.474 0 -7.676 11.554 -1.752 11.696 -1.598 11.288 -4.472 -1.292 -9.134 -1.79 -8.966 -0.482 -9.178 3.842 -0.62 4.584 -1.3 4.664 0.096 0.84 14.424 2.662 13.942 0.322 14.436l0.002 0.002Z" stroke-width="1"></path><path id="vector_15" fill="#96d905" d="M312.8 252.086c-9.496 1.638 -10.888 1.654 -11.346 -1.37 -0.092 -0.61 0.282 -0.576 0.606 -0.642 2.254 -0.454 4.288 -1.606 6.556 -2.024 2.408 -0.442 2.084 -2.212 1.758 -5.484 -0.302 -3.036 -2.448 -2.904 -5.612 -1.948 -1.288 0.39 -1.848 -0.048 -2.176 -1.348 -0.352 -1.396 -0.374 -2.062 1.414 -2.268 14.828 -1.718 8.42 -6.336 11.646 11.542 0.468 2.59 0.08 3.038 -2.846 3.542Z" stroke-width="1"></path><path id="vector_16" fill="#96d905" d="M289.588 225.112c-11.332 2.512 -10.91 1.064 -10.718 6.472 0.192 5.408 1.86 7.044 -1.478 7.512 -1.704 0.238 -1.96 -0.064 -2.156 -0.996 -2.312 -11.01 -0.846 -6.982 -2.268 -13.558 -0.316 -1.462 -0.162 -0.706 15.718 -3.778 1.768 -0.342 1.438 0.5 1.914 3.48 0.134 0.836 -0.574 0.77 -1.012 0.868Z" stroke-width="1"></path><path id="vector_17" fill="#96d905" d="M243.984 206.384c-7.896 0.078 -9.484 2.838 -10.016 -0.836 -1.146 -7.904 -1.434 -8.3 0.454 -8.4 11.438 -0.614 11.574 -1.724 11.148 1.512 -0.45 3.432 2.072 7.688 -1.586 7.724Z" stroke-width="1"></path><path id="vector_18" fill="#96d905" d="M249.728 250.68c-10.096 1.214 -9.866 1.822 -10.378 -1.2 -1.13 -6.684 -1.312 -6.862 -0.248 -6.938 9.454 -0.66 11.372 -2.962 11.542 -0.61 0.524 7.206 1.85 8.416 -0.916 8.748Z" stroke-width="1"></path><path id="vector_19" fill="#96d905" d="M305.286 228.882c-3.096 0.314 -4.634 0.642 -4.608 -3.268 0.006 -0.896 0.51 -0.534 2.012 -0.778 3.142 -0.514 3.46 -0.228 3.392 3.056 0.12 0.59 -0.14 0.926 -0.794 0.992l-0.002 -0.002Z" stroke-width="1"></path><path id="vector_20" fill="#96d905" d="M311.52 220.948c-4.036 0.88 -4.474 1.008 -4.802 -0.06 -1.636 -5.342 1.076 -3.778 2.124 -4.292 0.55 -0.27 2.686 -0.818 2.838 -0.048 0.822 4.148 1.008 4.146 -0.16 4.4Z" stroke-width="1"></path><path id="vector_21" fill="#96d905" d="M292.022 198.88c-7.718 1.008 -8.954 1.846 -9.21 -0.498 -0.606 -5.548 -1.89 -7.112 0.052 -7.42 8.46 -1.356 9.654 -2.26 9.876 0.23 0.486 5.432 1.706 7.372 -0.718 7.688Z" stroke-width="1"></path><path id="vector_22" fill="#96d905" d="M262.27 215.296c-0.16 0.98 -2.268 1.18 -3.26 1.204 -1.794 0.044 -1.862 -0.08 -2.248 -2.332 -0.248 -1.444 0.28 -2.062 1.646 -2.144 1.544 -0.092 4.584 -1.168 3.862 3.272Z" stroke-width="1"></path><path id="vector_23" fill="#96d905" d="M289.83 209.382c-0.016 0.814 -2.44 2.116 -3.682 1.798 -1.49 -0.382 -0.88 -1.956 -1.184 -2.99 -0.18 -0.614 2.196 -1.614 3.854 -1.344 1.546 0.252 0.47 1.84 1.012 2.536Z" stroke-width="1"></path><path id="vector_24" fill="#0a0430" d="M270.122 260.448c-0.55 -5.9 -1.008 -6.82 -2.742 -6.512 -1.55 0.274 -19.186 2.864 -31.796 5.03 -1.984 0.34 -2.16 0.578 -4.504 -16.7 -0.694 -5.118 -1.408 -4.294 3.938 -5.756 5.648 -1.544 11.522 -1.75 17.242 -2.902 4.878 -0.984 3.182 -1.416 6.274 14.08 0.774 3.882 3.694 3.074 7.254 2.384 4.342 -0.842 2.542 -1.444 1.124 -13.148 -1.57 -12.946 -2.308 -13.944 -6.33 -13.328 -34.924 5.346 -40.02 4.526 -39.908 12.12 0.034 2.344 2.706 23.178 4.846 30.578 1.006 3.482 1.59 3.3 5.256 3.204 3.878 -0.102 7.532 -1.594 11.41 -1.77 3.606 -0.164 7.046 -1.36 10.57 -2.036 16.606 -3.184 17.568 -3.09 17.366 -5.244Zm-4.668 0.434c-0.048 0.01 -19.89 4.672 -35.252 6.704 -2.882 0.382 -3.116 -1.288 -5.898 -20.322 -2.87 -19.642 -6.922 -14.254 36.536 -21.458 2.626 -0.436 2.67 1.052 3.746 9.534 1.586 12.504 2.59 12.26 0.79 12.574 -2.702 0.472 -4.416 1.226 -4.798 -0.856 -2.598 -14.136 -2.846 -16.592 -5.64 -16.09 -7.928 1.422 -16.04 1.886 -23.77 4.388 -2.584 0.836 -2.574 0.872 -2.53 4.24 0.762 6.194 1.672 13.014 3.24 19.724 0.668 2.858 0.216 2.226 34.08 -2.97 1.256 -0.192 1.618 0.164 1.75 1.304 0.31 2.662 0.356 2.732 -2.256 3.228h0.002Z" stroke-width="1"></path><path id="vector_25" fill="#0a0430" d="M262.598 200.278c-1.564 -15.572 -0.478 -21.628 -6.294 -21.546 -11.928 0.168 -23.646 1.964 -35.168 4.94 -6.392 1.648 -6.146 4.716 -6.274 9.842 -0.14 5.596 3.124 23.388 4.11 26.504 2.268 7.162 5.264 4.476 22.916 2.372 6.202 -0.74 8.258 -1.14 8.17 -4.81 -0.104 -4.336 -0.884 -5.904 -3.618 -5.906 -2.24 0 -15.118 2.174 -17.102 2.666 -1.22 0.302 -1.908 -0.088 -2.108 -1.482 -0.34 -2.368 -0.966 -4.694 -1.296 -7.062 -1.688 -12.108 -2.048 -13.612 0.128 -13.95 34.078 -5.292 21.82 -6.166 27.472 11.326 1.052 3.254 3.674 1.704 7.346 1.192 1.83 -0.256 1.906 -2.22 1.718 -4.086Zm-3.148 2.084c-2.912 0.424 -3.596 1.266 -3.938 -0.542 -0.962 -5.074 -2.012 -10.294 -2.28 -13.384 -0.398 -4.572 -8.322 -1.82 -27.796 1.104 -1.458 0.22 -2.58 1.434 -2.898 2.882 -0.284 1.292 0.722 13.112 2.518 20.594 1.24 5.166 1.196 4.164 19.924 1.148 2.068 -0.334 2.35 -0.16 2.654 1.562 0.954 5.396 -0.748 2.55 -21.282 6.448 -5.548 1.054 -5.484 -3.68 -7.054 -11.466 -5.554 -27.538 -3.096 -23.898 14.292 -27.194 11.972 -2.27 22.168 -2.334 22.208 -2.34 3.652 -0.67 3.038 2.004 3.794 10.908 0.252 2.962 0.168 5.95 0.754 8.88 0.164 0.822 -0.004 1.27 -0.896 1.4Z" stroke-width="1"></path><path id="vector_26" fill="#0a0430" d="M312.062 205.552c-6.344 -39.302 -0.45 -32.704 -27.918 -31.128 -5.448 0.312 -10.71 1.54 -16.014 2.614 -2.488 0.5 -3.21 1.57 -2.902 4.08 0.474 3.876 3.21 26.886 4.156 30.674 1.102 4.42 4.484 4.122 8.418 1.822 0.602 -0.352 0.866 -0.106 -3.204 -26.488 -0.256 -1.662 0.282 -2.236 1.79 -2.51 6.824 -1.236 13.69 -2.174 20.614 -2.57 3.336 -0.19 2.422 -0.634 5.206 19.88 0.076 0.566 0.044 0.876 -0.646 0.84 -1.546 -0.082 -2.93 0.69 -4.42 0.884 -1.944 0.252 -1.518 1.802 -0.634 6.668 0.164 0.908 0.722 1.244 1.714 1.1 12.948 -1.87 14.398 -2.396 13.838 -5.866h0.002Zm-3.81 1.918c-9.46 1.672 -9.932 2.686 -10.12 0.494 -0.172 -1.988 -0.544 -2.67 2.802 -3.018 4.896 -0.51 3.638 0.144 0.852 -21.152 -0.148 -1.136 -0.734 -2.06 -1.22 -3.03 -0.476 -0.952 -1.426 -0.952 -2.324 -0.908 -11.714 0.57 -22.084 2.756 -23.638 3.244 -2.32 0.728 -2.046 1.264 -0.442 14.68 0.52 4.346 1.098 8.69 1.794 13.01 0.304 1.884 -1.1 1.618 -2.044 1.914 -2.408 0.756 -2.444 -1.156 -3.496 -8.434 -3.62 -25.004 -4.268 -24.642 -1.368 -25.128 14.64 -2.448 3.448 -1.748 30.25 -3.734 8.676 -0.642 5.208 1.87 10.478 29.852 0.258 1.364 -0.172 1.974 -1.522 2.212l-0.002 -0.002Z" stroke-width="1"></path><path id="vector_27" fill="#0a0430" d="M296.858 247.212c-1.75 -15.612 -1.032 -16.616 -3.69 -16.332 -5.544 1.052 -7.76 0.816 -7.306 3.606 1.526 9.396 1.59 9.224 0.22 9.442 -9.798 1.566 -11.39 1.722 -11.18 4.026 1.124 12.412 1.888 13.516 4.364 13.136 5.762 -0.886 7.166 -0.542 6.804 -3.144 -0.574 -4.12 -0.77 -5.336 1.072 -5.728 2.438 -0.518 4.826 -1.354 7.282 -1.686 2.172 -0.294 2.752 -0.474 2.432 -3.32h0.002Zm-3.176 1.228c-9.904 2.088 -9.808 2.248 -9.916 5.488 -0.11 3.292 0.904 4.248 -0.594 4.404 -4.076 0.422 -4.38 1.972 -5.284 -3.1 -1.31 -7.35 -1.328 -7.474 0 -7.676 11.554 -1.752 11.696 -1.598 11.288 -4.472 -1.292 -9.134 -1.79 -8.966 -0.482 -9.178 3.842 -0.62 4.584 -1.3 4.664 0.096 0.84 14.424 2.662 13.942 0.322 14.436l0.002 0.002Z" stroke-width="1"></path><path id="vector_28" fill="#0a0430" d="M316.438 234.976c-0.306 -3.934 -8.958 -0.654 -15.07 0.394 -2.1 0.36 -1.18 2.898 -0.33 5.802 0.844 2.878 3.146 1.69 5.07 1.394 2.01 -0.31 1.94 -0.282 2.252 1.698 0.186 1.176 -0.136 1.678 -1.312 1.914 -2.244 0.45 -4.3 1.556 -6.576 1.948 -0.554 0.096 -1.1 0.312 -1.304 0.972 -0.178 0.574 0.726 6.358 3.052 6.376 4.26 0.03 6.302 -0.256 12.926 -1.914 4.274 -1.07 2.628 -1.384 1.292 -18.58v-0.004Zm-3.638 17.11c-9.496 1.638 -10.888 1.654 -11.346 -1.37 -0.092 -0.61 0.282 -0.576 0.606 -0.642 2.254 -0.454 4.288 -1.606 6.556 -2.024 2.408 -0.442 2.084 -2.212 1.758 -5.484 -0.302 -3.036 -2.448 -2.904 -5.612 -1.948 -1.288 0.39 -1.848 -0.048 -2.176 -1.348 -0.352 -1.396 -0.374 -2.062 1.414 -2.268 14.828 -1.718 8.42 -6.336 11.646 11.542 0.468 2.59 0.08 3.038 -2.846 3.542Z" stroke-width="1"></path><path id="vector_29" fill="#0a0430" d="M292.576 224.86c0 -9.434 -1.558 -6.286 -17.396 -3.786 -4.536 0.716 -4.676 1.272 -3.85 5.748 0.764 4.134 0.796 8.39 2.032 12.454 1.016 3.344 2.83 1.758 6.266 1.336 2.862 -0.352 2.422 0.038 1.188 -10.27 -0.246 -2.052 0.538 -1.248 9.582 -3.14 1.59 -0.332 2.594 -0.818 2.176 -2.344l0.002 0.002Zm-2.986 0.252c-11.332 2.512 -10.91 1.064 -10.718 6.472 0.192 5.408 1.86 7.044 -1.478 7.512 -1.704 0.238 -1.96 -0.064 -2.156 -0.996 -2.312 -11.01 -0.846 -6.982 -2.268 -13.558 -0.316 -1.462 -0.162 -0.706 15.718 -3.778 1.768 -0.342 1.438 0.5 1.914 3.48 0.134 0.836 -0.574 0.77 -1.012 0.868Z" stroke-width="1"></path><path id="vector_30" fill="#0a0430" d="M248.222 202.124c-1.056 -5.12 1.626 -8.37 -4.468 -8.06 -12.064 0.612 -12.962 0.732 -12.806 4.274 0.694 15.744 2.264 10.874 14.69 10.21 1.056 -0.056 2.058 -0.57 2.32 -1.774 0.332 -1.53 0.592 -3.068 0.264 -4.648v-0.002Zm-4.24 4.26c-7.896 0.078 -9.484 2.838 -10.016 -0.836 -1.146 -7.904 -1.434 -8.3 0.454 -8.4 11.438 -0.614 11.574 -1.724 11.148 1.512 -0.45 3.432 2.072 7.688 -1.586 7.724Z" stroke-width="1"></path><path id="vector_31" fill="#0a0430" d="M253.542 248.598c-1.634 -14.352 0.208 -9.422 -12.586 -8.418 -5.684 0.446 -4.998 0.556 -3.44 11.318 0.372 2.572 1.292 2.408 4.388 2.408 11.338 -1.368 12.118 -1.1 11.638 -5.308Zm-3.814 2.084c-10.096 1.214 -9.866 1.822 -10.378 -1.2 -1.13 -6.684 -1.312 -6.862 -0.248 -6.938 9.454 -0.66 11.372 -2.962 11.542 -0.61 0.524 7.206 1.85 8.416 -0.916 8.748Z" stroke-width="1"></path><path id="vector_32" fill="#0a0430" d="M313.496 215.622c-0.23 -1.312 -1.064 -1.746 -2.244 -1.586 -6.25 0.844 -7.326 0.916 -7.106 2.774 0.604 5.088 1.328 5.222 0.084 5.504 -3.14 0.71 -6.128 0.06 -5.592 3.148 0.738 4.262 0.908 6.344 3.456 5.958 3.956 -0.602 6.33 -0.286 6.082 -2.718 -0.45 -4.428 -1.016 -4.9 0.386 -5.098 7.638 -1.086 6.006 -1.856 4.934 -7.982Zm-8.21 13.26c-3.096 0.314 -4.634 0.642 -4.608 -3.268 0.006 -0.896 0.51 -0.534 2.012 -0.778 3.142 -0.514 3.46 -0.228 3.392 3.056 0.12 0.59 -0.14 0.926 -0.794 0.992l-0.002 -0.002Zm6.234 -7.932c-4.036 0.88 -4.474 1.008 -4.802 -0.06 -1.636 -5.342 1.076 -3.778 2.124 -4.292 0.55 -0.27 2.686 -0.818 2.838 -0.048 0.822 4.148 1.008 4.146 -0.16 4.4Z" stroke-width="1"></path><path id="vector_33" fill="#0a0430" d="M295.462 196.388c-1.128 -10.574 0.266 -10.128 -15.2 -7.16 -0.782 0.148 -0.646 0.768 -0.594 1.23 1.276 11.242 1.514 11.87 4.592 11.61 11.578 -0.98 11.28 -1.55 11.2 -5.68h0.002Zm-3.44 2.494c-7.718 1.008 -8.954 1.846 -9.21 -0.498 -0.606 -5.548 -1.89 -7.112 0.052 -7.42 8.46 -1.356 9.654 -2.26 9.876 0.23 0.486 5.432 1.706 7.372 -0.718 7.688Z" stroke-width="1"></path><path id="vector_34" fill="#0a0430" d="M205.716 179.274c-0.33 -5.174 -0.848 -4.548 10.952 -6.898 0.782 -0.156 1.73 -0.458 1.988 0.802s-0.766 1.466 -1.59 1.646c-8.388 1.834 -9.234 1.192 -8.936 3.108 0.464 2.976 0.346 6.014 1.004 8.976 0.156 0.706 0.264 1.666 -0.872 1.834 -0.972 0.144 -1.234 -0.578 -1.402 -1.32 -0.63 -2.794 -1.212 -5.594 -1.144 -8.148Z" stroke-width="1"></path><path id="vector_35" fill="#0a0430" d="M308.602 159.176c-1.718 0.478 -10.844 1.876 -10.924 1.882 -1.384 0.114 -1.438 -1.774 -0.33 -2.016 16.934 -3.684 15.202 -4.268 16.166 8.644 0.052 0.694 -0.148 1.19 -0.968 1.328 -3.224 0.55 0.462 -11.066 -3.946 -9.84l0.002 0.002Z" stroke-width="1"></path><path id="vector_36" fill="#0a0430" d="M311.396 266.996c-0.77 0.112 -1.5 0.068 -1.602 -0.956 -0.192 -1.91 6.92 -1.514 11.358 -2.67 1.976 -0.514 2.232 -0.678 2.132 -2.722 -0.216 -4.428 -1.972 -5.408 -0.414 -5.95 0.94 -0.326 1.572 0.096 1.806 0.96 3.166 11.652 -1.426 9.612 -13.28 11.338Z" stroke-width="1"></path><path id="vector_37" fill="#0a0430" d="M217.414 270.412c-0.266 -1.818 1.802 -1.69 2.044 -0.338 1.522 8.55 1.116 9.084 3.742 8.458 6.888 -1.642 7.71 -2.208 8.142 -0.814 0.372 1.204 -0.55 1.534 -1.438 1.762 -11.894 3.066 -10.764 2.746 -12.49 -9.068Z" stroke-width="1"></path><path id="vector_38" fill="#0a0430" d="M264.092 213.306c-0.46 -3.32 -1.32 -4.102 -4.628 -3.602 -4.512 0.684 -5.412 0.558 -4.3 5.95 0.526 2.55 0.856 3.156 4.826 2.802 4.044 -0.36 4.658 -1.144 4.102 -5.15Zm-1.822 1.992c-0.16 0.98 -2.268 1.18 -3.26 1.204 -1.794 0.044 -1.862 -0.08 -2.248 -2.332 -0.248 -1.444 0.28 -2.062 1.646 -2.144 1.544 -0.092 4.584 -1.168 3.862 3.272Z" stroke-width="1"></path><path id="vector_39" fill="#0a0430" d="M291.946 209.978c-1.236 -7.302 -0.438 -5.112 -6.898 -4.604 -1.73 0.136 -2.044 1.208 -1.98 2.542 0.26 5.282 1.374 5.99 3.722 5.356 3.704 -1 5.372 -0.806 5.154 -3.292l0.002 -0.002Zm-5.798 1.204c-1.49 -0.382 -0.88 -1.956 -1.184 -2.99 -0.18 -0.614 2.196 -1.614 3.854 -1.344 1.546 0.252 0.47 1.842 1.012 2.538 -0.016 0.814 -2.44 2.114 -3.682 1.796Z" stroke-width="1"></path></g><g id="qr code 2"><path id="vector_40" fill="#96d905" d="m162.56 283.556 -91.652 16.838c-8.374 2.156 -16.652 -3.372 -17.35 -11.41 -6.346 -73.012 -9.018 -96 -8.694 -104.864 0.264 -7.228 4.976 -10.68 11.354 -11.846 9.414 -1.72 31.614 -2.852 92.424 -7.724 7.664 -0.614 14.208 4.762 14.874 11.722l9.162 93.564c0.602 6.27 -3.654 12.036 -10.116 13.722l-0.002 -0.002Z" stroke-width="1"></path><g id="group"><path id="vector_41" fill="#ffffff" d="M106.95 274.836c-0.052 0.012 -21.836 4.918 -38.684 6.978 -3.158 0.386 -3.398 -1.446 -6.242 -22.32 -2.936 -21.546 -7.428 -15.668 40.242 -23.116 2.882 -0.45 2.912 1.18 4.002 10.482 1.606 13.712 2.706 13.454 0.734 13.778 -2.968 0.486 -4.85 1.298 -5.248 -0.988 -2.7 -15.508 -2.938 -18.202 -6.006 -17.684 -8.7 1.472 -17.59 1.896 -26.078 4.552 -2.842 0.89 -2.826 0.928 -2.814 4.616 0.77 6.792 1.694 14.27 3.34 21.634 0.7 3.134 0.21 2.428 37.356 -2.894 1.376 -0.198 1.77 0.196 1.902 1.45 0.308 2.918 0.344 2.894 -2.504 3.512Z" stroke-width="1"></path><path id="vector_42" fill="#ffffff" d="M100.992 210.692c-3.192 0.434 -3.952 1.342 -4.308 -0.638 -0.998 -5.568 -2.096 -11.296 -2.356 -14.686 -0.386 -5.014 -9.092 -2.074 -30.454 0.916 -1.598 0.224 -2.84 1.542 -3.204 3.128 -0.324 1.414 0.652 14.368 2.538 22.582 1.302 5.674 1.268 4.566 21.812 1.47 2.268 -0.342 2.574 -0.152 2.89 1.738 0.988 5.912 -0.836 2.79 -23.376 6.836 -6.09 1.094 -5.968 -4.09 -7.604 -12.634 -5.784 -30.22 -3.14 -26.2 15.942 -29.632 13.136 -2.36 24.308 -2.32 24.348 -2.328 4.004 -0.716 3.308 2.224 4.038 11.988 0.244 3.248 0.118 6.52 0.73 9.736 0.172 0.904 -0.016 1.39 -0.996 1.524Z" stroke-width="1"></path><path id="vector_43" fill="#ffffff" d="M154.384 216.798c-10.38 1.728 -10.904 2.838 -11.084 0.438 -0.164 -2.176 -0.568 -2.93 3.1 -3.276 5.37 -0.506 4.002 0.194 1.156 -23.16 -0.152 -1.244 -0.782 -2.264 -1.304 -3.332 -0.514 -1.048 -1.55 -1.056 -2.538 -1.02 -12.84 0.484 -24.216 2.784 -25.922 3.304 -2.548 0.774 -2.254 1.364 -0.638 16.074 0.522 4.762 1.11 9.526 1.826 14.264 0.312 2.064 -1.22 1.76 -2.26 2.076 -2.644 0.802 -2.664 -1.292 -3.742 -9.274 -3.702 -27.424 -4.416 -27.034 -1.232 -27.536 16.056 -2.536 3.798 -1.876 33.168 -3.77 9.51 -0.614 5.704 2.1 11.16 32.808 0.266 1.498 -0.208 2.158 -1.69 2.404Z" stroke-width="1"></path><path id="vector_44" fill="#ffffff" d="M137.996 261.522c-10.868 2.178 -10.768 2.352 -10.92 5.902 -0.154 3.602 0.944 4.664 -0.698 4.818 -4.468 0.42 -4.818 2.112 -5.752 -3.448 -1.354 -8.064 -1.376 -8.2 0.08 -8.406 12.676 -1.794 12.828 -1.626 12.414 -4.778 -1.32 -10.018 -1.866 -9.84 -0.43 -10.056 4.21 -0.632 5.032 -1.376 5.106 0.156 0.762 15.806 2.766 15.298 0.2 15.812Z" stroke-width="1"></path><path id="vector_45" fill="#ffffff" d="M158.898 265.716c-10.43 1.698 -11.94 1.69 -12.414 -1.622 -0.096 -0.67 0.314 -0.63 0.67 -0.698 2.474 -0.478 4.712 -1.716 7.202 -2.148 2.646 -0.46 2.304 -2.402 1.984 -5.986 -0.298 -3.328 -2.65 -3.208 -6.126 -2.192 -1.418 0.414 -2.024 -0.072 -2.368 -1.502 -0.37 -1.534 -0.386 -2.262 1.574 -2.468 16.262 -1.722 9.292 -6.856 12.634 12.766 0.484 2.842 0.056 3.326 -3.156 3.85Z" stroke-width="1"></path><path id="vector_46" fill="#ffffff" d="M133.76 235.924c-12.44 2.632 -11.958 1.048 -11.806 6.974 0.15 5.918 1.966 7.734 -1.698 8.21 -4.004 0.52 -2.456 -5.098 -4.694 -15.986 -0.33 -1.606 -0.172 -0.782 17.254 -3.97 1.936 -0.354 1.57 0.564 2.06 3.834 0.14 0.916 -0.638 0.836 -1.116 0.938Z" stroke-width="1"></path><path id="vector_47" fill="#ffffff" d="M84.006 214.932c-8.652 0 -10.414 3.006 -10.96 -1.02 -1.174 -8.668 -1.482 -9.106 0.586 -9.198 12.534 -0.554 12.692 -1.764 12.192 1.774 -0.532 3.76 2.176 8.442 -1.818 8.442v0.002Z" stroke-width="1"></path><path id="vector_48" fill="#ffffff" d="M89.828 263.506c-11.072 1.218 -10.82 1.894 -11.35 -1.426 -1.166 -7.336 -1.364 -7.532 -0.2 -7.6 10.362 -0.604 12.484 -3.124 12.646 -0.546 0.5 7.896 1.934 9.238 -1.096 9.57v0.002Z" stroke-width="1"></path><path id="vector_49" fill="#ffffff" d="M150.91 240.214c-3.4 0.306 -5.08 0.662 -5.014 -3.626 0.014 -0.98 0.56 -0.578 2.212 -0.832 3.448 -0.53 3.794 -0.212 3.68 3.38 0.126 0.646 -0.162 1.014 -0.88 1.078Z" stroke-width="1"></path><path id="vector_50" fill="#ffffff" d="M157.82 231.596c-4.428 0.92 -4.91 1.056 -5.26 -0.116 -1.736 -5.868 1.218 -4.126 2.374 -4.676 0.606 -0.288 2.95 -0.866 3.108 -0.024 0.85 4.554 1.06 4.552 -0.22 4.818v-0.002Z" stroke-width="1"></path><path id="vector_51" fill="#ffffff" d="M136.706 207.224c-8.46 1.028 -9.828 1.922 -10.084 -0.646 -0.606 -6.082 -1.994 -7.81 0.136 -8.13 9.28 -1.39 10.596 -2.376 10.816 0.362 0.474 5.954 1.79 8.092 -0.868 8.414Z" stroke-width="1"></path><path id="vector_52" fill="#ffffff" d="M103.944 224.884c-0.184 1.068 -2.498 1.268 -3.586 1.284 -1.968 0.028 -2.04 -0.108 -2.436 -2.578 -0.256 -1.586 0.328 -2.256 1.826 -2.332 1.694 -0.086 5.028 -1.232 4.196 3.626Z" stroke-width="1"></path><path id="vector_53" fill="#ffffff" d="M134.188 218.698c-0.028 0.892 -2.694 2.292 -4.05 1.932 -1.626 -0.434 -0.942 -2.152 -1.264 -3.288 -0.192 -0.674 2.42 -1.748 4.236 -1.434 1.69 0.292 0.492 2.024 1.078 2.79Z" stroke-width="1"></path><path id="vector_54" fill="#0a0430" d="M112.06 274.422c-0.538 -6.466 -1.028 -7.484 -2.93 -7.166 -1.7 0.284 -21.044 2.946 -34.878 5.174 -1.674 0.27 -1.916 -0.168 -2.176 -1.59 -1.018 -5.56 -1.876 -11.14 -2.58 -16.748 -0.708 -5.612 -1.498 -4.718 4.374 -6.262 6.204 -1.632 12.64 -1.794 18.916 -2.994 5.352 -1.024 3.502 -1.518 6.724 15.488 0.808 4.26 4.016 3.408 7.92 2.69 4.762 -0.874 2.8 -1.556 1.368 -14.388 -1.58 -14.194 -2.38 -15.298 -6.792 -14.666 -38.308 5.486 -43.876 4.53 -43.84 12.85 0.012 2.566 2.72 25.414 4.982 33.542 1.066 3.826 1.706 3.632 5.72 3.564 4.248 -0.07 8.266 -1.666 12.514 -1.818 3.95 -0.142 7.732 -1.414 11.6 -2.116 18.22 -3.306 19.274 -3.2 19.08 -5.56Zm-5.11 0.414c-0.052 0.012 -21.836 4.918 -38.684 6.978 -3.158 0.386 -3.398 -1.446 -6.24 -22.32 -2.938 -21.546 -7.43 -15.668 40.24 -23.116 2.882 -0.45 2.912 1.18 4.002 10.482 1.606 13.712 2.706 13.454 0.734 13.778 -2.968 0.486 -4.85 1.298 -5.248 -0.988 -2.7 -15.508 -2.938 -18.202 -6.006 -17.684 -8.7 1.472 -17.59 1.896 -26.078 4.552 -2.84 0.89 -2.826 0.928 -2.814 4.616 0.77 6.792 1.694 14.27 3.34 21.634 0.7 3.134 0.21 2.428 37.356 -2.894 1.376 -0.198 1.77 0.196 1.902 1.45 0.308 2.918 0.344 2.894 -2.504 3.512Z" stroke-width="1"></path><path id="vector_55" fill="#0a0430" d="M104.462 208.436c-1.538 -17.074 -0.294 -23.69 -6.668 -23.662 -13.064 0.056 -25.918 1.9 -38.568 5.034 -7.018 1.738 -6.782 5.102 -6.978 10.714 -0.214 6.126 3.174 25.648 4.224 29.074 2.41 7.864 5.718 4.96 25.07 2.842 6.868 -0.752 9.054 -1.208 8.996 -5.182 -0.07 -4.75 -0.904 -6.472 -3.898 -6.508 -2.452 -0.028 -16.58 2.22 -18.76 2.738 -1.34 0.318 -2.088 -0.116 -2.292 -1.646 -0.346 -2.598 -1.01 -5.152 -1.344 -7.748 -1.716 -13.278 -2.1 -14.93 0.29 -15.28 37.374 -5.456 23.956 -6.516 29.968 12.694 1.12 3.576 4.004 1.91 8.034 1.386 2.008 -0.262 2.112 -2.408 1.926 -4.456Zm-3.468 2.256c-3.192 0.434 -3.952 1.342 -4.308 -0.638 -0.998 -5.568 -2.096 -11.296 -2.356 -14.686 -0.386 -5.014 -9.092 -2.074 -30.454 0.916 -1.598 0.224 -2.84 1.542 -3.204 3.128 -0.324 1.414 0.652 14.368 2.538 22.582 1.302 5.674 1.268 4.566 21.812 1.47 2.268 -0.342 2.574 -0.152 2.89 1.738 0.988 5.912 -0.836 2.79 -23.376 6.836 -6.09 1.094 -5.968 -4.09 -7.604 -12.634 -5.784 -30.222 -3.14 -26.202 15.942 -29.632 13.136 -2.36 24.308 -2.322 24.348 -2.328 4.004 -0.716 3.308 2.224 4.038 11.988 0.244 3.248 0.118 6.52 0.73 9.736 0.172 0.904 -0.016 1.39 -0.996 1.524Z" stroke-width="1"></path><path id="vector_56" fill="#0a0430" d="M158.582 214.734c-6.522 -43.114 -0.148 -35.818 -30.246 -34.384 -5.97 0.284 -11.746 1.578 -17.568 2.694 -2.73 0.524 -3.532 1.686 -3.224 4.44 0.476 4.248 3.23 29.478 4.228 33.638 1.164 4.852 4.862 4.554 9.202 2.084 0.662 -0.378 0.96 -0.108 -3.228 -29.046 -0.264 -1.822 0.334 -2.446 1.988 -2.73 7.486 -1.286 15.014 -2.24 22.606 -2.598 3.658 -0.172 2.684 -0.668 5.492 21.828 0.078 0.622 0.04 0.96 -0.718 0.912 -1.69 -0.108 -3.216 0.724 -4.85 0.92 -2.132 0.254 -1.686 1.96 -0.766 7.298 0.172 0.996 0.778 1.37 1.866 1.224 14.204 -1.89 15.796 -2.468 15.22 -6.278l-0.002 -0.002Zm-4.198 2.064c-10.38 1.728 -10.904 2.838 -11.084 0.438 -0.164 -2.176 -0.568 -2.93 3.1 -3.276 5.37 -0.506 4.002 0.194 1.156 -23.16 -0.152 -1.244 -0.782 -2.264 -1.304 -3.332 -0.514 -1.048 -1.55 -1.056 -2.538 -1.02 -12.84 0.484 -24.216 2.784 -25.922 3.304 -2.548 0.774 -2.254 1.364 -0.638 16.074 0.522 4.762 1.11 9.526 1.826 14.264 0.312 2.064 -1.22 1.76 -2.26 2.076 -2.644 0.802 -2.664 -1.292 -3.742 -9.274 -3.702 -27.424 -4.416 -27.034 -1.232 -27.536 16.056 -2.536 3.798 -1.876 33.168 -3.77 9.51 -0.614 5.704 2.1 11.16 32.808 0.266 1.498 -0.208 2.158 -1.69 2.404Z" stroke-width="1"></path><path id="vector_57" fill="#0a0430" d="M141.488 260.208c-1.762 -17.116 -0.956 -18.21 -3.866 -17.926 -6.082 1.096 -8.508 0.812 -8.042 3.87 1.578 10.322 1.64 10.12 0.14 10.346 -10.744 1.62 -12.49 1.762 -12.288 4.292 1.088 13.604 1.924 14.822 4.64 14.432 6.32 -0.908 7.854 -0.518 7.488 -3.372 -0.582 -4.52 -0.786 -5.854 1.236 -6.262 2.674 -0.542 5.298 -1.432 7.992 -1.77 2.38 -0.3 3.018 -0.49 2.698 -3.61Zm-3.49 1.314c-10.868 2.178 -10.768 2.352 -10.92 5.902 -0.154 3.602 0.944 4.664 -0.7 4.818 -4.466 0.42 -4.816 2.112 -5.75 -3.448 -1.354 -8.064 -1.376 -8.2 0.08 -8.406 12.676 -1.794 12.828 -1.626 12.414 -4.778 -1.32 -10.018 -1.866 -9.84 -0.43 -10.056 4.21 -0.632 5.032 -1.376 5.106 0.156 0.76 15.806 2.766 15.298 0.2 15.812Z" stroke-width="1"></path><path id="vector_58" fill="#0a0430" d="M163.066 247.016c-0.294 -4.312 -9.804 -0.816 -16.516 0.268 -2.3 0.372 -1.324 3.164 -0.422 6.352 0.896 3.16 3.428 1.884 5.54 1.578 2.208 -0.32 2.13 -0.29 2.448 1.882 0.19 1.288 -0.168 1.836 -1.458 2.084 -2.46 0.472 -4.726 1.658 -7.222 2.064 -0.606 0.098 -1.212 0.332 -1.442 1.052 -0.2 0.626 0.73 6.97 3.276 7.014 4.664 0.08 6.904 -0.212 14.18 -1.96 4.692 -1.126 2.898 -1.488 1.616 -20.334Zm-4.168 18.7c-10.43 1.698 -11.94 1.69 -12.414 -1.622 -0.096 -0.67 0.314 -0.63 0.67 -0.698 2.474 -0.478 4.712 -1.716 7.202 -2.148 2.646 -0.46 2.304 -2.402 1.984 -5.986 -0.298 -3.328 -2.65 -3.208 -6.126 -2.192 -1.418 0.414 -2.024 -0.072 -2.368 -1.502 -0.37 -1.534 -0.386 -2.262 1.574 -2.468 16.262 -1.722 9.292 -6.856 12.634 12.766 0.484 2.842 0.056 3.326 -3.156 3.85Z" stroke-width="1"></path><path id="vector_59" fill="#0a0430" d="M137.036 235.674c0.1 -10.334 -1.644 -6.898 -19.012 -4.328 -4.98 0.736 -5.134 1.344 -4.276 6.254 0.792 4.536 0.784 9.198 2.092 13.662 1.076 3.674 3.08 1.956 6.848 1.53 3.134 -0.356 2.646 0.066 1.41 -11.236 -0.246 -2.248 0.604 -1.36 10.53 -3.336 1.746 -0.348 2.85 -0.872 2.408 -2.546Zm-3.276 0.248c-12.44 2.632 -11.96 1.048 -11.806 6.974 0.152 5.926 1.966 7.734 -1.7 8.21 -4.002 0.52 -2.454 -5.098 -4.692 -15.986 -0.33 -1.606 -0.172 -0.782 17.254 -3.97 1.936 -0.354 1.57 0.564 2.06 3.834 0.138 0.916 -0.64 0.836 -1.116 0.938Z" stroke-width="1"></path><path id="vector_60" fill="#0a0430" d="M88.7 210.31c-1.1 -5.618 1.866 -9.152 -4.814 -8.876 -13.22 0.548 -14.206 0.666 -14.072 4.548 0.598 17.254 2.364 11.946 15.982 11.338 1.156 -0.052 2.26 -0.602 2.562 -1.918 0.382 -1.67 0.682 -3.354 0.342 -5.092Zm-4.694 4.62c-8.652 0 -10.414 3.006 -10.96 -1.02 -1.174 -8.668 -1.482 -9.106 0.586 -9.198 12.534 -0.554 12.692 -1.764 12.192 1.774 -0.532 3.76 2.176 8.444 -1.818 8.444Z" stroke-width="1"></path><path id="vector_61" fill="#0a0430" d="M94.036 261.264c-1.134 -10.912 -0.462 -11.274 -4.428 -10.9 -3.128 0.296 -6.126 1.33 -9.27 1.546 -6.23 0.428 -5.478 0.556 -3.886 12.356 0.38 2.822 1.39 2.654 4.782 2.686 12.43 -1.376 13.282 -1.076 12.802 -5.688Zm-4.208 2.242c-11.072 1.218 -10.822 1.894 -11.35 -1.426 -1.166 -7.336 -1.364 -7.532 -0.2 -7.6 10.362 -0.604 12.484 -3.124 12.646 -0.546 0.498 7.896 1.934 9.238 -1.096 9.57v0.002Z" stroke-width="1"></path><path id="vector_62" fill="#0a0430" d="M160.038 225.782c-0.24 -1.442 -1.144 -1.924 -2.436 -1.762 -6.874 0.854 -8.034 0.924 -7.812 2.962 0.606 5.578 1.4 5.734 0.032 6.03 -3.444 0.744 -6.712 0 -6.16 3.388 0.766 4.676 0.94 7.034 3.724 6.56 4.356 -0.502 6.934 -0.244 6.688 -2.91 -0.448 -4.858 -1.06 -5.376 0.478 -5.58 8.376 -1.108 6.596 -1.966 5.486 -8.688Zm-9.13 14.432c-3.4 0.306 -5.08 0.662 -5.014 -3.626 0.014 -0.98 0.56 -0.578 2.212 -0.832 3.448 -0.53 3.794 -0.212 3.68 3.38 0.126 0.646 -0.162 1.014 -0.88 1.078Zm6.914 -8.62c-4.43 0.92 -4.912 1.056 -5.26 -0.116 -1.74 -5.868 1.216 -4.126 2.372 -4.676 0.606 -0.288 2.95 -0.866 3.108 -0.024 0.85 4.554 1.06 4.55 -0.22 4.816Z" stroke-width="1"></path><path id="vector_63" fill="#0a0430" d="M140.496 204.53c-1.12 -11.55 0.414 -11.078 -16.572 -8.01 -0.858 0.156 -0.714 0.84 -0.662 1.344 1.276 12.326 1.534 13.018 4.906 12.766 12.69 -0.944 12.372 -1.576 12.328 -6.1Zm-3.79 2.694c-8.46 1.028 -9.828 1.922 -10.084 -0.646 -0.606 -6.082 -1.994 -7.81 0.136 -8.13 9.28 -1.39 10.596 -2.376 10.816 0.362 0.474 5.954 1.79 8.092 -0.868 8.414Z" stroke-width="1"></path><path id="vector_64" fill="#0a0430" d="M105.958 222.724c-0.468 -3.642 -1.404 -4.508 -5.03 -3.994 -4.95 0.7 -5.934 0.554 -4.774 6.472 0.55 2.798 0.904 3.466 5.256 3.12 4.434 -0.352 5.112 -1.206 4.548 -5.598Zm-2.016 2.16c-0.184 1.068 -2.498 1.268 -3.586 1.284 -1.968 0.028 -2.04 -0.108 -2.436 -2.578 -0.256 -1.586 0.328 -2.256 1.826 -2.332 1.694 -0.086 5.028 -1.232 4.196 3.626Z" stroke-width="1"></path><path id="vector_65" fill="#0a0430" d="M136.502 219.372c-1.276 -8.014 -0.422 -5.608 -7.504 -5.114 -1.894 0.132 -2.254 1.3 -2.196 2.762 0.228 5.788 1.442 6.576 4.018 5.906 4.068 -1.058 5.894 -0.826 5.68 -3.552l0.002 -0.002Zm-6.364 1.258c-1.626 -0.434 -0.942 -2.152 -1.264 -3.288 -0.192 -0.674 2.42 -1.748 4.236 -1.434 1.69 0.292 0.494 2.024 1.08 2.79 -0.028 0.892 -2.696 2.292 -4.052 1.932Z" stroke-width="1"></path></g><path id="vector_66" fill="#0a0430" d="m175.082 269.606 -9.166 -93.568c-0.802 -8.374 -8.636 -14.604 -17.468 -13.886 -62.348 5.062 -84.486 6.098 -93.946 8.088 -7.718 1.624 -11.704 6.942 -11.988 13.228 -0.424 9.326 2.326 32.752 8.644 105.73 0.642 7.422 6.792 13.246 14.412 13.994 3.476 0.342 0.218 1.206 97.474 -17.274 6.756 -1.284 12.808 -8.242 12.038 -16.312Zm-12.522 13.95 -91.652 16.838c-8.374 2.156 -16.652 -3.372 -17.35 -11.41 -6.578 -75.69 -9.208 -97.622 -8.646 -105.784 0.326 -4.72 3.6 -9.276 10.026 -10.672 8.634 -1.876 29.948 -2.872 93.706 -7.98 7.664 -0.614 14.208 4.762 14.874 11.722l9.162 93.564c0.602 6.27 -3.654 12.036 -10.116 13.722h-0.004Z" stroke-width="1"></path></g><g id="star"><g id="star2"><path id="vector_67" fill="#96d905" d="M141.37 51.262c-4.612 -2.614 -10.088 -1.348 -10.052 -7.234 0.02 -3.508 0.454 -4.792 -1.288 -3.026 -3.926 3.978 -5.15 5.966 -8.518 4.464 -4.432 -1.976 -8.09 -5.186 -2.348 3.228 2.272 3.328 1.722 2.706 -2.882 9.37 -0.172 0.25 -0.256 0.546 -0.1 0.78 0.58 0.866 6.238 -3.55 9.394 1.97 3.762 6.58 4.106 9.028 3.966 -3.108 -0.068 -5.898 6.81 -3.348 11.828 -6.444Z" stroke-width="1"></path><path id="vector_68" fill="#0a0430" d="M138.628 47.29c-4.44 -1.504 -4.42 -1.49 -4.26 -6.302 0.044 -1.388 0 -2.814 -1.522 -3.592 -2.758 -1.416 -4.79 1.252 -7.708 4.24 -3.16 3.236 -3.046 -0.384 -9.514 -2.092 -2.922 -0.77 -4.196 1.376 -3.256 3.698 1.972 4.874 5.702 7.166 4.082 9.554 -1.568 2.31 -5 5.246 -2.842 8.134 1.292 1.73 3.128 1.104 6.596 0.154 3.634 -0.992 2.878 2.472 6.328 6.524 2.706 3.184 5.556 0.806 5.842 -1.834 0.904 -8.374 -1.494 -8.816 2.51 -9.594 6.692 -1.296 8.876 -1.714 9.128 -4.942 0.18 -2.288 -3.216 -3.208 -5.384 -3.942v-0.006Zm-9.088 10.414c0.14 12.136 -0.204 9.688 -3.966 3.108 -3.156 -5.52 -8.816 -1.104 -9.394 -1.97 -0.156 -0.234 -0.072 -0.53 0.1 -0.78 4.592 -6.672 5.154 -6.042 2.882 -9.37 -5.74 -8.414 -2.084 -5.202 2.348 -3.228 3.368 1.502 4.592 -0.486 8.518 -4.464 1.742 -1.766 1.308 -0.482 1.288 3.026 -0.036 5.886 5.44 4.622 10.052 7.234 -5.018 3.096 -11.898 0.546 -11.828 6.444Z" stroke-width="1"></path></g><path id="vector_69" fill="#96d905" d="M182.272 34.484c-2.598 -4.624 -7.938 -6.376 -4.862 -11.39 1.834 -2.99 2.866 -3.866 0.466 -3.256 -5.416 1.374 -7.496 2.442 -9.602 -0.586 -2.772 -3.986 -4.244 -8.624 -3.678 1.546 0.224 4.022 0.066 3.18 -7.314 6.528 -0.274 0.124 -0.502 0.334 -0.49 0.614 0.046 1.044 7.176 0.188 7.022 6.544 -0.184 7.576 -1.156 9.852 4.998 -0.606 2.99 -5.08 7.564 0.654 13.46 0.606Z" stroke-width="1"></path><path id="vector_70" fill="#0a0430" d="M160.504 22.71c2.076 -1.396 0.306 -5.16 1.096 -10.094 0.396 -2.474 2.596 -3.648 4.698 -1.478 4.65 4.808 2.682 7.846 7.058 6.712 4.04 -1.046 7.162 -2.28 8.792 0.358 0.898 1.454 0.2 2.698 -0.558 3.862 -2.626 4.034 -2.636 4.014 0.386 7.6 1.474 1.75 3.906 4.292 2.566 6.158 -1.888 2.63 -3.97 1.858 -10.37 -0.49 -3.83 -1.406 -2.008 0.212 -7.11 6.914 -1.61 2.116 -5.278 2.674 -5.95 -1.45 -0.854 -5.252 1.582 -7.83 -2.044 -8.856 -3.46 -0.98 -5.354 -1.394 -5.564 -3.54 -0.392 -4 5.52 -4.7 7 -5.696Zm21.768 11.774c-2.598 -4.624 -7.938 -6.376 -4.862 -11.39 1.834 -2.99 2.866 -3.866 0.466 -3.256 -5.416 1.374 -7.496 2.442 -9.602 -0.586 -2.772 -3.986 -4.244 -8.624 -3.678 1.546 0.224 4.022 0.066 3.178 -7.314 6.528 -0.274 0.124 -0.502 0.334 -0.49 0.614 0.046 1.044 7.176 0.188 7.022 6.544 -0.184 7.576 -1.156 9.852 4.998 -0.606 2.99 -5.082 7.564 0.654 13.46 0.606Z" stroke-width="1"></path><g id="star2-3"><path id="vector_71" fill="#96d905" d="M95.994 93.608c-5.154 1.24 -8.286 5.902 -12.276 1.576 -2.378 -2.576 -2.938 -3.81 -3.006 -1.332 -0.154 5.584 0.31 7.88 -3.18 9.08 -4.588 1.582 -9.45 1.734 0.486 3.96 3.93 0.88 3.094 0.8 4.288 8.814 0.044 0.3 0.184 0.574 0.46 0.64 1.014 0.236 2.134 -6.854 8.208 -4.976 7.242 2.24 9.164 3.8 0.774 -4.978 -4.076 -4.264 2.69 -7.094 4.246 -12.784Z" stroke-width="1"></path><path id="vector_72" fill="#0a0430" d="M99.33 110.356c-5.058 -6.732 -7.11 -5.424 -4.718 -8.724 4.002 -5.516 5.312 -7.31 3.296 -9.844 -1.428 -1.798 -4.54 -0.152 -6.624 0.792 -4.272 1.93 -4.248 1.926 -7.414 -1.698 -0.916 -1.048 -1.924 -2.06 -3.564 -1.59 -2.98 0.85 -2.646 4.192 -2.738 8.362 -0.1 4.52 -2.484 1.8 -8.378 4.966 -2.658 1.434 -2.128 3.87 0.144 4.926 4.79 2.224 9.1 1.34 9.512 4.236 0.42 2.934 -0.012 7.222 3.47 7.848 2.124 0.382 3.036 -1.33 4.922 -4.392 1.976 -3.208 3.794 -0.16 9.076 0.446 4.152 0.48 4.614 -3.204 3.016 -5.328Zm-8.358 1.016c-6.074 -1.878 -7.194 5.212 -8.21 4.974 -0.274 -0.064 -0.414 -0.34 -0.458 -0.638 -1.196 -8.014 -0.358 -7.938 -4.288 -8.816 -9.936 -2.224 -5.074 -2.378 -0.486 -3.958 3.488 -1.206 3.028 -3.498 3.18 -9.08 0.068 -2.478 0.63 -1.246 3.006 1.332 3.988 4.322 7.126 -0.332 12.276 -1.576 -1.558 5.688 -8.32 8.522 -4.246 12.786 8.39 8.776 6.468 7.216 -0.774 4.976Z" stroke-width="1"></path></g><path id="vector_73" fill="#0a0430" d="M182.284 47.784c2.026 2.53 1.7 5.39 0.654 8.166 -0.924 2.452 0.872 0.872 4.152 3.786 3.532 3.14 3.608 8.084 -0.056 11.734 -1.352 1.346 -0.99 1.834 0.212 2.85 8.37 7.068 0.222 17.532 -1.654 15.264 -0.538 -0.65 0.108 -0.96 0.402 -1.136 4.324 -2.614 3.86 -10.89 -2.28 -13.914 -0.634 -0.312 -1.432 -0.526 -1.5 -1.36 -0.078 -0.928 0.72 -1.272 1.384 -1.678 5.86 -3.586 5.012 -10.83 -2.372 -11.988 -0.438 -0.068 -0.896 -0.04 -1.316 -0.156 -1.18 -0.326 -1.57 -1.3 -0.658 -2.076 3.882 -3.304 2.88 -9.642 -4.44 -12.196 -0.22 -0.076 -2.164 -0.312 -1.698 -1.542 0.972 -2.568 6.754 1.226 9.174 4.248l-0.004 -0.002Z" stroke-width="1"></path><path id="vector_74" fill="#0a0430" d="M114.634 99.77c4.272 2.858 2.45 4.674 4.292 3.85 4.044 -1.808 12.146 -1.498 13.4 6.468 0.428 2.722 3.104 0.016 7.572 2.028 3.74 1.682 3.788 4.188 3.9 7.988 0.04 1.374 -1.512 1.71 -1.946 0.252 -0.564 -1.902 0.674 -6.476 -5.11 -6.78 -2.666 -0.14 -6.166 0.802 -6.488 -2.168 -0.758 -7.01 -7.184 -7.662 -12.136 -4.87 -4.09 2.306 -0.206 -3.268 -5.632 -5.222 -8.174 -2.946 -11.784 3.738 -13.144 1.906 -1.68 -2.264 7.988 -7.544 15.292 -3.452Z" stroke-width="1"></path><path id="vector_75" fill="#0a0430" d="M150.708 76.3c-0.178 0.956 0.522 0.64 0.9 0.7 6.222 1.014 8.19 6.908 6.392 10.292 -1.388 2.61 2.954 0.346 6.612 5.158 3.372 4.436 -0.176 11.594 -2.176 10.45 -1.276 -0.73 3.648 -4.508 0.7 -8.968 -3.146 -4.752 -10.338 -1.76 -7.76 -6.306 2.122 -3.752 0.32 -7.53 -3.944 -8.254 -1.886 -0.32 -2.7 0.204 -3.496 -0.634 -0.99 -1.044 0.36 -1.78 0.52 -2.682 1.516 -8.546 -11.538 -8.08 -10.64 -10.706 0.43 -1.26 1.436 -0.854 2.356 -0.54 6.204 2.136 11.774 4.834 10.54 11.492l-0.004 -0.002Z" stroke-width="1"></path></g></g></svg>