<svg xmlns="http://www.w3.org/2000/svg" fill="none" viewBox="0 0 400 400" height="400" width="400"><path fill="#ffffff" d="M20.472 294.916s-5.514 23.694 7.88 33.634c13.394 9.94 -6.918 25.062 29.388 37.6 36.306 12.538 52.718 2.164 76.498 13.4s60.066 12.962 104.576 7.344c44.51 -5.618 44.954 -9.936 77.78 -9.508 32.826 0.428 58.042 -35.722 59.77 -37.462 -22.164 -2.828 -333.7 -42.046 -355.892 -45.008Z" stroke-width="1"></path><path fill="#ffffff" d="m333.98 277.978 -0.506 -28.67 -1.624 -3.6c0.04 -0.948 0.194 -1.888 0.458 -2.8a2.348 2.348 0 0 0 -1.982 -3.042c-1.88 -0.226 -3.096 1.926 -3.2 2.534 0.196 1.042 0.538 2.052 1.016 3l-1.42 3.302 -0.054 1.724 -2.128 -0.096V10.746s-27.4 -0.8 -31.738 0.416c-4.338 1.216 -61.6 2.368 -78.58 -0.416 -16.98 -2.784 -57.256 3.158 -81.74 2.764 -24.484 -0.394 -43.068 -4.346 -58.47 -2.348v292.264l250.638 32.618v-58.32l2.48 -0.632 0.508 2.286 2.638 1.876c-0.65 0.9 -1.164 1.892 -1.524 2.944 -0.2 1.066 -0.15 1.216 1.474 1.926 1.624 0.71 1.978 -0.252 2.74 -1.064 0.762 -0.812 -0.354 -3.746 -0.354 -3.746l1.368 -3.336Z" stroke-width="1"></path><path fill="#ffffff" d="M295.4 213.044c-1.162 3.616 -1 3.03 -4.438 6.122 -0.388 0.35 -0.57 -0.17 -0.528 -0.308 1 -3.33 -0.068 -1.942 2.386 -6.576 0.85 -1.624 2.554 -0.482 2.58 0.762Z" stroke-width="1"></path><path fill="#ffffff" d="M299.144 220.536a31.22 31.22 0 0 0 -5.174 2.818 19.876 19.876 0 0 0 -5.2 5.272c-0.896 1.032 -2.154 0.386 -1.3 -0.848a44.464 44.464 0 0 1 5.756 -6.2c1.516 -1.218 4.27 -4.312 5.058 -5.044 2.246 -2.09 2.642 -1.816 1.956 -2.884 -1.332 -2.074 -0.924 0.166 -7.19 5.692 -5.868 5.18 -3 3.666 -6.168 7.33 -1.8 2.086 -2.732 3.89 -3.212 3.582 -1.458 -0.926 1.898 -4 2.708 -5.188 2.6 -3.8 1.658 -2.6 2.26 -5.086 2.072 -8.512 0.31 0.648 2.428 -10.4 0.314 -1.644 0.83 -3.108 0.064 -3.26 -2.284 -0.452 -1.904 0.274 -1.97 1.128 -0.164 2.164 -3.048 19.112 -4.6 17.6 -0.488 -0.474 0.212 -1.736 0.266 -3.126 0.054 -1.39 0.474 -2.614 0.55 -4.28a47.744 47.744 0 0 0 -0.17 -6.572c-0.2 -1.178 0.09 -1.656 -1.694 -0.898 -1.518 0.642 -0.962 0.118 -0.932 2.638 0.254 20.45 -4.434 17.742 0.586 20.4 1.448 0.764 1.82 -0.218 2.914 -1.078 6.214 -4.88 5.746 -5 7.86 -6.052 7.096 -3.498 2.616 -1.762 8.112 -3.642 1.354 -0.464 0.214 -0.63 0.776 -2.59 0.372 -1.352 -1.58 -0.184 -3.684 0.688Z" stroke-width="1"></path><path fill="#ffffff" d="M288.532 233.046a7.3 7.3 0 0 1 1 5.83c-0.622 4.936 -4.8 10.664 -7.826 15.852 -1.772 3.042 -3.156 7.61 -7.292 11.458 -0.388 0.362 -0.534 0.282 -7.076 1.4a6.84 6.84 0 0 1 -3.048 0.242 17.772 17.772 0 0 1 -5.332 -3.522 0.66 0.66 0 0 0 -0.904 0.118 0.664 0.664 0 0 0 0.05 0.91 12 12 0 0 0 2.252 2.136c0.35 0.262 0.666 0.566 0.938 0.908 -0.284 0.478 -0.778 0.336 -1.2 0.416a40.406 40.406 0 0 1 -8.324 1.104c-0.662 0.032 -0.764 -0.122 -0.526 -0.726 3.146 -7.944 3.8 -7.494 5.828 -11.55 0.702 -1.4 0.654 0.242 3.2 2.31 5.48 4.456 5.856 1.586 4.74 1.032a13.16 13.16 0 0 1 -5.336 -3.812c-0.706 -0.854 -1.734 -1.57 -0.92 -2.856 2.078 -3.282 2.784 -7.552 4.886 -11.098a18.868 18.868 0 0 1 3.372 -6.488c1.69 -2.028 1.976 -4.97 6.868 -7.676a5.41 5.41 0 0 1 3.568 -0.832c0.8 0.136 3.286 -1.158 2.13 2.296a3.06 3.06 0 0 0 0.24 1.966c0.294 0.612 0.782 1.11 1.388 1.414 0.354 0.144 0.7 0.306 1.036 0.488 3.7 1.902 4.824 -3.214 6.288 -1.32Z" stroke-width="1"></path><path fill="#96d905" d="M288.94 270.2c0.092 1.972 -4.824 1.488 -4.248 3.444 0.162 0.55 0.812 0.274 1.912 0.128 0.702 -0.092 0.756 -0.094 0.87 0.638 0.902 5.882 -0.452 43.918 -0.418 51.914 0.11 25.422 0.882 24.284 -1.636 25.35 -4.108 1.742 -2.2 -0.376 -73.676 19.148 -27.742 7.576 -11.988 7.222 -39.96 1 -0.042 0 -48.97 -10.124 -58.274 -13.886 -13.29 -5.372 -11.696 5.872 -11.89 -24.9l-0.036 -31.248c1.456 -22.302 -1.574 -28.636 2.73 -29.524 0.724 -0.15 3.25 -0.284 3.4 -0.33 0.486 -0.154 1.032 -1.028 0.134 -1.31a51.28 51.28 0 0 0 -7.584 -2.06c-1.152 -0.348 -0.912 -0.87 -0.942 -4.218 0 -0.6 0.454 -0.736 1.046 -0.632 3.774 0.476 7.5 1.26 11.146 2.344 8.26 2.018 45.788 7.236 69.702 11.858 11.8 2.28 8.154 0.542 18.964 0.546 9.636 0 76.702 -10.762 86.714 -12.488 2.788 -0.49 1.856 0.114 2.046 4.226Z" stroke-width="1"></path><path fill="#ffffff" d="M277.504 205.342a2.506 2.506 0 0 1 -0.616 4.084c-5.912 2.782 -24.8 -6.128 -18.836 -9.4 4.1 -2.248 11.338 -0.58 15.214 2.018a18.882 18.882 0 0 1 4.238 3.298Z" stroke-width="1"></path><path fill="#ffffff" d="M277.034 210.96a1.002 1.002 0 0 1 0.02 0.662c-0.75 2.358 -2.176 2.242 -4.12 2.374a23.71 23.71 0 0 1 -7.956 -1.76c-3.944 -1.862 -2.368 2.55 9.088 3.746 1.278 0.134 0.696 0.504 -0.27 3.788 -2.6 8.842 -2.344 9.016 -3.6 10.044 -3 2.472 -4.162 6.94 -0.97 -3.68 3.192 -10.62 3.19 -7.952 -1.53 -9.07 -10.666 -2.522 -10.33 -6.124 -11.78 -2.66 -1.126 2.69 -1.132 3.438 -1.904 3.072 -1.376 -0.654 -0.732 -0.914 0.834 -5.826 0.904 -2.838 0.374 -3.06 1.324 -2.756 1.074 0.344 1.4 -0.656 0.656 -1.25a2.75 2.75 0 0 1 -0.99 -2.584c0.138 -0.3 0.284 -0.6 0.416 -0.894 0.272 0.12 0.524 0.278 0.75 0.47 2.8 3.112 10.064 5.642 13.174 6.2a11.634 11.634 0 0 0 6.244 0.078c0.244 -0.006 0.592 -0.036 0.614 0.046Z" stroke-width="1"></path><path fill="#ffffff" d="M267.482 218.55c3.154 0.842 3.464 -2.152 -0.836 11.444 -4.902 15.496 -4.618 13.558 -4.618 9.688h0.088c0.382 -9.698 1.8 -15.44 -5.474 -20.6 -0.746 -0.53 -0.744 -0.294 0.378 -3.556 0.69 -2.004 0.42 0.346 10.462 3.024Z" stroke-width="1"></path><path fill="#ffffff" d="M255.156 220c7.49 5 5.876 9.916 5.4 19.936a2.836 2.836 0 0 1 -2.384 2.946 15.38 15.38 0 0 1 -4.842 0.492c-11.538 -0.684 -17.614 -0.458 -28.8 -2.672a4.092 4.092 0 0 1 -3.23 -4.626c1.6 -10.458 0.54 -15.2 10.964 -18.73 4.58 -1.55 4.492 -3.434 5.96 -2.826 2.578 1.464 5.582 2 8.508 1.518 1.946 -0.386 2.268 -0.786 2.944 -0.1a20.01 20.01 0 0 0 5.48 4.062Z" stroke-width="1"></path><path fill="#ffffff" d="M259.4 244c1.06 -0.36 0.964 -0.22 0.964 1.012 -0.116 1.8 -0.072 2.632 -2.34 7.384a51.466 51.466 0 0 1 -4.5 8.296 60.968 60.968 0 0 0 -4.162 8.938c-0.296 0.948 0.12 0.59 -12.676 2.538 -0.042 0 -7.946 1.244 -17.27 2.326 -3.03 0.354 -2.334 1.858 -1.104 -12.79 1.882 -22.4 1.888 -21.614 3.456 -20.6 4.094 2.664 22.656 3.2 27.548 3.414 5.26 0.242 6.916 0.566 10.084 -0.518Z" stroke-width="1"></path><path fill="#ffffff" d="M243.65 186.77c9.054 2.216 9.026 -2.968 8.092 4.69 -0.254 2.082 -5.544 0.626 -7.492 0.588a0.644 0.644 0 0 0 -0.262 1.2c5.082 2.236 6.098 1.4 5.956 2.66 -0.076 0.67 -0.466 0.53 -3.842 0.834a14.304 14.304 0 0 1 -4.75 -1.05c-1.666 -0.584 1.178 -3.972 -0.916 -4.966 -0.83 -0.4 -0.828 -1 0 -4.782 0.122 -0.554 0.326 -0.554 0.77 -0.15 0.72 0.526 1.56 0.86 2.444 0.976Z" stroke-width="1"></path><path fill="#ffffff" d="M246.906 184.38c0.462 0.064 4.336 0.784 4.162 1.374 -0.25 0.844 -8.724 0.128 -9.116 -1.152 -0.108 -0.354 0.928 -0.768 4.954 -0.222Z" stroke-width="1"></path><path fill="#96d905" d="M248.958 198.238c1.814 -0.072 0.17 1.84 -0.15 14.282 -0.038 1.49 -0.164 1.254 -4.704 2.086a13.552 13.552 0 0 1 -5.358 -1.868c-0.984 -0.51 -0.644 -0.474 1.2 -12.488 0.388 -2.518 -0.066 -3.468 1.456 -2.85a16.18 16.18 0 0 0 7.556 0.838Z" stroke-width="1"></path><path fill="#ffffff" d="M234.676 179.91c1 0.504 1.756 0.4 1.328 1.52a7.72 7.72 0 0 1 -2.044 3.026 10.66 10.66 0 0 1 -6.956 3.276c-4.578 0.528 -4.234 1.902 -6.43 1.764 -1.7 -0.108 -1.954 -1.58 -3.246 -3.374a0.656 0.656 0 0 1 -0.164 -0.472 0.656 0.656 0 0 1 0.218 -0.448c0.94 -1.062 1.544 -2.37 2.912 -2.97a9.2 9.2 0 0 0 3.226 -1.976 30.048 30.048 0 0 1 3.33 -3.746c0.464 -0.476 1.036 -0.836 1.666 -1.05 1.048 -0.11 1.746 0.834 2 1.024 1.116 0.83 1.144 1.894 4.16 3.426Z" stroke-width="1"></path><path fill="#ffffff" d="M234.034 172.426c0.73 0.38 1.12 0.28 0.928 1.614a6.07 6.07 0 0 1 -1.622 2.914c-0.678 0.712 -0.688 -0.738 -3.218 -2.284a2.802 2.802 0 0 0 -3.164 0.232 9.484 9.484 0 0 0 -3.2 3.01c-0.698 1.3 -1.438 1.924 -4.42 3.446 -2.5 1.276 -3.126 3.746 -4.088 2.86 -0.874 -0.8 -1.032 -0.724 -0.446 -1.8 1.748 -3.214 2.158 -4.316 2.018 -5.64 -0.508 -4.82 0.834 -7.114 3 -10.8 1.116 -1.648 3.928 -2.512 4.28 -0.412 0.472 2.824 6 1.644 7.046 4.034 0.56 1.28 1.594 2.294 2.886 2.826Z" stroke-width="1"></path><path fill="#ffffff" d="M227.034 205.712a15.8 15.8 0 0 1 -1 6.922 12.54 12.54 0 0 0 -1.048 4.826c0.286 3 -1.178 2.2 -2.706 5.932 -0.468 1.144 -0.418 0.684 -3.084 -0.212 -4.2 -1.412 4.6 -7.148 2.842 -11.272 -3 -7.032 -3.33 -9.238 -5.8 -9.728 -5.17 -1.028 -3.718 -1.4 -7.31 -0.928 -0.694 0.09 -0.82 0.05 -1.178 -0.538 -0.8 -1.33 2.078 -1.226 0 -6.048 -0.51 -1.184 -8.302 -3.16 -15.654 -1.76 -1.6 0.304 -3.642 3.322 -2.332 5.22a0.6 0.6 0 0 1 0.092 0.49 8.076 8.076 0 0 1 -1.094 2.556 11.694 11.694 0 0 0 -2.81 3.696c-0.47 1.182 -1.158 0.654 -2.152 1.758 -1.778 1.972 -1.73 3.568 -2.498 7.77 -0.152 0.834 -0.412 1.492 -1.316 4.472 -0.414 1.364 -0.702 0.236 -2.572 0.714 -3.118 0.8 -4.6 0.8 -6.66 4.488 -4.332 7.754 -0.628 8.976 -2.884 9.924 -5.722 2.4 -5.6 5.316 -6.528 7.292 -1.19 -0.69 -1.578 -0.926 -1.664 -1.686a11.082 11.082 0 0 1 0.216 -3.538c0.144 -0.678 1.182 -0.51 1.89 -0.454 0.632 0.052 1.016 -0.216 1.81 -1.286 1.892 -2.55 0.66 -3.616 2.876 -7.038 1.668 -2.576 1.548 -6.05 3.106 -7.842 6.87 -7.912 7.8 -6.116 12.2 -18.086 2.504 -6.83 2.2 -5.75 7.368 -9.99a25.36 25.36 0 0 1 2.248 -1.84c10.56 -6.764 14.53 -3.834 14.53 -3.746 0 0.216 -0.166 0.266 -1.472 0.574 -1.306 0.308 -3.958 2.454 -3 3.284 0.368 0.316 0.708 0.144 1.02 -0.126 1.624 -1.4 1.018 -1.482 4.778 -2.176 2.22 -0.41 5.8 3.86 7.244 5.448 1.6 1.764 -1.228 5.164 0.374 5.458 0.662 0.122 0.906 -0.37 1.354 -2.386 0.4 -1.772 0 -2.496 0.81 -2.118a14.33 14.33 0 0 1 6.186 4.362c2.02 3.162 0.984 -0.074 3.818 7.612Z" stroke-width="1"></path><path fill="#ffffff" d="M220.448 225.298a1.194 1.194 0 0 1 0.832 1.248c-0.232 1.124 -0.174 1.434 -0.828 1.508 -3.278 0.368 -3.164 0.6 -4.282 0.316 -1.118 -0.284 -3.6 -0.4 -5.12 -0.6 -0.776 -0.112 -2.67 -1.296 -1.074 -2.542 0.698 -0.548 1.306 -1.178 2.2 -0.892 1.828 0.6 1.812 -5.674 3.176 -7.584 0.618 0.832 -0.286 -0.506 1.02 4.874 0.778 3.228 0.028 1.974 4.076 3.672Z" stroke-width="1"></path><path fill="#ffffff" d="M220.8 213.548c-0.366 1.302 0.372 0.046 -2.718 5.032 -1.6 2.564 -0.164 -4.552 -2.6 -4.4 -0.94 0.056 -1.096 0.974 -1.628 2.776 -1.428 4.848 -1.212 5.232 -2.4 5.732a6.24 6.24 0 0 0 -4.428 4.8c-0.728 3.134 2.36 3.654 0.74 6.48 -2.524 4.4 0 -0.262 -5.106 8.8 -0.624 1.104 -0.688 1.274 -1.416 0.712 -0.862 -0.668 -1.032 -0.55 -0.79 -1.54 1.782 -7.322 1.702 -8.324 2.976 -15.764 0.23 -1.348 1.072 -1.478 1.876 -3.172 1.694 -3.564 2.106 -3.264 8.87 -13.132 3.248 -4.738 3.132 -4.926 3.71 -3.892a40.5 40.5 0 0 1 2.914 7.568Z" stroke-width="1"></path><path fill="#ffffff" d="M220.424 229.636c0.506 2.086 0.064 1.852 -3.372 2.552 -0.466 0.094 -0.832 -0.088 -0.832 0.104 -6.8 -1.1 -7.214 -1.324 -7.744 -3.456 -0.27 -1.09 1.252 0.214 2.252 0.416 1.502 0.306 4.664 0.548 5.224 0.684 1.806 0.436 4.384 -0.658 4.472 -0.3Z" stroke-width="1"></path><path fill="#ffffff" d="M217.968 233.524c2.958 -0.346 2.708 -3.35 0 14.38 -0.166 1.088 -0.16 1.148 -1.276 1.25a11.64 11.64 0 0 1 -5.732 -0.416c-0.586 -0.246 -0.758 0.456 -0.566 0.74 0.704 1.044 3.33 1.416 4.74 1.274 3.772 -0.378 2.644 -2.88 0.576 23.186 -0.118 1.468 0.182 1.248 -6.066 1.69 -0.186 0 -0.534 -0.058 -0.544 -0.134a1.074 1.074 0 0 1 0.124 -0.662c1.96 -3.638 2.954 -2.568 3.026 -3.63 0.2 -2.988 -6.624 -5.96 -9.532 -6.842 -0.416 -0.126 -0.418 -0.418 -0.342 -0.734 1.85 -7.572 2.2 -6.246 5.574 -14.514 0.814 -3.292 1.252 -6.666 1.304 -10.056 0.786 -10.732 -1.484 -4.342 8.714 -5.532Z" stroke-width="1"></path><path fill="#ffffff" d="M216.726 164.258c1.132 0.42 2.028 0.734 0.988 2.678 -3.63 6.776 -1.626 10.094 -2.49 11.6 -2.088 3.648 -1.856 4.338 -2.914 4.2 -1.8 0 -0.4 -0.282 -1.224 -5.54 -0.316 -2 -1.626 -3.308 -1.248 -5.324 0.446 -2.376 -0.144 -4.4 1.906 -8.57 0.606 -1.228 1.126 -0.47 4.982 0.956Z" stroke-width="1"></path><path fill="#ffffff" d="M217.268 188.838c0.46 0.688 0.416 0.944 -0.15 1.558 -1.462 1.584 -1.696 1.158 -2.2 0.614a22.592 22.592 0 0 0 -4.496 -4.28c-0.908 -0.54 -0.132 -2.4 1.908 -2.368 0.942 0.326 1.786 0.882 2.46 1.616 1.06 0.722 1.914 1.708 2.478 2.86Z" stroke-width="1"></path><path fill="#ffffff" d="M210.6 202.554c6 1.156 5.974 1.066 5.36 2a102.318 102.318 0 0 1 -8.578 12.23c-2.984 3.976 -2.456 4.532 -2.972 3.53 0.838 -2.928 1.424 -5.922 1.756 -8.95 0.154 -3.146 -2.468 -2.422 -1.274 -3.8 4.06 -4.66 4.322 -5.276 5.708 -5.01Z" stroke-width="1"></path><path fill="#ffffff" d="M210.25 269.912a0.702 0.702 0 0 1 0.278 0.582 0.708 0.708 0 0 1 -0.324 0.558c-1.664 0.704 -1.248 1.812 -4.554 4.616 -0.79 0.672 -1.74 0.686 -4.774 1.074 -0.92 0.118 -0.6 0 -1.736 -1.952a11.846 11.846 0 0 0 -7.25 -4.162 29.46 29.46 0 0 1 -6.478 -2.228c-5.21 -2.438 -6.224 -2.326 -8.6 -4.384 -1.6 -1.382 -3.118 -2.84 -4.84 -4.068a8.786 8.786 0 0 1 -0.974 -0.928c-4.34 -4.162 -4.2 -3.746 -5.8 -6.442 -2.732 -4.578 -3.666 -7.79 -8.096 -9.27 -0.65 -0.218 -0.66 -0.72 -0.672 -1.89 -0.03 -3.118 -0.034 -5.894 0.06 -6.436 0.08 -0.474 0.37 -0.526 0.852 -0.47 0.416 0.048 1.104 0.316 1.2 0.624 0.04 1.328 -0.034 2.656 -0.216 3.972 -0.014 4.692 5.08 2.736 10.8 10.972 1.986 2.854 3.276 4.228 9.686 8.99a24.856 24.856 0 0 0 7.788 4.25 37.8 37.8 0 0 0 8.84 1.934c3.472 0.024 6.91 0.696 10.136 1.982 1.648 0.726 3.214 1.622 4.674 2.676Z" stroke-width="1"></path><path fill="#ffffff" d="M209.95 179.676c0.05 1.146 0 2.252 -0.874 0.712a25.7 25.7 0 0 1 -3.87 -9.456c-0.574 -2.976 -0.492 -3.638 -0.284 -4 0.284 -0.324 0.65 -0.564 1.062 -0.692 1.662 -0.518 3.6 -1.42 3.172 0.212a46.392 46.392 0 0 0 -0.8 6.324c-0.14 1.758 1.408 2.634 1.594 6.9Z" stroke-width="1"></path><path fill="#ffffff" d="M202.716 197.142c3.746 -0.138 5.052 -1.324 4.828 -0.086 -0.106 0.59 -0.312 2.648 -0.952 2.8a23.666 23.666 0 0 1 -6.4 0.576c-8.492 -0.854 -6.03 -0.296 -8.742 -1.72a3.064 3.064 0 0 1 -1.336 -2.244c0.026 -1.04 1.036 -1.934 1.694 -1.528a28.14 28.14 0 0 0 10.908 2.202Z" stroke-width="1"></path><path fill="#ffffff" d="M206.974 202.172c0.504 0.728 0.228 0.588 -3.696 5.416 -0.834 1.028 -1.252 -0.138 -2.768 1.384 -0.626 0.628 -0.6 0.2 -1.4 -0.87a2.814 2.814 0 0 0 -4.046 -0.416 11.554 11.554 0 0 1 -0.97 0.834c-0.492 -0.384 -0.124 0.028 -0.78 -1.074 -1.44 -2.424 -3.916 -0.63 -3.962 -0.612 -0.81 0.304 -0.81 0.668 -2.136 -0.834 -0.27 -0.306 0.72 -1.662 0.974 -1.968 1.354 -1.618 2.08 -1.758 2.6 -3.788 0.436 -1.666 0.658 0 3.18 0.25 7.838 0.758 8.332 1.076 11.322 0.246 1.198 -0.33 0.694 0 1.682 1.432Z" stroke-width="1"></path><path fill="#ffffff" d="M191.536 194.508c-0.012 -2.868 18.236 -0.416 15.26 1.386 -3.368 2.036 -15.254 0.196 -15.26 -1.386Z" stroke-width="1"></path><path fill="#96d905" d="M204.136 210.03c0.974 0.54 0.714 1.422 0 4.896 -0.76 3.69 -0.834 3.446 -1.982 3.33 -3.726 -0.378 -3.4 0.864 -1.6 -6.616 0.066 -0.196 0.156 -0.386 0.266 -0.562 0.852 -1.622 1.76 -1.91 3.316 -1.048Z" stroke-width="1"></path><path fill="#ffffff" d="M202.416 219.42c1.47 -0.13 -0.232 3.6 -2 15.294 -0.132 0.878 0.182 0.556 -11.516 -0.654 -0.486 -0.05 -0.6 -0.092 -5.6 -1.028 -5.468 -1.026 -4.894 0.64 -1.664 -15.288 0.304 -1.5 0.2 -1.178 6.83 -0.15 2.482 0.608 5.01 1.002 7.56 1.182 2.116 0.332 4.25 0.548 6.39 0.644Z" stroke-width="1"></path><path fill="#ffffff" d="M201.526 249.062c0.156 2.452 -2.494 2.242 -5 2.248 -6.938 0.014 -21.356 -3.238 -26.6 -7.938 -0.86 -0.772 -0.732 -2.582 -0.308 -2.71 0.138 -0.042 0.346 0.154 0.52 0.25 0.638 0.35 0.06 1.632 7.33 4.65a27.28 27.28 0 0 0 7.452 2.156c7 1.474 11.236 2.55 15.738 1.066 0.488 -0.16 0.834 -0.258 0.868 0.278Z" stroke-width="1"></path><path fill="#ffffff" d="M199.6 244.17c1.624 1.064 1.82 2.786 0.472 3.332 -4.366 1.774 -18.2 -2.024 -20.224 -2.77a24.67 24.67 0 0 1 -7.104 -3.38c-1.736 -1.058 -2.35 -3.34 -0.322 -3.746 1 -0.2 4.332 -0.628 4.554 0.458 0.54 2.64 1.666 3.582 3.19 3.926 2 0.452 2.494 -0.756 3.688 0.386a3.374 3.374 0 0 0 3.958 0.096c0.552 -0.388 0.554 -0.386 1 0.13a4.144 4.144 0 0 0 5.112 0.728 0.664 0.664 0 0 1 0.498 -0.166 0.68 0.68 0 0 1 0.468 0.236c2.832 2.184 3.448 -0.048 4.71 0.77Z" stroke-width="1"></path><path fill="#96d905" d="M196.968 236.312c3.106 0.364 3 0.07 3.084 1.086 -0.334 1.378 -0.614 2.772 -1.024 4.126a1.746 1.746 0 0 1 -1.934 1.132 1.738 1.738 0 0 1 -1.44 -1.716c0.146 -4.844 0.382 -4.74 1.314 -4.628Z" stroke-width="1"></path><path fill="#ffffff" d="M180.568 250.016c14.568 4.742 18.672 1.302 18.4 3.5 -1.82 7.128 -1.988 9.958 -2.872 10.232 -1.1 0.044 -2.2 -0.128 -3.234 -0.508a0.528 0.528 0 0 1 -0.1 -0.416c0.3 -0.934 1.074 -4.846 1.144 -5.466 0.334 -2.96 -2.536 0.634 -18.144 -5.508 -1.702 -0.67 -3.322 -1.524 -4.974 -2.338a1.694 1.694 0 0 1 -0.942 -1.616c0.072 -1.29 -0.158 -2.72 0.616 -2.156a46.954 46.954 0 0 0 10.106 4.276Z" stroke-width="1"></path><path fill="#96d905" d="M195.868 209c1.252 -1.246 2.882 0.54 2.824 1.926 -0.046 1.074 -0.102 0.926 0.074 0.954 -0.288 1.666 -0.552 3.33 -0.878 5 -0.138 0.698 0.132 0.93 -3.6 0.37 -1.352 -0.2 -1 -0.626 -0.186 -3.68 0.836 -3.158 0.744 -3.554 1.766 -4.57Z" stroke-width="1"></path><path fill="#ffffff" d="M197.712 221.626c2.2 0.236 1.718 1.17 0.108 9.65 -0.158 0.832 -0.074 0.964 -4.3 0.422 -11.848 -1.522 -11.106 -1.724 -10.954 -2.744 1.274 -8.646 1.324 -9.118 2.28 -8.898 4.256 0.768 8.55 1.292 12.866 1.57Z" stroke-width="1"></path><path fill="#ffffff" d="M193.912 272.838c3.26 1.016 5.524 4.03 3.6 4 -5.1 -0.058 -4.414 1.582 -13.4 -0.14 -17.752 -3.4 -14.06 -2.388 -17.482 -5.346a75.198 75.198 0 0 1 -9.446 -8.386c-5.112 -5.458 -6.664 -7.33 -7.908 -11.956 -0.664 -2.468 -0.966 -3.238 1.61 -5.516 2.828 -2.496 2.486 -1.58 2.332 -8.4 -0.028 -1.228 -1.4 -2.082 -3.584 1.824 -1.334 2.4 -2.968 5.062 -2.444 8.284 1.53 9.386 2.374 8.54 6.972 15.28a104.456 104.456 0 0 0 9.42 8.742c1.562 1.344 3.292 2.44 1.27 2.106 -8.484 -1.4 -8.776 -1.17 -9.91 -2.432 -3.522 -3.914 -7.334 -5.826 -10.078 -14.422a30.95 30.95 0 0 1 -0.62 -9.4c0.07 -0.38 0.112 -0.762 0.124 -1.148a0.706 0.706 0 0 0 -0.832 -0.416c-0.214 0.058 -0.388 0.226 -0.458 1.19 -1.274 17.318 8.938 22.082 10.04 24.554a21.464 21.464 0 0 1 -4.766 -0.732c-7.928 -2.07 -6.654 1.82 -10.552 -9.462 -4.126 -11.94 3.4 -15.706 7.908 -21.146 0.256 -0.306 3.656 -6.08 3.684 -6.122 1.25 -2.132 -0.188 -2.412 0.63 -3.538 0.6 -0.83 -0.358 -2.752 1.748 -2.456 2.704 0.378 2.702 -0.412 3.746 -1.666a3.024 3.024 0 0 1 3.076 -0.548c0.634 0.418 0.366 1.924 2.152 1.63 1.39 -0.226 1.3 1 1.99 1.62a1.91 1.91 0 0 1 0.57 1.99 11.14 11.14 0 0 1 -0.774 2.2c-0.708 1.448 -2.712 0.914 -3.86 0.232 -1.636 -0.97 -2.686 -0.262 -4.312 0.418 -0.77 0.322 -0.962 1.156 0.022 1.564 0.984 0.408 0.744 -0.362 0.586 6.614 -0.048 2.106 0.474 2.504 1.816 2.914 2.494 0.764 3.938 2.63 6.446 7.388 2.746 5.2 3.694 4.512 5.762 6.968 1.51 1.8 1.6 1.444 7.442 6.6 2.532 2.236 6.4 3.114 10.822 5.146 1.212 0.552 3.374 0.944 6.658 1.968Z" stroke-width="1"></path><path fill="#96d905" d="M194.4 239.042a2.18 2.18 0 0 1 -0.304 0.974c-0.628 1.49 -0.872 2.318 -1.8 2.262a8.184 8.184 0 0 1 -1.718 -0.272 1.748 1.748 0 0 1 -1.066 -1.74c0.728 -5.174 0.522 -4.676 2.114 -4.55 4.744 0.378 2.34 0.046 2.774 3.326Z" stroke-width="1"></path><path fill="#ffffff" d="M173.712 252.588c16.8 6.056 19.28 3.874 18.772 5.348 -1.352 5.708 -0.96 5.584 -2.19 5.2 -7.904 -2.508 -11.472 -5.932 -16.77 -10.2 -0.078 -0.062 -0.07 -0.228 -0.1 -0.344a0.928 0.928 0 0 1 0.288 -0.004Z" stroke-width="1"></path><path fill="#96d905" d="M192.736 210.726c-0.374 2.776 -0.25 2.088 -0.824 5.368 -0.164 0.936 -0.268 0.734 -3.374 0.164 -0.678 -0.126 -0.646 -0.634 -0.558 -1.25 0.55 -3.85 0.366 -6.526 2.914 -7.2 1.2 -0.318 1.83 1.606 1.842 2.918Z" stroke-width="1"></path><path fill="#ffffff" d="M189.644 166.778c0.416 5.552 -2.078 15.218 -2.914 22.852 -0.328 2.98 -3.102 3.2 -4.644 6.43 -2.388 5.018 -3.09 10.546 -7 15.09 -0.738 0.856 -0.736 0.836 -1.716 0.324 -8.724 -4.548 -14.688 -0.47 -13.87 1.146 0.71 1.4 1.144 -0.018 10.928 2.06 0.728 0.154 0.8 0.374 0.32 0.974 -0.4 0.522 -0.84 1.012 -1.312 1.468 -2.694 2.51 -2.71 5.328 -3.774 8.28 -0.504 1.4 -1.536 3.122 -2.082 1.616a2.658 2.658 0 0 0 -2.2 -1.496c-1.178 0 -1.134 -1.242 -2.4 -1.572 -4.716 -1.232 -4.944 2.864 -5.758 2.092a0.3 0.3 0 0 1 -0.09 -0.27c8.172 -46.648 3.902 -19.29 8.096 -39.43C163.766 174.148 165.8 160.8 174.302 152.4a7.71 7.71 0 0 1 8.2 -0.75c1.064 0.412 2.048 1 2.914 1.744 3.316 3.28 4.32 8.742 4.228 13.384Z" stroke-width="1"></path><path fill="#96d905" d="M185.462 234.78c3.102 0.412 3.29 0.468 3.188 1.154 -0.436 2.958 -0.268 3.292 -1.586 5.144a1.812 1.812 0 0 1 -2.434 0c-0.902 -0.8 -0.674 -1.486 -0.504 -2.588 0.51 -3.31 0.354 -3.84 1.336 -3.71Z" stroke-width="1"></path><path fill="#96d905" d="M186.034 207.466c1.744 0.42 1.184 2 1.356 2.018 -0.788 6.436 -0.628 6.424 -2.082 6.244 -2.08 -0.258 -2.662 -0.212 -2.538 -1.2 0.354 -2.862 1.008 -7.606 3.264 -7.062Z" stroke-width="1"></path><path fill="#96d905" d="M179.856 233.856c2.982 0.4 3.472 0.388 3.33 1.248 -0.954 5.764 -1.036 6.026 -2.624 5.412a2.532 2.532 0 0 1 -1.942 -2.556c0.598 -3.688 0.504 -4.2 1.236 -4.104Z" stroke-width="1"></path><path fill="#ffffff" d="M182.48 170.512c-2.098 -0.188 -7.278 -2.04 -12.164 -1.9 -1.664 0.05 0.416 -0.91 0.642 -1a11.104 11.104 0 0 1 8.05 0.228c2.206 0.932 5.868 2.886 3.472 2.672Z" stroke-width="1"></path><path fill="#ffffff" d="M178.61 182.916c1.97 0.956 2.32 1.664 1.532 1.56a14.09 14.09 0 0 1 -1.224 -0.354c-0.51 -0.172 -5.332 -1.148 -7.658 -1.4 -1.474 -0.242 -3.71 -0.068 -4.42 -0.284 -0.4 -0.118 -1.442 -0.04 0.832 -1.12a9.862 9.862 0 0 1 5 -0.582c2.066 0.468 4.06 1.2 5.938 2.18Z" stroke-width="1"></path><path fill="#ffffff" d="M178.502 221c1.4 0.066 0.978 0.442 -0.34 7.368 -1.11 5.828 0.442 3.332 -0.684 7.222 -0.104 0.358 -0.25 0.366 -1.086 0.338 -3.06 -0.726 -4.6 1.132 -5.294 -0.388 -1.87 -4.12 -1.188 -6.682 0.852 -10.4 1.518 -2.77 1.944 -3.066 5.524 -4.03a3.36 3.36 0 0 1 1.028 -0.11Z" stroke-width="1"></path><path fill="#ffffff" d="M173.782 196.098c3.886 1.6 5.412 2.886 4.08 2.8 -1.72 -0.098 -7.282 -1.6 -11.14 -1.986 -0.236 -0.024 -1.132 0 -1.93 0.03 -2.966 0.11 3.106 -3.268 8.99 -0.844Z" stroke-width="1"></path><path fill="#ffffff" d="M172.8 212.694c0.554 0.512 -0.134 0.928 -0.546 1.248a40.776 40.776 0 0 0 -10.474 -1.67c-0.73 0 -0.512 -0.246 -0.384 -0.384 1.424 -1.536 6.624 -2.114 11.404 0.806Z" stroke-width="1"></path><path fill="#ffffff" d="M169.432 235.862c0.2 0.472 0.656 0.928 0.624 1.366 -0.026 0.374 -0.568 0.726 -0.898 1.07a5.512 5.512 0 0 0 -0.904 5.702c0.51 0.778 0.734 0.2 0.122 2.344a0.572 0.572 0 0 1 -0.418 -0.034c-4.898 -4.34 -5 -3.566 -4.894 -4.96a5.75 5.75 0 0 1 2.302 -4.134c1.334 -0.872 3.57 -2.526 4.066 -1.354Z" stroke-width="1"></path><path fill="#ffffff" d="M163.052 163.714c1.452 -0.02 1.87 0.8 1.544 1.79 -3.064 9.248 -1.976 10.91 -5.8 11.684 -0.532 0.108 -0.71 0 -0.772 -0.554 -0.6 -5.138 -0.688 -3.068 2.276 -5.54 1.352 -1.128 0.512 -3.2 -1.982 -0.616 -1.31 1.362 -2.06 0.382 -3.296 0.178 -0.774 -0.126 -0.8 1.284 0.482 1.8 0.712 0.284 0.814 0.418 1.07 4.4 1.32 20.442 1.078 17.482 -0.74 24.834 -0.458 1.852 -0.178 -2.76 -0.304 -8.954 0 -0.246 -0.12 -0.656 -0.45 -0.65 -0.124 0 -0.42 -0.042 -0.528 0.672a12.41 12.41 0 0 0 -0.122 1.494c-0.518 20.9 0.2 14.858 -1.844 24.372 -0.098 0.462 0 0.27 -0.512 0.944a37.612 37.612 0 0 1 -1.148 -7.2c1.2 -5.222 2 -36.628 2.498 -38.512 0.672 -2.554 -4.93 -0.224 -4.516 1.108a1.3 1.3 0 0 0 1.952 0.092c0.194 -0.12 0.408 -0.2 0.632 -0.246 0.094 0.24 0.16 0.49 0.2 0.746 0.05 0.724 -0.096 1.748 -0.786 2 -0.69 0.252 -0.872 0.874 -1.088 1.19 -1.108 1.63 -3.022 1.344 -3.582 -1.632 -1.222 -6.468 -0.446 -3.234 2.776 -5.278a6.34 6.34 0 0 0 2.08 -7.864c-0.714 -1.926 -2.314 -1.172 -1.564 -2.4 1 -1.636 2.902 -3.304 3.874 -1.666 0.504 0.864 0.88 1.8 1.112 2.772 0.312 0.834 1.672 0.222 2.128 -0.566 1.226 -2.124 4.386 -2.352 4.97 -0.342 0.37 1.244 0.054 1.962 1.44 1.944Z" stroke-width="1"></path><path fill="#ffffff" d="M161.42 58.414c0.038 2.2 0.332 3.21 -1.07 3.064 -29.14 -3.052 -27.278 0.142 -28 -3.364a11.014 11.014 0 0 0 -2.08 -4.4c3.666 -0.714 31.1 1.824 31.15 4.7Z" stroke-width="1"></path><path fill="#ffffff" d="M137.306 280.034c7.138 0.898 16.906 1.414 15.8 4.578a11.54 11.54 0 0 1 -1.67 3.552c-1.466 1.832 -2.916 3.786 -5.082 3.668 -9.244 -0.508 -10.86 -4.352 -11.36 -9.47a1.992 1.992 0 0 1 0.548 -1.768 2.008 2.008 0 0 1 1.764 -0.56Z" stroke-width="1"></path><path fill="#ffffff" d="M151.326 225.086a0.682 0.682 0 0 1 -0.1 0.79 0.656 0.656 0 0 1 -0.23 0.162c-1.568 0.834 -0.928 0.958 -2.664 -4.214 -0.1 -0.302 -0.216 -0.776 -0.64 -0.654 -0.97 0.282 1.486 6.178 0.648 8.122s0.838 2.718 -0.2 3.876c-0.314 0.35 -0.616 0.716 -0.92 1.078 -0.578 -0.258 -0.444 -0.888 -0.686 -1.324 -0.74 -1.338 1.142 -1.636 0.496 -3.834a16.78 16.78 0 0 1 -1.09 -5.574c-0.542 -6.148 -1.384 -11.138 -3.118 -25.132 -0.812 -6.548 -2 -36.322 -3.842 -29.85 -0.476 1.664 1.27 6.582 -0.292 7.458 -0.308 0.174 -0.478 0.588 -0.74 0.86 -0.898 0.92 -2.136 0.838 -2.914 -0.834 -0.848 -1.816 -1.224 -0.452 -2.744 -0.678 -1.248 -0.186 -1.384 -1.666 -1.248 -2.914 0.076 -0.712 1.244 -0.422 5.182 -3.184 1.784 -1.252 0.922 -4.378 -0.584 -6.032 -0.6 -0.654 -1.694 -0.388 -1.464 -1.25 0.08 -0.3 0.142 -0.606 0.188 -0.914a1.734 1.734 0 0 1 2.4 -1.342c4 1.678 0.916 -0.578 2.698 -1.63a2.168 2.168 0 0 1 2.082 -0.234c0.924 0.4 0.442 3.286 2.08 2.016a3.354 3.354 0 0 1 2.68 -1.362 0.97 0.97 0 0 1 1.03 0.716 4.466 4.466 0 0 1 -0.046 3.526c-0.418 0.76 -0.05 1.644 1.066 1.382 0.72 -0.17 0.942 -0.1 1.248 0.548 2.2 4.64 -3.966 7.826 -4.188 5.586a4.59 4.59 0 0 1 0.026 -2.758 0.93 0.93 0 0 0 -0.23 -0.812c-0.384 -0.416 -0.724 0.162 -2.526 1.132a0.69 0.69 0 0 0 0.2 1.324c1.344 -0.1 0.938 1.02 1.426 4.708 0.756 5.71 0.752 4.424 1.28 10.09 2.084 22.4 1.928 16.048 4.612 34.236 1.122 7.688 0.54 5.23 1.124 6.916Z" stroke-width="1"></path><path fill="#ffffff" d="M144.82 233.93c0.552 -0.71 0.716 0.55 1.286 2.49 -2.772 6.068 -5.75 5.772 -9.536 12.124 -0.586 0.982 -0.48 1.8 -1.132 2.452a31.796 31.796 0 0 1 -1.362 -3.748c-0.476 -0.99 0.31 0.076 10.744 -13.318Z" stroke-width="1"></path><path fill="#ffffff" d="M144.328 229.024c0.6 -0.788 0.8 -0.072 1.4 1.174a171.808 171.808 0 0 1 -11.678 14.09c-1.714 -2.464 -1.734 0.392 10.278 -15.264Z" stroke-width="1"></path><path fill="#ffffff" d="M143.616 227.13c0.294 0.298 -0.088 0.566 -0.266 0.786 -0.48 0.6 -10.56 13.2 -11.36 13.296 -7.854 0.98 -5.6 0.27 -20.68 0.05 -0.04 0 -9.664 0.132 -10.284 -0.188a82.22 82.22 0 0 1 8 -6.068c1.498 -1.118 2.934 -2.322 4.42 -3.448 0.66 -0.5 1.434 -0.854 2.08 -1.378 1.78 -1.434 9.16 -1.72 11.428 -1.722 14.646 -0.014 15.498 -2.514 16.66 -1.328Z" stroke-width="1"></path><path fill="#ffffff" d="M143.48 215.42c1.304 10.584 1.492 9.844 -0.424 9.9 -1.916 0.056 -0.622 3.17 -10.6 -34.77 -1.814 -6.894 -0.74 -1.666 -2.33 -8.572 0 -0.044 -1.8 -8.324 -1.774 -8.952a0.754 0.754 0 0 1 0.812 -0.646c1.032 0.094 -0.498 1.538 1.436 3.638 1.624 1.764 2.724 0.412 3.6 1.666a3.076 3.076 0 0 0 4.6 0.698c0.254 -0.2 0.478 -0.67 0.832 -0.416 0.354 0.254 0.2 1.77 0.308 1.77 0 0.986 0.3 1.738 -0.832 2.6 -0.932 0.704 -3.534 1.666 -4.266 0.176 -0.6 -1.2 -1.4 -3.156 -1.52 -3.28 -0.538 -0.536 -0.974 -0.1 -0.924 0.324 0.032 0.518 0.154 1.026 0.362 1.502 0.456 1.086 0.784 2.22 0.982 3.38 0.51 1.944 0.54 0.832 0.92 2.264 6.76 25.498 8.678 27.59 8.818 28.718Z" stroke-width="1"></path><path fill="#ffffff" d="M134.2 203.616c5.7 23.134 6.66 22.022 5.092 22.128 -1.82 0.122 -1.58 0.512 -3.586 -7.848 -2.494 -10.388 -2.632 -10.454 -3.18 -10.248 -0.634 0.236 0.062 3.05 0.22 3.52 0.866 2.578 0.646 3.4 2.814 12.33 0.458 1.89 1.074 2.386 0.158 2.648 -2.126 0.6 -1.5 0.832 -3.8 -9.342 -4.158 -18.316 -2.636 -14.682 -6.66 -29.462 -0.092 -0.336 -2.336 -8.678 -2.356 -9.024a29.17 29.17 0 0 0 -1.694 -6.182 1.532 1.532 0 0 0 -0.8 -0.286c-0.172 0.024 -0.416 0.416 -0.416 0.6 0 1.212 1.074 2.224 -0.472 3a0.83 0.83 0 0 1 -1.014 -0.18c-0.416 -0.52 -1.412 -0.35 -1.474 -1.298 -0.2 -2.964 -2.548 -1.956 -3.218 -1.182 -1.8 2.082 -2.418 2.914 -3.716 2.518 -1.508 -0.458 -1.54 -2.572 -0.784 -3.554 0.98 -1.274 1.432 -1.666 1.524 -2.19 0.314 -1.782 -1.832 -0.734 -2.182 -0.67 -1.444 0.26 -1.364 -1.028 -1.69 -2.8 0.284 -1.094 0.482 -3.246 2.26 -2.842 0.538 0.122 1.104 0.134 1.624 0.3 0.87 0.276 1.256 -0.476 0.97 -1.35 -0.966 -2.966 0.762 -4.82 2.44 -3.746 0.54 0.48 1.012 1.034 1.4 1.644 1.25 1.25 -1.014 2.034 1.124 4.784 1.012 1.302 3.024 0.164 1.328 -0.834a1.67 1.67 0 0 1 0.312 -3c2.2 -0.95 2.922 -0.748 3.026 -2.322 0.11 -1.666 0.298 -2.506 1.856 -2.956 1.128 -0.326 2.08 -0.158 2.914 2.028 0.682 1.782 1.828 -0.062 2.832 -0.654 1.844 -1.092 5.2 2.254 3.13 5.116 -0.36 0.494 -0.762 0.972 -0.416 1.6 0.626 1.122 2.614 -0.158 3.276 1a3.18 3.18 0 0 1 0.416 2.6 13.342 13.342 0 0 1 -5.2 3.092 6.48 6.48 0 0 1 -2.16 0.1c-0.334 0 -0.76 -0.974 -0.72 -1.486 0.088 -1.178 1.386 -0.95 1.76 -0.978 0.862 -0.062 1.416 -1.2 0.504 -1.52 -2.082 -0.724 -3.074 0.752 -3.858 1.666 -0.716 0.834 -1.174 0.326 -2.498 0.146 -1.104 -0.152 -0.658 1.42 0.158 1.536 3.912 0.558 2.352 -1.578 4.474 9.2 0.416 2.22 6.266 24.344 6.282 24.398Z" stroke-width="1"></path><path fill="#ffffff" d="M138.568 267.156c0.236 0.516 1.124 1.746 0.024 1.666 -3.444 -0.252 -3.688 -0.272 -3.8 -0.924a88.998 88.998 0 0 0 -2.414 -9.02c-2.426 -8.464 -2.152 -9.014 -5.128 -8.892 -0.832 0.034 -15.23 0.37 -16.612 0.288a1.548 1.548 0 0 0 -1.644 1.474c-0.09 1.688 0.4 2.748 3.432 12.066 0.326 1 0.032 0.782 -3.27 0 -0.8 -0.188 -3.944 -11.24 -4.704 -13.49 -1.53 -4.532 -1.816 -2.872 8.324 -2.948 20.346 -0.154 19.572 -1.13 20.076 0.438 3.718 11.552 1.798 10.81 5.716 19.342Z" stroke-width="1"></path><path fill="#96d905" d="M128.536 231.774c7.354 -0.31 7.78 -2.09 0.366 5.986 -0.588 0.64 -0.832 0.554 -2.4 0.738 -20.524 -1.62 -16.418 1.864 -10.486 -4.966 1.934 -2.224 1.54 -1.292 12.52 -1.758Z" stroke-width="1"></path><path fill="#96d905" d="M129.048 252.558c4.422 16.24 4.696 15.6 3.33 15.4 -2.32 -0.35 -18.896 -2.414 -18.49 -3.576 0.222 -0.632 0.16 -0.474 -2.26 -8.578 -1.186 -3.968 -1.382 -4.012 -0.242 -4.064 1.824 -0.08 4.296 0 7.772 -0.062 9.52 -0.152 9.484 -0.61 9.89 0.88Z" stroke-width="1"></path><path fill="#ffffff" d="M132.264 225.562c0.178 0.778 0.08 0.872 -0.826 0.976 -3.074 0.356 -1.294 0.554 -7.144 -21.35 -4.164 -15.588 -4.348 -18.56 -5.6 -21.7 -0.722 -1.816 0.8 -2.104 1 -3.054a0.486 0.486 0 0 0 -0.76 -0.548c-2.878 1.8 -2.188 4 -3.914 3.538 -2.36 -0.626 -2.852 1.54 -0.416 1.54 0.832 0 1.738 0.184 2.464 -0.512a0.514 0.514 0 0 1 0.504 0.128c0.266 0.304 0.338 0.78 0.866 3.4 0.55 2.734 -4 -1.586 -4.026 1.168 -0.036 5.154 -5.17 3.2 -5.082 0.03 0.07 -2.5 0.422 -1.82 0.616 -2.914 0.496 -2.78 -3.33 1.07 -3.096 -3.226 -0.246 -3.546 3.176 -5.7 5.14 -6.344 1.964 -0.646 3.112 -3.93 3.518 -2.164 0.476 2.08 1.756 1.744 2.364 2.11 2.062 1.246 3.03 -1.162 3.434 0.754 4.092 19.446 0.86 1.092 6.878 29.506 3.754 17.688 1.054 5.5 4.08 18.662Z" stroke-width="1"></path><path fill="#ffffff" d="M132.16 244.722c0.04 0.416 -0.096 0.634 -0.572 0.626 -9.698 -0.148 -4.78 0.356 -21.372 0.188 -10.752 -0.108 -9.376 0.786 -10.094 -2.226 -0.226 -0.954 -0.304 -0.674 7.414 -0.416a60.99 60.99 0 0 1 8.288 0.24c0.05 0 6.464 0.368 6.926 0.384 2.114 0.072 2.4 -0.434 4.2 -0.416 3.638 0.034 4.952 -0.976 5.208 1.62Z" stroke-width="1"></path><path fill="#ffffff" d="M130.834 81.324c0 0.04 0.498 12.6 0.074 14.728s1 2.578 -1.6 5.486c-0.33 0.366 -0.23 0.348 -14.2 -0.458a1.98 1.98 0 0 1 -1.51 -1.864c0.024 -63.688 -1.42 -62.296 1.044 -62.6 0.042 0 5.492 -0.2 6.4 -0.2 4.75 -0.012 7.464 0.27 8.576 0.328 0.79 0.04 1 0.75 1.014 1.548 0.04 3.746 -0.136 7.13 -0.27 11.2 -0.066 2 0.288 2.268 -0.72 2.276 -4.45 0.038 -7.754 -2.076 -11.696 1.446 -5.248 4.688 -3.298 15.258 7.492 15.188 6.868 -0.05 5.138 -7.466 5.396 12.92Z" stroke-width="1"></path><path fill="#ffffff" d="M130.672 59.346c0.466 9.572 -15.334 9.632 -13.828 -1.056 0.694 -4.928 6.442 -7 11.05 -4.426a5.944 5.944 0 0 1 2.778 5.482Z" stroke-width="1"></path><path fill="#ffffff" d="M127.778 226.31c0.13 0.632 -1.4 0.6 -2.032 0.466 -0.502 -0.108 -1 -1.178 -2.118 -2.86 -3.81 -5.696 -4.876 1.496 -18.26 3.564 -1.166 0.18 -1.282 2.496 -1.096 3.642 0.758 4.652 0.894 4.744 0.212 5.274 -1.074 0.836 -1.66 1.856 -2.352 -2.99 -0.764 -5.37 0.966 -3.618 -0.832 -10.4 -0.284 -1.078 0.97 -0.746 3 -1.552 10.152 -4.026 8.148 -3.618 12.05 -5.756 1.51 -0.828 1.752 -2.468 2.568 -0.784 1.298 2.678 1.774 3.982 3.6 4.932 4.882 2.554 4.998 5.194 5.26 6.464Z" stroke-width="1"></path><path fill="#ffffff" d="M126.114 218.508c0.116 0.466 0.174 0.944 0.174 1.424 0 0.296 -0.28 0.464 -0.504 0.214 -1.118 -1.248 -3.182 -1.584 -4.162 -3.302 -2.296 -4.024 -2.298 -4.388 -2.044 -5.058 1.246 -3.28 -0.674 -8.548 -5 -8.778 -4.72 0 -9.366 1.178 -13.514 3.43 -2.442 1.252 0.062 -4.084 0.14 -5.92 0.084 -1.906 1.952 -2.376 5.296 -3.888 0.636 -0.288 0.75 -0.308 1.116 0.268a4.886 4.886 0 0 0 3.666 2.238c3.44 0.368 6.79 1.33 9.898 2.848 0.832 0.342 0.894 0.446 4.934 16.524Z" stroke-width="1"></path><path fill="#ffffff" d="M123.132 226c1.452 2.152 -4.89 0.026 -9.6 3.568 -8.6 6.46 -7.138 6.88 -7.962 0.544 -0.022 -0.974 0 -0.948 0.894 -1.174a49.12 49.12 0 0 0 5.49 -1.472c9.946 -3.778 7.846 -6.42 11.178 -1.466Z" stroke-width="1"></path><path fill="#ffffff" d="M118.21 208.436a3.772 3.772 0 0 1 -0.542 3.45 12.104 12.104 0 0 1 -3.566 2.8 30.914 30.914 0 0 1 -13.558 3.854c-2.134 -0.416 -3.292 -0.306 -4.448 -2.33 -0.776 -1.358 1.644 0.58 7.104 -0.55 12.644 -2.612 14.632 -9.048 15.01 -7.224Z" stroke-width="1"></path><path fill="#ffffff" d="M96.22 212.45c4.22 -7.626 26.456 -10.82 18.98 -4.162a26.774 26.774 0 0 1 -10.078 5.174c-1.948 0.488 -3.932 0.816 -5.932 0.984 -0.97 0.154 -3.832 -0.446 -2.97 -1.996Z" stroke-width="1"></path><path fill="#ffffff" d="M108.024 175.868c0.522 0.8 0.502 0.78 -0.228 1.478 -4.158 3.98 -1.488 6.848 -2.412 8.554 -1.8 3.33 -0.86 5.412 -2.4 5.666a25.24 25.24 0 0 0 -4.188 2.022c-1.72 0.914 -1.49 -3.422 -14.074 -4.846 -1.664 -0.188 -3.8 1.23 -3.05 -1.302 1.668 -5.68 1.572 -6.6 3.566 -6.6 1.232 0.148 2.45 0.39 3.644 0.724 4.902 0.588 9.96 9.642 10.03 7.048 0.04 -1.358 -0.914 -1.548 -8.4 -11.656 -0.466 -0.628 -0.832 -1.04 -0.2 -1.482 3.43 -2.43 4.654 -3.472 5.528 -2.646a9.614 9.614 0 0 1 2.826 4.038c1.936 4.12 1.076 1.378 1.88 8.906 0.068 0.654 0.162 1.2 0.83 1.362 1.6 0.4 -0.758 -13.274 -0.766 -13.49 -0.032 -0.9 0.55 -1.494 1.424 -1.25a12.982 12.982 0 0 1 4.216 1.29c1.614 1.126 1.15 1.21 1.774 2.184Z" stroke-width="1"></path><path fill="#ffffff" d="M106.88 262.544c0.186 1.048 -1.346 0.414 -1.45 0.062 -0.236 -0.8 -0.92 -1.03 -1.508 -1.332a13.9 13.9 0 0 1 -3.978 -3.434c-3.646 -4.122 -6.254 -6.222 -7.076 -17.86 -0.268 -3.78 1.6 -6.776 3.85 -11.68 1.462 -3.2 1.26 -8.658 2.148 -7.076 3.562 6.342 0.216 8.82 2.738 16.6a0.714 0.714 0 0 1 -0.216 0.832c-0.642 0.6 -3.372 2.6 -3.06 3.938 1.106 4.72 1.298 4.442 2.472 4.446 1.312 0 1.302 0.132 1.492 0.94 1.25 5.352 4.472 13.908 4.588 14.564Z" stroke-width="1"></path><path fill="#ffffff" d="M106.43 194.2a0.886 0.886 0 0 1 -0.714 1.178c-1.87 0.704 -3.69 1.538 -5.446 2.494a3.17 3.17 0 0 1 -0.712 -0.5c-0.944 -1.308 -1.182 -1.66 0.376 -2.5 3.352 -1.802 5.838 -3.39 6.496 -0.672Z" stroke-width="1"></path><path fill="#0a0430" d="M327.224 332.512c-1.4 -0.366 -1.546 -0.526 -1.476 -1.236 0 -0.056 -0.422 -9.014 -0.292 -27.778 0.048 -7.092 -0.32 -18.442 -0.32 -18.484 0.152 -1.93 0.196 -3.866 0.132 -5.8 -0.062 -0.512 0.256 -0.738 0.6 -0.982 1.664 -1.14 0.2 1.326 2.4 2.31 1.484 0.668 0.74 1.386 0.478 1.782a2.834 2.834 0 0 0 0.286 3.708 2.824 2.824 0 0 0 3.714 0.226c2.328 -1.93 0.152 -3.426 0.662 -5.174 1.586 -5.434 1.508 2.864 1.092 -15.868 -0.076 -3.354 0.094 -5.348 -0.458 -14.268a6.212 6.212 0 0 0 -0.16 -1.73c-0.466 -2.684 -1.424 -2.042 -1.36 -3.712 0.094 -2.422 0.856 -3.1 -0.104 -4.852a3.134 3.134 0 0 0 -4.79 -0.582 3.142 3.142 0 0 0 -0.896 1.572c-0.548 2.61 1.654 2.766 0.444 5.336 -1.082 2.294 -0.914 1.818 -0.878 2.432 0.024 0.386 -0.136 0.684 -0.6 0.678 -1.45 -0.022 -0.8 -0.322 -0.2 -21.384 0 -0.386 -0.464 -8.4 -0.126 -12.562 0.424 -5.2 0.84 -2.88 0.416 -25 -0.138 -7.264 0.542 -61.668 0.242 -67.87 -0.93 -19.314 -1.14 0.68 -0.248 -35.056 0 -0.042 0.09 -56.786 -0.16 -65.6 -0.358 -12.656 0.678 -11.988 -0.686 -12 -1.864 -0.014 0.266 -3.13 -1.062 89.824 -0.35 24.554 0.856 13.06 0.6 31.4 -0.268 19.76 0.12 41.904 -0.37 49.4 -0.36 5.494 1.168 23.614 -0.12 34.266a122.58 122.58 0 0 0 0.048 13.058c0 0.042 -0.848 34.74 -0.8 40.372 0 0.2 1.304 55.05 0.6 66 -0.1 1.55 -0.624 -0.056 -14.86 -1.4 -7 -0.664 -3.528 -1.076 -19.536 -3.296 -0.786 -0.11 -0.866 0.078 -0.866 -4.084 0 -0.042 0.512 -36.28 1.1 -36.418a6.3 6.3 0 0 1 1.714 -0.25c4.642 0.232 4.87 1.066 4.838 -0.8 -0.014 -0.778 0 0.832 -0.246 -5.498 -0.704 -17.628 1.046 -21.322 -1.248 -55.016 -0.042 -0.6 -0.084 -0.944 3.246 -2.498 6.944 -3.24 6.318 -1.498 6.46 -6.494a2.608 2.608 0 0 0 -0.124 -0.712c-0.6 -2.308 -2.17 -0.76 -5.736 0.6a0.274 0.274 0 0 1 -0.356 -0.086 0.28 0.28 0 0 1 -0.044 -0.19 0.276 0.276 0 0 1 0.096 -0.172c1.832 -2.176 4.514 -3 3.85 -4.756a6.152 6.152 0 0 0 -1.666 -2.464c-1.226 -1.078 -2.2 0.37 -2.738 0.902 -0.688 0.692 -0.47 -0.254 -2.14 -1.96 -0.228 -0.234 -1.31 -47.894 -1.162 -55.386 0.2 -9.616 0.932 -12.53 0.6 -23.768 -0.308 -10.6 0.354 -30.6 0.388 -31.952 0.186 -7.33 -0.896 -69.968 -0.2 -80.274a54.454 54.454 0 0 0 0 -7.492c-0.062 -0.888 -0.212 -0.966 -1.1 -0.888 -0.61 0.056 -0.468 0.446 -0.416 2.082 0.228 6.898 -0.118 5.456 -0.24 11.8 -0.386 19.956 0.316 71.824 0.224 74.926 -0.164 5.62 -0.588 28.904 -0.304 31.428 0.588 5.218 -1.296 25.852 -0.47 33.3 0.2 1.888 0.046 3.492 0.088 14.984 0.088 24.858 1.742 31.306 -0.468 30.728 -0.468 -0.124 -0.26 -0.386 0 -1.844l-1.114 -0.234c-0.096 0.526 -0.246 1.124 -0.372 1.774 -2.118 11.074 -0.364 1.91 -2.426 10.4 -0.6 2.476 0.332 1.294 -2.26 5.088 -1 1.45 -4.132 4.32 -2.704 5.228 0.524 0.334 1.8 -2.016 3.2 -3.6 3.212 -3.634 0.302 -2.15 6.168 -7.33 6.258 -5.526 5.848 -7.774 7.18 -5.694 0.688 1.07 0.29 0.8 -1.956 2.884 -0.788 0.732 -3.54 3.828 -5.058 5.046a42.502 42.502 0 0 0 -5.628 6.076c-1.072 1.332 0.25 2.066 1.186 1 2.182 -2.482 3.2 -4.2 5.214 -5.304a31.084 31.084 0 0 1 5.174 -2.82c2.1 -0.874 4.062 -2.038 3.682 -0.712 -0.56 1.962 0.578 2.126 -0.774 2.6 -5.496 1.882 -1.024 0.128 -8.112 3.642 -2.244 1.112 -1.832 1.368 -7.86 6.064 -1.108 0.866 -1.48 1.84 -2.912 1.078 -5.016 -2.664 -0.066 0.05 -0.588 -20.4 -0.064 -2.518 -0.54 -2.03 0.934 -2.64 1.776 -0.734 1.502 -0.298 1.692 0.9 0.026 0.154 0.06 0.448 0.084 0.836l1.046 -0.08c-0.084 -1.086 -0.19 -2.046 -0.234 -2.626 -0.078 -1.028 -1.49 -0.664 -2.876 -0.254 -1.226 0.364 -2.4 0.87 -2.182 1.89a75.016 75.016 0 0 1 -0.24 13.47c-0.174 2.182 -0.476 2.108 -1.18 2.082 -7.126 -0.27 -7.8 4.976 -4.72 -5.546 1.856 -6.32 1.854 -6.384 2.498 -6.976a18.266 18.266 0 0 0 2.02 -4.962c2.4 -8.67 -20.988 -15.026 -23.552 -8.4 -1.136 2.934 -1.956 4.952 -1.316 6.788 0.088 0.254 0.12 0.252 -1.6 6.216 -0.636 2.2 -0.88 2.536 -1.466 2.114 -1.484 -1.07 -1.2 -0.7 -0.586 -10.49 0.37 -5.934 0.488 -5.51 0.562 -10.472 0.022 -1.464 1.64 -0.862 1.826 -3.042 0.4 -4.68 1.064 -5.73 -0.79 -6.836 -2.25 -1.342 -8.8 -2.56 -11.8 -1.474a2.354 2.354 0 0 0 -1.462 1.642c-0.5 1.54 -1.62 6.012 -0.212 6.766 1.314 0.706 0.548 1.356 -0.292 6.324 -2.57 15.238 -1.672 14.81 -2.68 15.552a16.772 16.772 0 0 1 -4 2.18c-5.356 2.034 -5.046 2.266 -5.358 1.898a2.696 2.696 0 0 1 -0.054 -1.782c1.818 -5.456 2.09 -5.318 2.082 -10a22.386 22.386 0 0 0 -2.614 -6.838 17.586 17.586 0 0 0 -5.166 -5.182c-1.616 -1.078 -3.588 -1.178 -3.042 -1.84 1.266 -1.54 1.236 -1.282 2.348 -1.15 3.058 0.362 2.214 -1.36 7 -1.768 7.362 -0.626 12.682 -8.8 9.444 -10.09 -1.12 -0.446 -3.512 -0.4 -1.8 -1.91a5.52 5.52 0 0 0 1.456 -3.88c0.094 -0.826 0.038 -1.462 -1.628 -2.01 -2.658 -0.876 -1.668 -2.878 -3.84 -3.842 -4.216 -1.872 -5.108 -0.638 -5.526 -2.498 -0.4 -1.77 -2.534 -2.726 -5.448 -0.912 -1.432 0.892 -0.642 -0.932 -2.722 -1.248 -0.488 -0.074 -0.988 -0.4 -3.954 -1.574 -1.2 -0.474 -1.872 -0.234 -3.2 2.448 -0.624 1.264 -0.72 -0.264 -5.548 1.772a1.674 1.674 0 0 0 -1.032 1.558c-0.434 9.882 7.034 16.232 5.682 17.436 -1.82 1.622 -5.152 -5.17 -19.852 4.762 -0.518 0.35 -0.72 0.12 -0.728 -0.416 -0.016 -1.08 3.298 -16.84 2.544 -24.534 -0.53 -5.4 -2.548 -11.482 -7.51 -13.624 -1.816 -0.784 -7.982 -2.244 -11.554 2.128A48.8 48.8 0 0 0 166 162c-0.532 1.084 -0.862 0.292 -2.022 0.088 -0.518 -0.09 -0.716 -0.366 -0.874 -0.866a3.748 3.748 0 0 0 -4.434 -2.31c-1.058 0.4 -2.054 0.95 -2.956 1.632 -0.286 -0.438 -0.568 -0.868 -0.832 -1.308a2.878 2.878 0 0 0 -4.5 -0.9c-0.708 0.522 -1.1 1.166 -1.372 0.554 -0.312 -0.698 -0.426 -1.6 -1.92 -1.946 -2.46 -0.584 -3.412 1.168 -3.88 0.066 -0.514 -1.22 -3.782 -1.658 -5.34 0.354 -0.698 0.9 -1.4 0.468 -2.776 0.832 -1.308 0.344 -0.526 0.072 -3.26 -2.4a3.744 3.744 0 0 0 -4.02 0.074c-0.55 0.306 -0.632 0 -1.04 -0.49a3.78 3.78 0 0 0 -6.748 2.16 1.818 1.818 0 0 1 -1.532 1.812c-1.424 0.378 -1.474 0.45 -2.2 -0.908 -1.4 -2.584 -5.736 -2.366 -6.148 0.832 -0.2 1.6 0.2 2.362 -0.774 2.36 -3.502 0 -4.042 2.502 -3.684 5.982 0.35 3.4 2.342 2.478 1.922 3.484 -0.218 0.524 -0.29 1.312 -1 0.97 -0.964 -0.462 -1.15 -0.902 -2.174 -0.874 -0.744 0.02 -1.324 -0.022 -1.324 -0.758 0 -0.874 -1 -22.8 0 -39.856 0.662 -11.294 0.034 -117.628 0.15 -118.922 0.096 -1.056 -1.71 -3.2 -1.718 2.6 -0.02 11.852 -0.162 19.928 -0.16 20.344 0.046 5.986 0.414 12.762 0.418 13.6 0.178 32.17 -0.492 14.306 0.22 35.578 0.028 0.86 -0.124 1.726 -0.162 2.588 -0.178 4.058 -1.2 75.916 -0.516 83.25 0.2 2.056 -2.48 1.124 -2.356 3.452 0.016 0.316 -0.324 0.6 -0.662 0.178 -1.656 -2.024 -1.766 -2.548 -2.386 -2.424 -2.6 0.528 -2.026 0.076 -6.8 3.522 -1.462 1.058 -0.692 2.142 0.142 3.418 1 1.536 1.926 2.578 1.068 2.432 -3.6 -0.618 -4.934 -1.566 -6.968 -0.512 -1.482 0.766 -1.232 0.482 -3.534 8.8a2.952 2.952 0 0 0 0 1.124c0.438 2.368 2.886 -0.148 7.322 1 3.094 0.454 6.052 1.576 8.666 3.292 1.666 1.06 0.558 3 2.782 4.55a2.302 2.302 0 0 1 0.832 3.144 10.626 10.626 0 0 0 -1.12 4.8c0.628 2.968 -3.256 2 -4.212 7.372a6.164 6.164 0 0 0 2.13 4.966c0.826 0.666 0.516 1.478 0.068 4.466 -1.2 7.946 -4.59 9.2 -4.838 14.986 -0.2 4.57 0.75 12.236 3.6 16.312 1.666 2.4 6.172 6.576 5.988 7 -0.184 0.424 -2.916 0.036 -3.096 2.118 -0.4 4.538 -0.484 5.216 0.742 6.086 2.416 1.716 1.742 -3.138 1.8 13.82 0.044 16.6 -0.85 19.222 -0.642 21.17 0.106 1 -0.712 0.658 -2.082 0.512 -24.24 -2.6 -23.188 -2.024 -23.252 -3.03 -0.246 -3.954 -0.56 -69.722 0.376 -108.85 0.51 -21.4 -0.738 -0.358 -0.558 -38.382 0.108 -22.7 0.412 -65.784 0.636 -77.75h-1.22c-0.078 2.764 -0.516 5.35 -0.694 7.932l-0.512 82.26c0.048 8.75 0.732 14.248 0.97 17.22 0.542 6.8 -1.6 5.544 -0.892 104.77 0.022 2.864 0.41 5.016 0.3 7.36 -0.2 4.278 0.11 4.2 -1.764 3.946 -8.012 -1.082 -11.04 -1.444 -22.358 -2.84 -30.54 -3.764 -28.6 -3.858 -28.874 -3.15 -0.474 1.248 -1.568 0.918 19.226 3.384 0.074 0 31.56 3.96 33.376 4 0.982 0.016 -0.576 2.48 2.188 2.438 2.328 -0.034 4.778 0.638 9.724 0.772 2.726 0.072 3.118 0.714 6.472 0.852 2.702 0.04 5.396 0.318 8.05 0.832 1.134 0.2 0.888 -0.124 1.072 5.328 0.184 5.452 -0.53 33.87 0.478 41.514 0.4 2.964 3.672 3.954 6.66 4 2.372 0.042 2 0.294 7.418 2.174 7.242 2.514 2.2 0.586 30.968 7.812 14.07 3.532 36.924 7.484 41.746 9.59 3.766 1.644 8.6 0.31 11.492 -1.174 1.54 -0.8 56.09 -15.506 78.872 -20.692 13 -2.956 11.18 -2.694 11.18 -14.26 0 -10.586 -0.586 -9.74 1.944 -9.374 14.164 2.044 12.06 2.414 15.948 2.872 19.2 2.262 18.67 3.378 19 0.178 0.252 -2.432 54.614 8.16 54.89 5.25 0.138 -1.618 -44.554 -5.352 -53.426 -7.676Zm3.81 -47.156a1.4 1.4 0 1 1 0 -2.782 1.412 1.412 0 0 1 1.436 0.818 1.416 1.416 0 0 1 0 1.146 1.388 1.388 0 0 1 -0.854 0.762 1.4 1.4 0 0 1 -0.582 0.056Zm-1.378 -44.694c2.424 0.034 2.71 3.476 -0.3 2.888a1.466 1.466 0 0 1 -0.994 -0.522 1.436 1.436 0 0 1 -0.156 -1.622 1.47 1.47 0 0 1 0.878 -0.7 1.454 1.454 0 0 1 0.572 -0.044Zm-1.81 7.388c1.496 -0.89 0.4 -2.518 1.744 -2.498 1.976 0.03 0.906 -0.224 2.156 2.582 0.174 0.4 -1.09 1.374 -3.246 0.71 -0.688 -0.212 -1.198 -0.474 -0.654 -0.794Zm2.678 2.338c2.864 -0.2 2.312 -3.504 2.328 9.076 0.018 12.284 0.27 18.852 0.172 18.944a5.376 5.376 0 0 1 -3.926 0.874c-0.624 -0.018 -0.834 -0.27 -0.832 -0.916 0.094 -34.198 -2.68 -27.616 2.258 -27.978Zm-39.572 -31.222c-0.386 0.35 -0.57 -0.186 -0.54 -0.328 1 -3.344 -0.082 -1.95 2.384 -6.576 0.86 -1.61 2.582 -0.488 2.582 0.762 -1.162 3.634 -0.978 3.048 -4.426 6.142Zm-1.228 12.318c0.84 -0.97 1.754 -1.872 2.736 -2.698 0.378 -0.262 0.648 -0.246 0.686 0.372 0.262 4.13 1.548 20.074 1.25 23.2 -0.164 1.72 0.07 3.476 -0.122 5.2 -0.258 2.326 0.268 4.624 0.042 6.942 -0.02 0.2 -0.284 11.758 0.122 23.02 0.032 0.912 -0.15 0.91 -4.106 0.316 -1.378 -0.2 -0.902 0.9 -1.264 -12.22 -0.054 -1.958 -0.704 -2.562 0.19 -2.978 1.478 -0.686 1.51 -1.814 1.328 -6.514 -0.102 -2.656 -1.744 -2.412 -6.692 -2.948 -4.06 -0.438 -4.72 -0.19 -4.106 -1.306 2.414 -4.378 1.2 -3.328 4.184 -7.846a78.588 78.588 0 0 0 5.944 -10.74 12.464 12.464 0 0 0 0.18 -10.4c-0.376 -0.684 -0.534 -1.06 -0.372 -1.4Zm-15.85 -2.486a5.316 5.316 0 0 1 3.568 -0.832c0.8 0.142 3.284 -1.158 2.13 2.298a3.088 3.088 0 0 0 1.628 3.38c0.354 0.144 0.698 0.306 1.036 0.486 3.698 1.92 4.882 -3.132 6.296 -1.284a7.37 7.37 0 0 1 1 5.83c-0.618 4.938 -4.81 10.654 -7.822 15.81 -1.776 3.04 -3.186 7.56 -7.292 11.46 -0.376 0.356 -0.516 0.28 -7.076 1.388a6.78 6.78 0 0 1 -3.048 0.242 17.55 17.55 0 0 1 -5.332 -3.522 0.674 0.674 0 0 0 -0.898 0.122 0.67 0.67 0 0 0 0.046 0.906c0.654 0.808 1.41 1.526 2.252 2.136 0.35 0.262 0.664 0.568 0.936 0.908 -0.284 0.496 -0.788 0.344 -1.2 0.416a46.514 46.514 0 0 1 -8.324 1.104c-0.662 0.032 -0.764 -0.122 -0.526 -0.726 3.136 -7.942 3.788 -7.474 5.828 -11.55 0.7 -1.4 0.65 0.234 3.2 2.31 5.474 4.464 5.856 1.586 4.74 1.032a13.096 13.096 0 0 1 -5.348 -3.8c-0.708 -0.852 -1.732 -1.57 -0.92 -2.856 2.074 -3.28 2.8 -7.556 4.886 -11.096a18.79 18.79 0 0 1 3.372 -6.49c1.69 -2.022 1.994 -4.928 6.868 -7.67v-0.002Zm-122.028 12.926c-0.292 1.85 -0.6 0.38 -2.6 2.834 -0.076 0.112 -0.27 0.138 -0.416 0.2 -0.2 -1.524 1.26 -3.752 2.576 -6.078 0.214 -0.38 0.454 -0.346 0.6 0.126 0.062 0.976 0.008 1.956 -0.16 2.918Zm-0.974 3.55c2.826 -2.494 2.484 -1.582 2.332 -8.4 -0.03 -1.228 -1.4 -2.098 -3.584 1.824 -1.332 2.4 -2.97 5.06 -2.444 8.282 1.528 9.388 2.4 8.534 6.972 15.28a99.42 99.42 0 0 0 9.42 8.742c1.568 1.336 3.292 2.44 1.268 2.106 -8.482 -1.4 -8.778 -1.178 -9.91 -2.43 -3.53 -3.906 -7.332 -5.81 -10.078 -14.424a31 31 0 0 1 -0.62 -9.4c0.072 -0.38 0.114 -0.764 0.126 -1.15a0.708 0.708 0 0 0 -0.834 -0.416c-0.212 0.058 -0.386 0.228 -0.458 1.19 -1.274 17.322 8.938 22.07 10.042 24.55a21.602 21.602 0 0 1 -4.768 -0.734c-7.926 -2.068 -6.642 1.824 -10.55 -9.462 -4.138 -11.938 3.346 -15.764 7.908 -21.144 0.252 -0.298 3.654 -6.082 3.684 -6.124 1.252 -2.13 -0.2 -2.4 0.628 -3.538 0.6 -0.818 -0.358 -2.752 1.748 -2.456 2.722 0.386 2.706 -0.422 3.746 -1.664a3.024 3.024 0 0 1 3.076 -0.55c0.636 0.422 0.368 1.924 2.152 1.632 1.4 -0.228 1.3 1 1.99 1.62a1.89 1.89 0 0 1 0.57 1.988 10.6 10.6 0 0 1 -0.77 2.236c-0.704 1.45 -2.71 0.914 -3.858 0.234 -1.638 -0.972 -2.686 -0.26 -4.312 0.416 -0.768 0.318 -0.934 1.17 0.02 1.564 0.954 0.394 0.744 -0.362 0.586 6.616 -0.046 2.114 0.474 2.502 1.816 2.912 2.49 0.764 3.946 2.634 6.448 7.388 2.738 5.21 3.684 4.51 5.76 6.968 1.514 1.8 1.6 1.452 7.444 6.6 2.536 2.232 6.4 3.132 10.822 5.144 1.2 0.546 3.4 0.94 6.668 1.956 3.268 1.016 5.524 4.032 3.6 4 -5.084 -0.058 -4.4 1.57 -13.422 -0.17 -17.744 -3.428 -14.056 -2.386 -17.482 -5.344a75.74 75.74 0 0 1 -9.444 -8.388c-5.126 -5.46 -6.664 -7.328 -7.91 -11.954 -0.654 -2.452 -0.96 -3.224 1.618 -5.5Zm-39.29 10.378c-1.186 -3.968 -1.382 -4.012 -0.242 -4.064 1.824 -0.082 4.296 0 7.772 -0.062 9.54 -0.162 9.494 -0.63 9.906 0.862 4.494 16.224 4.724 15.6 3.344 15.4 -2.324 -0.342 -18.918 -2.434 -18.52 -3.56 0.226 -0.628 0.158 -0.474 -2.26 -8.576Zm20.788 3.054c-2.418 -8.474 -2.152 -9.012 -5.128 -8.89 -5.418 0.22 -16.548 0.278 -16.75 0.284a1.56 1.56 0 0 0 -1.412 1.01 1.552 1.552 0 0 0 -0.096 0.602c0.1 1.98 -0.086 1.154 3.434 11.93 0.326 1 0.036 0.746 -3.272 0 -0.8 -0.178 -3.946 -11.246 -4.702 -13.49 -1.528 -4.528 -1.8 -2.87 8.324 -2.946 20.346 -0.156 19.578 -1.128 20.076 0.436 3.676 11.552 1.746 10.826 5.724 19.314 0.232 0.498 1.124 1.734 0.024 1.666 -3.446 -0.216 -3.696 -0.262 -3.8 -0.896 -0.234 -1.27 -0.44 -2.072 -2.422 -9.02ZM101.3 223c-0.286 -1.078 0.97 -0.746 3 -1.552 10.152 -4.026 8.142 -3.626 12.05 -5.756 1.508 -0.824 1.742 -2.472 2.568 -0.784 1.308 2.672 1.774 3.982 3.6 4.932 4.89 2.558 5 5.2 5.266 6.47 0.132 0.632 -1.4 0.6 -2.032 0.466 -0.504 -0.112 -0.99 -1.184 -2.118 -2.86 -3.826 -5.684 -4.876 1.494 -18.26 3.564 -1.166 0.178 -1.284 2.48 -1.096 3.642 0.752 4.652 0.89 4.74 0.212 5.274 -1.078 0.85 -1.666 1.858 -2.352 -2.99 -0.768 -5.406 0.97 -3.58 -0.838 -10.406Zm17.662 -43.114c-2.876 1.8 -2.186 4 -3.914 3.536 -2.36 -0.624 -2.85 1.542 -0.416 1.542 0.854 0 1.744 0.2 2.466 -0.514 0.086 -0.066 0.4 0.018 0.502 0.13 0.266 0.306 0.338 0.784 0.866 3.4 0.554 2.734 -4 -1.586 -4.024 1.17 -0.036 5.152 -5.172 3.2 -5.082 0.028 0.068 -2.498 0.424 -1.818 0.614 -2.914 0.486 -2.78 -3.334 1.07 -3.096 -3.226 -0.246 -3.546 3.152 -5.694 5.14 -6.344 1.988 -0.65 3.106 -3.93 3.518 -2.164 0.48 2.064 1.758 1.744 2.364 2.11 2.064 1.25 3.026 -1.162 3.434 0.754 4.142 19.43 0.84 1.092 6.858 29.506 3.746 17.686 1.042 5.506 4.072 18.66 0.178 0.778 0.08 0.872 -0.826 0.976 -3.074 0.356 -1.28 0.552 -7.122 -21.348 -4.16 -15.6 -4.346 -18.562 -5.6 -21.7 -0.72 -1.8 0.8 -2.106 1 -3.056a0.488 0.488 0 0 0 -0.754 -0.546Zm-11.152 8c-0.438 4.026 2 6.154 4.504 6.186 2.256 -0.1 2.898 -1.4 3.506 -2.988 0.446 -1.17 1.082 -0.488 2.418 -0.478 0.982 0 0.91 0.148 1.91 4.662 1.642 7.4 1.024 4 -4.224 2.984s-5.612 -0.438 -7.382 -2.578a6.832 6.832 0 0 0 -2.568 -4.682 0.92 0.92 0 0 1 -0.354 -1.136c0.258 -0.786 0.428 -1.6 0.7 -2.386 0.32 -0.926 1.63 -0.87 1.49 0.406v0.01Zm-0.19 9.022a4.89 4.89 0 0 0 3.666 2.238c3.44 0.362 6.79 1.326 9.898 2.848 0.82 0.34 0.892 0.446 4.93 16.524 0.114 0.466 0.174 0.944 0.174 1.424 0 0.296 -0.286 0.454 -0.504 0.214 -1.104 -1.224 -3.176 -1.582 -4.162 -3.302 -2.304 -4.02 -2.296 -4.386 -2.044 -5.058 1.232 -3.276 -0.692 -8.548 -5 -8.778a28.276 28.276 0 0 0 -13.514 3.43c-2.444 1.252 0.06 -4.084 0.14 -5.92 0.084 -1.906 1.962 -2.378 5.296 -3.888 0.64 -0.298 0.754 -0.316 1.12 0.258v0.01Zm5.91 32.676c-8.6 6.46 -7.138 6.872 -7.962 0.544 -0.022 -0.974 -0.014 -0.948 0.894 -1.174a49.096 49.096 0 0 0 5.49 -1.472c9.956 -3.766 7.844 -6.424 11.18 -1.466 1.45 2.144 -4.89 0.016 -9.602 3.558v0.01Zm-4.508 5.452c1.506 -1.118 2.93 -2.326 4.42 -3.448 0.668 -0.502 1.44 -0.856 2.082 -1.376 1.772 -1.44 9.178 -1.72 11.426 -1.724 13.4 -0.024 15.652 -2.36 16.666 -1.328 0.294 0.298 -0.086 0.566 -0.266 0.788 0 -0.2 -10.438 13.166 -11.368 13.294 -7.258 1 -6.452 0.26 -20.68 0.05 -0.04 0 -9.664 0.134 -10.284 -0.188a78.452 78.452 0 0 1 8.004 -6.078v0.01Zm21.524 -58.994c1.624 1.762 2.72 0.4 3.6 1.666a3.054 3.054 0 0 0 4.6 0.7c0.258 -0.2 0.5 -0.67 0.834 -0.418 0.334 0.252 0.2 1.77 0.306 1.77 0 0.986 0.318 1.732 -0.832 2.6 -0.934 0.7 -3.532 1.664 -4.266 0.174 -0.6 -1.2 -1.4 -3.156 -1.52 -3.28 -0.538 -0.534 -0.974 -0.09 -0.924 0.326 0.032 0.518 0.154 1.026 0.362 1.502 0.46 1.084 0.79 2.22 0.984 3.38 0.504 1.944 0.536 0.824 0.92 2.264 6.764 25.496 8.718 27.6 8.856 28.722 1.31 10.584 1.512 9.844 -0.416 9.898v-0.02c-1.89 0.058 -0.662 3.176 -10.654 -34.746 -1.818 -6.904 -0.6 -1.71 -2.33 -8.57 -0.012 -0.046 -1.8 -8.312 -1.774 -8.954a0.75 0.75 0 0 1 0.812 -0.644c1.026 0.086 -0.494 1.534 1.442 3.63Zm10.128 14.586c0.2 2.69 1.098 13.862 1.664 16.518 -0.6 1.22 -6.506 -21.262 -6.506 -21.462 -0.15 -0.574 -0.108 -0.676 0.4 -0.666 4.596 0.084 3.638 -5.278 4.442 5.61Zm-6.632 53.68c-1.706 -2.464 -1.722 0.378 10.286 -15.264 0.6 -0.784 0.8 -0.088 1.4 1.154a173.146 173.146 0 0 1 -11.686 14.11Zm12.064 -7.888c-2.772 6.068 -5.748 5.76 -9.536 12.124 -0.586 0.984 -0.48 1.8 -1.132 2.452a31.868 31.868 0 0 1 -1.362 -3.748c-0.496 -1.032 0.27 0.044 10.744 -13.318 0.55 -0.702 0.716 0.558 1.286 2.49Zm-38.57 6.498a54.88 54.88 0 0 1 8.288 0.24c0.048 0 6.464 0.378 6.926 0.384 2.116 0.028 2.4 -0.444 4.2 -0.416 3.63 0.058 4.954 -1 5.212 1.6 0.042 0.43 -0.094 0.63 -0.57 0.626 -9.698 -0.064 -4.768 0.368 -21.372 0.214 -10.752 -0.1 -9.374 0.784 -10.094 -2.228 -0.23 -0.954 -0.308 -0.676 7.41 -0.42Zm84.354 27.71a29.68 29.68 0 0 1 -6.478 -2.228c-5.21 -2.44 -6.224 -2.326 -8.6 -4.384 -1.6 -1.382 -3.116 -2.818 -4.84 -4.068a8.786 8.786 0 0 1 -0.974 -0.928c-4.342 -4.144 -4.2 -3.75 -5.8 -6.442 -2.732 -4.57 -3.674 -7.764 -8.096 -9.27 -0.652 -0.222 -0.666 -0.722 -0.672 -1.89 -0.014 -3.106 -0.034 -5.894 0.06 -6.436 0.08 -0.47 0.37 -0.526 0.852 -0.47 0.4 0.048 1.104 0.316 1.2 0.624a23.98 23.98 0 0 1 -0.216 3.972c-0.016 4.694 5.08 2.744 10.8 10.972 1.986 2.854 3.276 4.228 9.686 8.99a24.754 24.754 0 0 0 7.788 4.25c2.86 0.994 5.826 1.644 8.84 1.934 3.474 0.018 6.912 0.692 10.136 1.982 1.648 0.73 3.216 1.626 4.68 2.676a0.68 0.68 0 0 1 0.278 0.582 0.696 0.696 0 0 1 -0.324 0.558c-1.652 0.704 -1.22 1.828 -4.554 4.616 -0.788 0.66 -1.742 0.662 -4.774 1.074 -0.904 0.124 -0.586 0 -1.736 -1.952a11.89 11.89 0 0 0 -7.256 -4.162Zm0.24 -76.092c0.044 -1.33 6.928 -0.916 8.258 -0.8 1.74 0.122 3.456 0.466 5.108 1.024 1.028 0.364 1.282 0.836 0.632 1.11v-0.02c-2.984 1.268 -14.03 -0.288 -13.998 -1.314Zm10.71 2.94c3.74 -0.138 4.488 -1.116 4.4 0.134 -0.062 1 -0.292 1.6 -0.932 1.772a15.446 15.446 0 0 1 -5.232 0.486c-8.8 -0.756 -8.18 -0.55 -9.894 -1.926a1.69 1.69 0 0 1 -0.32 -2.226c0.2 -0.19 0.52 -0.102 0.89 0.128 1.938 1.206 8.174 1.74 11.088 1.632Zm17.612 30.61c-3.272 0.414 -3.2 0.6 -4.284 0.318 -1.084 -0.282 -3.6 -0.39 -5.118 -0.6 -0.774 -0.112 -2.67 -1.298 -1.074 -2.544 0.698 -0.546 1.306 -1.178 2.2 -0.89 1.828 0.588 1.812 -5.674 3.176 -7.584 0.6 0.81 -0.278 -0.51 1.022 4.874 0.78 3.238 0.036 1.952 4.082 3.646a1.194 1.194 0 0 1 0.832 1.248c-0.24 1.116 -0.19 1.446 -0.836 1.532Zm-3.38 4.106c-0.486 0.094 -0.832 -0.092 -0.84 0.124 -6.8 -1.098 -7.218 -1.322 -7.742 -3.454 -0.274 -1.112 1.24 0.2 2.252 0.416 1.498 0.318 4.662 0.55 5.222 0.682 1.812 0.426 4.4 -0.666 4.48 -0.32 0.516 2.092 0.07 1.882 -3.372 2.56v-0.008Zm-1.6 -18.016c-0.942 0.058 -1.096 0.974 -1.628 2.776 -1.428 4.848 -1.212 5.232 -2.4 5.732a6.244 6.244 0 0 0 -4.428 4.8c-0.728 3.15 2.36 3.654 0.74 6.48 -2.524 4.4 0.02 -0.264 -5.106 8.8 -0.624 1.104 -0.69 1.276 -1.416 0.712 -0.864 -0.668 -1.032 -0.55 -0.79 -1.54a151.67 151.67 0 0 0 2.976 -15.764c0.222 -1.346 1.072 -1.478 1.876 -3.172 1.692 -3.56 2.1 -3.268 8.87 -13.132 3.246 -4.726 3.14 -4.932 3.71 -3.892a41.91 41.91 0 0 1 2.92 7.576c-0.366 1.286 0.374 0.038 -2.718 5.032 -1.592 2.562 -0.18 -4.556 -2.602 -4.408h-0.004ZM175.8 251.834c-1.702 -0.672 -3.332 -1.526 -4.972 -2.34a1.69 1.69 0 0 1 -0.942 -1.614c0.072 -1.29 -0.156 -2.724 0.616 -2.156a46.826 46.826 0 0 0 10.102 4.292c14.566 4.754 18.674 1.302 18.4 3.5h-0.032c-1.67 6.54 -1.898 9.928 -2.84 10.214 -1.1 0.046 -2.2 -0.126 -3.234 -0.508a0.526 0.526 0 0 1 -0.1 -0.416c0.314 -0.932 1.074 -4.844 1.146 -5.464 0.33 -2.96 -2.544 0.658 -18.144 -5.508Zm16.688 6.102c-1.352 5.708 -0.96 5.574 -2.2 5.174 -7.888 -2.534 -11.474 -5.93 -16.77 -10.2 -0.078 -0.064 -0.072 -0.228 -0.1 -0.346a0.992 0.992 0 0 1 0.288 0c16.784 6.054 19.294 3.898 18.778 5.372h0.004Zm-12.3 -15.922c2.022 0.454 2.484 -0.76 3.688 0.388a3.362 3.362 0 0 0 3.958 0.096c0.554 -0.388 0.554 -0.388 1 0.128a4.13 4.13 0 0 0 5.112 0.73 0.692 0.692 0 0 1 0.498 -0.168 0.724 0.724 0 0 1 0.258 0.072c0.08 0.042 0.152 0.098 0.21 0.166 2.828 2.166 3.432 -0.082 4.712 0.748 1.626 1.058 1.79 2.78 0.442 3.328 -4.362 1.782 -18.2 -2.012 -20.2 -2.744a23.88 23.88 0 0 1 -7.106 -3.38c-1.738 -1.07 -2.346 -3.356 -0.32 -3.746 1 -0.2 4.332 -0.628 4.554 0.458 0.54 2.64 1.662 3.582 3.19 3.924h0.004Zm-1.586 -4c0.612 -3.718 0.516 -4.236 1.25 -4.134 3 0.412 3.472 0.362 3.316 1.24 -1.012 5.754 -1.042 6.042 -2.622 5.448a2.516 2.516 0 0 1 -1.946 -2.544l0.002 -0.01Zm5.528 0.466c0.506 -3.286 0.354 -3.84 1.336 -3.71 3.102 0.4 3.29 0.468 3.188 1.154 -0.436 2.948 -0.282 3.292 -1.586 5.144a1.784 1.784 0 0 1 -2.434 0c-0.9 -0.786 -0.678 -1.468 -0.508 -2.578l0.004 -0.01Zm10.264 0.552a2.17 2.17 0 0 1 -0.304 0.974c-0.628 1.49 -0.856 2.348 -1.8 2.262a7.458 7.458 0 0 1 -1.718 -0.272 1.748 1.748 0 0 1 -1.066 -1.74c0.728 -5.174 0.522 -4.676 2.114 -4.55 4.752 0.392 2.354 0.056 2.78 3.336l-0.006 -0.01Zm1.296 1.9c0.146 -4.846 0.382 -4.74 1.314 -4.63 3.086 0.362 3 0.07 3.084 1.086h-0.032c-0.334 1.378 -0.6 2.776 -0.99 4.126a1.74 1.74 0 0 1 -2.97 0.552 1.74 1.74 0 0 1 -0.41 -1.124l0.004 -0.01Zm-18.158 4.62a27.28 27.28 0 0 0 7.452 2.156c7 1.476 11.224 2.498 15.738 1.064 0.452 -0.142 0.8 -0.256 0.832 0.28 0.154 2.452 -2.518 2.242 -5.016 2.248 -6.938 0.014 -21.336 -3.248 -26.548 -7.938 -0.86 -0.774 -0.724 -2.582 -0.308 -2.71 0.138 -0.042 0.346 0.154 0.52 0.25 0.634 0.358 0.056 1.642 7.326 4.66l0.004 -0.01Zm20.692 17.254c1.068 -3.854 2.094 -10.27 3.118 -10.412 1.466 -0.2 2.176 -3.624 1.782 -5.2 -0.2 -0.8 -0.866 -0.91 -0.058 -2.292 3.424 -5.854 4.886 -8.816 4.852 -7.51a67.98 67.98 0 0 1 -1.328 10.902c-3.2 7.628 -4.438 9.6 -5.46 14.24 -0.384 1.74 -0.134 1.35 -1.736 1.286a2.5 2.5 0 0 1 -0.516 -0.08c-0.698 -0.16 -0.848 -0.24 -0.658 -0.924l0.004 -0.01Zm3.984 -44.582c-3.72 -0.4 -3.4 0.878 -1.6 -6.614 0.066 -0.196 0.156 -0.386 0.266 -0.562 0.836 -1.6 1.752 -1.898 3.304 -1.028 0.96 0.538 0.714 1.424 0 4.894 -0.768 3.704 -0.842 3.444 -1.978 3.32l0.008 -0.01Zm13.774 -13.682h-0.022a107.122 107.122 0 0 1 -8.558 12.222c-2.972 3.974 -2.454 4.532 -2.972 3.53a53.86 53.86 0 0 0 1.758 -8.95c0.152 -3.146 -2.468 -2.42 -1.274 -3.8 4.046 -4.666 4.326 -5.288 5.706 -5.02 5.98 1.186 5.98 1.088 5.358 2.028l0.004 -0.01ZM190.8 200.264c0.44 -1.648 0.658 0.012 3.182 0.25 7.838 0.74 8.342 1.062 11.322 0.246 1.178 -0.322 0.67 0.018 1.664 1.444 0.5 0.718 0.238 0.578 -3.696 5.412v-0.028c-0.84 1.028 -1.254 -0.12 -2.764 1.4 -0.624 0.628 -0.6 0.2 -1.4 -0.87a2.82 2.82 0 0 0 -1.936 -1.062 2.834 2.834 0 0 0 -2.11 0.646 12.12 12.12 0 0 1 -0.97 0.832c-0.492 -0.382 -0.124 0.028 -0.778 -1.074 -1.44 -2.424 -3.918 -0.612 -3.964 -0.612 -0.8 0.32 -0.8 0.666 -2.136 -0.832 -0.272 -0.306 0.718 -1.66 0.976 -1.97 1.354 -1.616 2.078 -1.75 2.61 -3.782Zm8 11.626c-0.286 1.666 -0.552 3.33 -0.878 5 -0.136 0.698 0.15 0.932 -3.6 0.37 -1.352 -0.2 -1 -0.624 -0.188 -3.68 0.838 -3.164 0.742 -3.564 1.766 -4.578 1.26 -1.25 2.88 0.54 2.822 1.926h-0.032c-0.044 1.072 -0.09 0.922 0.11 0.962Zm-6.062 -1.164c-0.386 2.776 -0.258 2.098 -0.824 5.368 -0.162 0.938 -0.26 0.758 -3.352 0.158 -0.68 -0.132 -0.644 -0.644 -0.558 -1.248 0.55 -3.87 0.358 -6.508 2.912 -7.2 1.182 -0.322 1.82 1.61 1.82 2.922h0.002Zm-5.346 -1.242c-0.788 6.436 -0.63 6.436 -2.086 6.27 -2.09 -0.24 -2.664 -0.214 -2.538 -1.2 0.36 -2.872 1.016 -7.63 3.268 -7.08 1.742 0.418 1.182 1.99 1.364 2.01h-0.008Zm1.084 8.11a44.92 44.92 0 0 0 7.56 1.182 57.86 57.86 0 0 0 6.382 0.644c1.47 -0.13 -0.126 3.614 -2 15.294 -0.142 0.88 0.17 0.556 -11.516 -0.654 -0.486 -0.05 -0.6 -0.092 -5.6 -1.028 -5.466 -1.024 -4.894 0.64 -1.664 -15.288 0.31 -1.5 0.204 -1.178 6.836 -0.144l0.002 -0.006Zm-10.292 10.784h-0.02c-1.112 5.836 0.484 3.332 -0.662 7.218 -0.1 0.338 -0.254 0.366 -1.088 0.336 -3.058 -0.724 -4.6 1.134 -5.294 -0.386 -1.866 -4.108 -1.19 -6.66 0.854 -10.4 1.516 -2.78 1.936 -3.088 5.524 -4.03 0.336 -0.084 0.682 -0.114 1.028 -0.092 1.404 0.06 0.972 0.428 -0.344 7.354h0.002Zm-8.104 8.858h-0.022c-0.02 0.374 -0.57 0.724 -0.864 1.078a5.508 5.508 0 0 0 -0.904 5.712c0.508 0.776 0.732 0.2 0.12 2.342a0.546 0.546 0 0 1 -0.416 -0.034c-4.894 -4.34 -4.986 -3.566 -4.894 -4.96a5.79 5.79 0 0 1 2.302 -4.134c1.322 -0.884 3.548 -2.534 4.054 -1.362 0.202 0.466 0.656 0.922 0.622 1.358h0.002Zm39.178 37.6c1.96 -3.638 2.952 -2.568 3.026 -3.63 0.2 -2.988 -6.62 -5.946 -9.534 -6.842 -0.4 -0.124 -0.424 -0.4 -0.34 -0.732 1.896 -7.562 2.2 -6.258 5.574 -14.516 0.812 -3.292 1.248 -6.666 1.302 -10.056 0.8 -10.74 -1.49 -4.35 8.708 -5.54 2.956 -0.346 2.694 -3.352 0 14.38h-0.022c-0.168 1.086 -0.154 1.16 -1.248 1.262a11.66 11.66 0 0 1 -5.73 -0.416c-0.588 -0.244 -0.758 0.458 -0.568 0.74 0.706 1.044 3.334 1.416 4.742 1.274 3.772 -0.378 2.65 -2.88 0.574 23.186 -0.116 1.468 0.18 1.274 -6.064 1.69 -0.188 0.012 -0.546 -0.06 -0.546 -0.134a1.124 1.124 0 0 1 0.124 -0.658l0.002 -0.008Zm9.056 -13.136c1.9 -22.4 1.888 -21.614 3.456 -20.6 4.094 2.664 22.656 3.2 27.548 3.414 5.272 0.23 6.92 0.542 10.084 -0.526 1.06 -0.358 0.964 -0.236 0.964 1.012 -0.112 1.8 -0.064 2.628 -2.34 7.384a52.11 52.11 0 0 1 -4.5 8.296 61.064 61.064 0 0 0 -4.162 8.938c-0.296 0.948 0.072 0.292 -12.676 2.538 -0.042 0 -7.946 1.246 -17.27 2.326 -3.032 0.368 -2.346 1.874 -1.106 -12.774l0.002 -0.008Zm38.304 -42.634c-0.744 -0.528 -0.76 -0.298 0.38 -3.554 0.7 -2 0.438 0.324 10.486 3.03 3.168 0.854 3.466 -2.154 -0.836 11.444 -4.902 15.494 -4.618 13.564 -4.618 9.688h0.062c0.38 -9.692 1.792 -15.434 -5.476 -20.6l0.002 -0.008Zm1.436 -19.042c4.1 -2.25 11.33 -0.57 15.214 2.018a18.654 18.654 0 0 1 4.238 3.292 2.506 2.506 0 0 1 -0.616 4.084c-5.904 2.814 -24.794 -6.12 -18.838 -9.386l0.002 -0.008Zm-3.158 11.634c0.906 -2.836 0.374 -3.058 1.322 -2.756 1.074 0.342 1.4 -0.658 0.658 -1.248a2.764 2.764 0 0 1 -1 -2.586c0.124 -0.298 0.27 -0.6 0.416 -0.894 0.272 0.12 0.524 0.278 0.75 0.47 2.8 3.114 10.066 5.642 13.174 6.2a11.856 11.856 0 0 0 6.244 0.08c0.2 -0.026 0.528 -0.052 0.566 0.026a1.002 1.002 0 0 1 0.02 0.662c-0.75 2.358 -2.178 2.254 -4.078 2.4a23.714 23.714 0 0 1 -7.956 -1.762c-3.942 -1.868 -2.368 2.548 9.088 3.746 1.276 0.134 0.696 0.504 -0.272 3.788 -2.6 8.844 -2.342 9.016 -3.6 10.044 -3 2.474 -4.17 6.99 -0.97 -3.678s3.188 -7.954 -1.53 -9.072c-10.666 -2.522 -10.332 -6.122 -11.782 -2.658 -1.124 2.688 -1.132 3.438 -1.902 3.07 -1.378 -0.662 -0.72 -0.92 0.85 -5.824l0.002 -0.008Zm-3.848 -25.912c-0.266 0.8 -8.706 0.2 -9.136 -1.152 -0.398 -1.232 9.47 0.152 9.134 1.16l0.002 -0.008Zm-10.634 0.174c0.122 -0.564 0.322 -0.562 0.77 -0.148 0.72 0.544 1.572 0.888 2.468 1 9.052 2.212 9.026 -2.968 8.092 4.69 -0.254 2.078 -5.532 0.626 -7.518 0.576a0.65 0.65 0 0 0 -0.566 0.504 0.644 0.644 0 0 0 0.304 0.696c5.082 2.244 6.116 1.414 5.956 2.66 -0.086 0.684 -0.464 0.542 -3.84 0.832a14.13 14.13 0 0 1 -4.75 -1.048c-1.678 -0.588 1.162 -3.956 -0.916 -4.966 -0.802 -0.392 -0.814 -0.996 -0.002 -4.788l0.002 -0.008Zm-0.458 14.322c0.388 -2.518 -0.068 -3.466 1.456 -2.85a16.256 16.256 0 0 0 7.548 0.838c1.814 -0.072 0.17 1.838 -0.15 14.282 -0.038 1.49 -0.162 1.25 -4.704 2.086a13.7 13.7 0 0 1 -5.358 -1.868c-0.984 -0.494 -0.646 -0.454 1.206 -12.48l0.002 -0.008Zm-7.68 17.09c4.582 -1.554 4.492 -3.436 5.96 -2.826 2.58 1.464 5.582 2 8.508 1.518 1.946 -0.384 2.27 -0.788 2.944 -0.1a19.872 19.872 0 0 0 5.468 4.076c7.49 5 5.872 9.916 5.4 19.936a2.828 2.828 0 0 1 -2.384 2.946 15.618 15.618 0 0 1 -4.842 0.492c-11.538 -0.684 -17.614 -0.464 -28.8 -2.672a4.084 4.084 0 0 1 -3.23 -4.626c1.6 -10.454 0.566 -15.21 10.974 -18.736l0.002 -0.008Zm2.4 -37.43c1 0.504 1.762 0.4 1.328 1.52a7.688 7.688 0 0 1 -2.044 3.026 10.656 10.656 0 0 1 -6.956 3.276c-4.6 0.522 -4.232 1.904 -6.43 1.764 -1.7 -0.106 -1.956 -1.58 -3.246 -3.374a0.632 0.632 0 0 1 -0.164 -0.472 0.66 0.66 0 0 1 0.218 -0.448c0.948 -1.06 1.554 -2.368 2.912 -2.97a9.506 9.506 0 0 0 3.226 -1.976 31.674 31.674 0 0 1 3.33 -3.746c0.462 -0.48 1.034 -0.84 1.666 -1.05 1.048 -0.108 1.746 0.834 2 1.024 1.122 0.846 1.144 1.902 4.16 3.434v-0.008Zm-17.538 10.498h-0.02c-1.46 1.586 -1.708 1.152 -2.2 0.614a21.746 21.746 0 0 0 -4.496 -4.28c-0.908 -0.538 -0.132 -2.4 1.908 -2.368 0.942 0.326 1.786 0.88 2.46 1.616 1.07 0.72 1.932 1.706 2.498 2.864 0.462 0.684 0.416 0.942 -0.15 1.554Zm2.71 -24.43c1.12 -1.654 3.912 -2.498 4.28 -0.412 0.496 2.818 6.014 1.642 7.046 4.032 0.552 1.28 1.576 2.294 2.86 2.836 0.73 0.366 1.132 0.28 0.928 1.614a5.952 5.952 0 0 1 -1.6 2.898c-0.692 0.708 -0.658 -0.786 -3.218 -2.284a2.8 2.8 0 0 0 -3.162 0.232 9.636 9.636 0 0 0 -3.2 3c-0.696 1.298 -1.436 1.926 -4.42 3.446 -2.506 1.276 -3.13 3.742 -4.088 2.86 -0.866 -0.8 -1.032 -0.724 -0.444 -1.8 1.748 -3.214 2.158 -4.318 2.018 -5.642 -0.51 -4.81 0.844 -7.104 3 -10.78Zm-10.01 5.904c0.442 -2.376 -0.158 -4.4 1.906 -8.57 0.61 -1.23 1.15 -0.48 5 0.96 1.132 0.422 2.028 0.732 0.986 2.676h-0.02c-3.63 6.776 -1.636 10.094 -2.49 11.6 -2.07 3.656 -1.848 4.338 -2.914 4.2 -1.8 0.016 -0.4 -0.282 -1.224 -5.54 -0.306 -2 -1.618 -3.31 -1.244 -5.326Zm-0.762 8.514a26.1 26.1 0 0 1 -3.87 -9.456c-0.574 -2.978 -0.492 -3.638 -0.284 -4 0.284 -0.324 0.65 -0.564 1.062 -0.692 1.682 -0.52 3.6 -1.418 3.172 0.212a47.374 47.374 0 0 0 -0.8 6.324c-0.154 1.84 1.4 2.556 1.586 6.904 0.058 1.12 -0.008 2.244 -0.866 0.708Zm-19.938 10.956c0.714 -0.656 1.464 -1.27 2.248 -1.84 10.56 -6.756 14.532 -3.824 14.53 -3.746 0 0.218 -0.144 0.258 -1.472 0.574 -1.328 0.316 -3.958 2.452 -3 3.284 0.368 0.318 0.708 0.146 1.02 -0.124 1.624 -1.4 1.032 -1.496 4.778 -2.176 2.22 -0.4 5.8 3.86 7.244 5.448 1.6 1.762 -1.23 5.172 0.374 5.458 0.662 0.116 0.904 -0.372 1.352 -2.386 0.4 -1.774 0.014 -2.502 0.814 -2.118a14.426 14.426 0 0 1 6.184 4.36c2.022 3.17 0.984 -0.052 3.818 7.634a15.92 15.92 0 0 1 -1 6.922 12.692 12.692 0 0 0 -1.066 4.8c0.272 3 -1.176 2.184 -2.704 5.93 -0.468 1.146 -0.438 0.682 -3.086 -0.212 -4.2 -1.416 4.6 -7.148 2.844 -11.272 -3 -7.03 -3.33 -9.236 -5.8 -9.728 -5.17 -1.026 -3.718 -1.4 -7.31 -0.928 -0.696 0.092 -0.814 0.058 -1.178 -0.536 -0.8 -1.318 2.078 -1.228 0 -6.048 -0.154 -0.358 -1.4 -0.904 -1.77 -1.016a29.056 29.056 0 0 0 -13.868 -0.746c-1.6 0.304 -3.638 3.334 -2.332 5.22a0.618 0.618 0 0 1 0.092 0.492 8.114 8.114 0 0 1 -1.094 2.556 11.822 11.822 0 0 0 -2.81 3.696c-0.478 1.186 -1.16 0.65 -2.152 1.756 -1.77 1.97 -1.726 3.568 -2.498 7.772 -0.154 0.836 -0.416 1.49 -1.316 4.47 -0.412 1.366 -0.702 0.236 -2.572 0.716 -3.11 0.8 -4.586 0.8 -6.66 4.488 -4.35 7.742 -0.628 8.976 -2.886 9.922 -5.72 2.4 -5.6 5.316 -6.526 7.294 -1.2 -0.692 -1.582 -0.928 -1.664 -1.686a11.246 11.246 0 0 1 0.216 -3.538c0.142 -0.678 1.182 -0.51 1.89 -0.454 0.632 0.052 1.016 -0.216 1.81 -1.286 1.892 -2.55 0.656 -3.618 2.876 -7.04 1.674 -2.576 1.548 -6.048 3.106 -7.842 6.868 -7.904 7.79 -6.12 12.2 -18.086 2.514 -6.824 2.194 -5.742 7.368 -9.984Zm-27.366 20.928c-0.73 0.01 -0.512 -0.246 -0.384 -0.384 1.444 -1.542 6.688 -2.108 11.424 0.814 0.554 0.512 -0.128 0.928 -0.544 1.248a48.694 48.694 0 0 0 -10.496 -1.678Zm12.514 -59.852a7.708 7.708 0 0 1 8.2 -0.748c1.064 0.41 2.05 1 2.914 1.744 8 8 2.48 25.696 1.326 36.214 -0.326 2.98 -3.108 3.2 -4.66 6.446 -2.39 5.016 -3.09 10.548 -7 15.09 -0.736 0.858 -0.732 0.84 -1.714 0.324 -8.706 -4.566 -14.696 -0.472 -13.87 1.146 0.714 1.4 1.126 0.076 10.926 2.06 0.736 0.148 0.8 0.374 0.322 0.974 -0.4 0.522 -0.838 1.014 -1.312 1.47 -2.69 2.5 -2.716 5.326 -3.776 8.278 -0.502 1.4 -1.53 3.122 -2.08 1.616a2.656 2.656 0 0 0 -2.2 -1.494c-1.178 0 -1.15 -1.24 -2.4 -1.574 -4.39 -1.174 -4.84 2.296 -5.6 2.172a0.28 0.28 0 0 1 -0.11 -0.042 0.292 0.292 0 0 1 -0.136 -0.188 0.3 0.3 0 0 1 -0.004 -0.118c8.172 -46.65 3.892 -19.294 8.096 -39.432 2.532 -12.118 4.56 -25.516 13.078 -33.938Zm-15.236 26.216c1.878 -0.302 1.966 -0.728 1.778 0.304 -1.736 9.61 -1.556 8.538 -1.8 8.77a16.492 16.492 0 0 1 -0.446 -4.912c-0.414 -4.22 -0.604 -3.998 0.468 -4.162Zm-9.516 -17.082c1 -1.644 2.9 -3.31 3.874 -1.666 0.504 0.866 0.878 1.8 1.112 2.772 0.312 0.854 1.682 0.216 2.128 -0.566 1.216 -2.14 4.382 -2.35 4.97 -0.342 0.366 1.254 0.046 1.972 1.434 1.962 1.452 -0.012 1.868 0.8 1.544 1.79 -3.064 9.246 -1.97 10.906 -5.8 11.684 -0.532 0.108 -0.71 -0.018 -0.772 -0.554 -0.6 -5.124 -0.686 -3.066 2.276 -5.54 1.35 -1.128 0.516 -3.21 -1.982 -0.616 -1.31 1.36 -2.048 0.384 -3.296 0.178 -0.766 -0.126 -0.8 1.284 0.482 1.8 0.712 0.284 0.814 0.4 1.07 4.4 1.32 20.442 1.072 17.464 -0.74 24.834 -0.46 1.868 -0.012 -2.766 -0.304 -8.954 -0.012 -0.234 -0.12 -0.65 -0.45 -0.65 -0.112 0.01 -0.42 -0.042 -0.528 0.672a11.976 11.976 0 0 0 -0.122 1.494c-0.518 20.9 0.156 14.85 -1.844 24.372 -0.096 0.46 0 0.27 -0.512 0.944a37.292 37.292 0 0 1 -1.148 -7.2c1.2 -5.212 2 -36.626 2.498 -38.512 0.664 -2.554 -4.932 -0.224 -4.516 1.108a1.284 1.284 0 0 0 1.952 0.092c0.194 -0.12 0.408 -0.2 0.632 -0.246 0.094 0.24 0.16 0.49 0.2 0.746 0.046 0.724 -0.082 1.748 -0.786 2 -0.704 0.252 -0.874 0.876 -1.088 1.19 -1.108 1.63 -3.022 1.344 -3.582 -1.632 -1.222 -6.468 -0.448 -3.234 2.776 -5.278a6.32 6.32 0 0 0 2.08 -7.864c-0.72 -1.946 -2.306 -1.19 -1.558 -2.418Zm0.484 44.464c0 -1.884 -0.466 4.46 -3.034 -23.024 -0.054 -1.872 -0.054 -1.854 1.332 -1.782 2.124 0.112 2.956 -2.226 3.106 -1 0.192 1.574 -1.12 23.948 -1.404 25.806Zm-15.846 -44.06c0.08 -0.3 0.142 -0.606 0.188 -0.914a1.742 1.742 0 0 1 2.4 -1.342c4 1.668 0.916 -0.578 2.698 -1.63a2.188 2.188 0 0 1 2.082 -0.234c0.928 0.388 0.448 3.284 2.08 2.016a3.348 3.348 0 0 1 2.68 -1.362 0.96 0.96 0 0 1 1.03 0.716 4.284 4.284 0 0 1 -0.046 3.526c-0.422 0.762 -0.05 1.642 1.066 1.382 0.732 -0.172 0.948 -0.096 1.248 0.548 2.158 4.658 -3.966 7.826 -4.188 5.586a4.588 4.588 0 0 1 0.026 -2.758 0.922 0.922 0 0 0 -0.23 -0.812c-0.38 -0.4 -0.724 0.162 -2.526 1.132a0.686 0.686 0 0 0 0.2 1.324c1.344 -0.1 0.94 1.018 1.426 4.708 0.756 5.71 0.75 4.424 1.28 10.09 2.086 22.4 1.918 16.05 4.612 34.236 1.138 7.696 0.554 5.272 1.136 6.936a0.686 0.686 0 0 1 -0.1 0.792 0.684 0.684 0 0 1 -0.23 0.162v-0.022c-1.568 0.846 -0.926 0.948 -2.664 -4.214 -0.102 -0.302 -0.224 -0.776 -0.64 -0.654 -0.968 0.286 1.482 6.178 0.648 8.122s0.84 2.716 -0.2 3.876c-0.314 0.35 -0.614 0.716 -0.92 1.078 -0.578 -0.26 -0.446 -0.906 -0.686 -1.324 -0.762 -1.332 1.142 -1.636 0.496 -3.834a16.77 16.77 0 0 1 -1.09 -5.574c-0.542 -6.148 -1.382 -11.138 -3.118 -25.132 -0.812 -6.53 -2 -36.324 -3.842 -29.85 -0.478 1.664 1.282 6.614 -0.292 7.458 -0.322 0.174 -0.476 0.6 -0.74 0.858 -0.912 0.918 -2.144 0.832 -2.914 -0.832 -0.844 -1.824 -1.224 -0.462 -2.744 -0.678 -1.248 -0.178 -1.38 -1.644 -1.248 -2.914 0.074 -0.712 1.262 -0.422 5.182 -3.184 1.786 -1.26 0.926 -4.372 -0.584 -6.032 -0.604 -0.652 -1.706 -0.384 -1.476 -1.25Zm-27.226 4.138c0.284 -1.094 0.482 -3.25 2.26 -2.842 0.538 0.122 1.104 0.134 1.624 0.3 0.87 0.276 1.264 -0.474 0.97 -1.35 -1 -2.962 0.77 -4.84 2.44 -3.746 0.54 0.482 1.01 1.036 1.4 1.644 1.248 1.25 -1.012 2.032 1.124 4.784 1.014 1.306 3.024 0.168 1.328 -0.834a1.662 1.662 0 0 1 0.312 -3c2.2 -0.948 2.932 -0.75 3.026 -2.322 0.102 -1.67 0.3 -2.512 1.856 -2.956 1.122 -0.32 2.08 -0.158 2.914 2.028 0.682 1.78 1.83 -0.062 2.832 -0.654 1.844 -1.092 5.2 2.246 3.13 5.116 -0.356 0.492 -0.758 0.974 -0.416 1.6 0.624 1.124 2.614 -0.16 3.276 1a3.16 3.16 0 0 1 0.416 2.6 13.366 13.366 0 0 1 -5.2 3.092c-0.708 0.16 -1.44 0.194 -2.16 0.1 -0.334 0 -0.76 -0.974 -0.72 -1.486 0.09 -1.178 1.386 -0.95 1.76 -0.978 0.862 -0.062 1.418 -1.2 0.504 -1.52 -2.092 -0.718 -3.082 0.762 -3.858 1.666 -0.706 0.82 -1.158 0.33 -2.498 0.146 -1.09 -0.15 -0.674 1.418 0.158 1.536 3.914 0.552 2.33 -1.574 4.474 9.2 0.446 2.242 6.302 24.366 6.302 24.42 6.038 23.048 6.672 22.02 5.09 22.128v-0.02c-1.82 0.12 -1.578 0.51 -3.586 -7.848 -2.494 -10.384 -2.632 -10.454 -3.18 -10.248 -0.634 0.236 0.062 3.05 0.22 3.52 0.866 2.576 0.646 3.4 2.814 12.33 0.458 1.89 1.074 2.386 0.158 2.648 -2.142 0.61 -1.498 0.84 -3.8 -9.342 -4.156 -18.312 -2.638 -14.684 -6.66 -29.462 -0.092 -0.338 -2.336 -8.68 -2.356 -9.024a29.194 29.194 0 0 0 -1.694 -6.182 1.52 1.52 0 0 0 -0.8 -0.286c-0.176 0.024 -0.416 0.4 -0.416 0.6 0 1.212 1.072 2.224 -0.472 3a0.83 0.83 0 0 1 -1.014 -0.18c-0.416 -0.518 -1.412 -0.348 -1.474 -1.298 -0.2 -2.964 -2.55 -1.958 -3.218 -1.182 -1.81 2.098 -2.418 2.912 -3.716 2.518 -1.508 -0.458 -1.54 -2.572 -0.784 -3.554 0.98 -1.274 1.432 -1.678 1.524 -2.19 0.318 -1.782 -1.832 -0.732 -2.182 -0.67 -1.454 0.252 -1.382 -1.036 -1.708 -2.802ZM84.712 188.742c-1.66 -0.188 -3.8 1.228 -3.05 -1.302 1.674 -5.682 1.574 -6.6 3.566 -6.6 1.232 0.148 2.45 0.39 3.644 0.724 4.902 0.588 9.96 9.64 10.03 7.048 0.038 -1.366 -0.912 -1.552 -8.4 -11.656 -0.466 -0.628 -0.832 -1.04 -0.2 -1.482 3.446 -2.434 4.654 -3.478 5.528 -2.646a9.724 9.724 0 0 1 2.826 4.038c1.938 4.12 0.98 1.388 1.878 8.906 0.078 0.656 0.18 1.2 0.832 1.362 1.6 0.4 -0.762 -13.274 -0.766 -13.49 -0.014 -0.892 0.55 -1.488 1.424 -1.25 1.47 0.182 2.896 0.62 4.216 1.29 1.644 1.134 1.158 1.212 1.8 2.186 0.524 0.8 0.502 0.78 -0.228 1.478 -4.148 3.978 -1.486 6.846 -2.412 8.554 -1.81 3.34 -0.862 5.42 -2.4 5.666 -1.456 0.542 -2.858 1.22 -4.188 2.022 -1.748 0.912 -1.516 -3.422 -14.1 -4.848Zm14.846 8.63c-0.944 -1.306 -1.184 -1.66 0.376 -2.498 3.35 -1.8 5.84 -3.4 6.496 -0.674a0.876 0.876 0 0 1 -0.714 1.178 45.04 45.04 0 0 0 -5.446 2.494c-0.26 -0.132 -0.5 -0.3 -0.712 -0.5Zm-3.338 15.078c4.224 -7.636 26.47 -10.824 18.98 -4.162a26.846 26.846 0 0 1 -10.078 5.174c-1.948 0.468 -3.926 0.804 -5.92 1.01 -0.972 0.128 -3.842 -0.472 -2.982 -2.022Zm-0.124 3.762c-0.776 -1.358 1.644 0.58 7.104 -0.55 12.642 -2.616 14.632 -9.05 15 -7.226a3.78 3.78 0 0 1 -0.542 3.45 12.182 12.182 0 0 1 -3.566 2.8 30.8 30.8 0 0 1 -13.558 3.854c-2.124 -0.418 -3.284 -0.306 -4.438 -2.328Zm3.864 41.616c-3.658 -4.13 -6.262 -6.222 -7.076 -17.862 -0.264 -3.778 1.6 -6.774 3.85 -11.68 1.464 -3.2 1.26 -8.66 2.148 -7.076 3.562 6.354 0.238 8.916 2.738 16.6a0.714 0.714 0 0 1 -0.216 0.832c-0.64 0.6 -3.372 2.6 -3.06 3.936 1.106 4.722 1.3 4.442 2.474 4.446 1.31 0 1.302 0.134 1.49 0.942 1.244 5.352 4.444 13.91 4.572 14.568 0.2 1.044 -1.348 0.4 -1.45 0.062 -0.242 -0.8 -0.916 -1.04 -1.49 -1.344a14.406 14.406 0 0 1 -3.98 -3.424Zm184.732 15.818c0.162 0.55 0.812 0.27 1.878 0.128 0.704 -0.094 0.76 -0.096 0.87 0.638 0.892 5.88 -0.46 43.918 -0.416 51.914 0.14 25.42 0.86 24.284 -1.636 25.35 -4.104 1.752 -2.19 -0.376 -73.678 19.148 -27.73 7.574 -11.974 7.234 -39.96 1 0 0 -48.95 -10.12 -58.274 -13.886 -13.29 -5.366 -11.484 5.87 -11.888 -24.9 -0.016 -1.22 -0.038 -31.218 -0.038 -31.248 1.456 -22.302 -1.572 -28.636 2.732 -29.524 0.722 -0.15 3.25 -0.284 3.4 -0.33 0.488 -0.154 1.034 -1.028 0.134 -1.31a50.5 50.5 0 0 0 -7.584 -2.06c-1.152 -0.344 -0.888 -0.888 -0.94 -4.218 0 -0.6 0.454 -0.736 1.044 -0.632 3.774 0.476 7.502 1.26 11.148 2.344 8.258 2.018 45.8 7.238 69.7 11.858 11.8 2.282 8.142 0.546 18.966 0.546 9.636 0 76.722 -10.756 86.714 -12.488 2.816 -0.488 1.894 0.122 2.086 4.236 0.082 1.962 -4.834 1.478 -4.258 3.434Zm40.164 -20.2c-0.032 -2.038 -0.2 -1.982 0.834 -2.038 0.782 -0.044 0.528 0.026 0.782 6.136 0.56 13.514 0.276 13.548 0.474 17.032 0.104 1.82 -0.726 1.486 -1.378 1.984 -0.6 0.456 -0.468 -0.284 -0.744 -4.052 -0.53 -7.228 0.106 -14.56 0.032 -19.06v-0.002Z" stroke-width="1"></path><path fill="#0a0430" d="M289.416 204.968c3.68 -0.088 3.544 0.694 3.128 3.064l-1.114 -0.238c0.154 -0.832 0.162 -1.4 -0.304 -1.49 -2.28 -0.452 -1.906 0.3 -1.97 1.128 -0.164 2.152 -3.038 19.108 -4.6 17.6 -0.488 -0.474 0.216 -1.782 0.266 -3.126 0.612 -3.308 0.772 -6.684 0.472 -10.036l1.046 -0.08c0.086 1.1 0.162 2.332 0.14 3.422 0.142 -0.324 0.25 -0.664 0.322 -1.012 0.108 -0.56 1.056 -5.79 1.16 -7.026 0.162 -1.84 0.038 -2.174 1.454 -2.206Z" stroke-width="1"></path><path fill="#0a0430" d="M286.944 237.186c0.742 0.674 0.386 0.938 -0.162 1.25 -0.68 0.384 -5.764 -0.832 -5.308 -2.178 0.31 -0.912 1.134 0.238 4.784 0.754a1.394 1.394 0 0 1 0.686 0.174Z" stroke-width="1"></path><path fill="#0a0430" d="M283.186 175c1.066 1.464 -6.078 3.838 -12.28 3.33 -2.456 -0.2 -3.668 0.466 -10.472 2.942 -1.126 0.4 -1.67 -0.578 -1.296 -0.948 0.732 -0.718 0.08 -0.414 7.91 -3.168 3.746 -1.318 8.172 1.154 14.864 -2.2 0.348 -0.178 0.812 -0.6 1.274 0.044Z" stroke-width="1"></path><path fill="#0a0430" d="M282.54 240.516c0.918 0.506 0.87 1.384 0.126 1.47a19.88 19.88 0 0 1 -6.62 -3.084c-1.622 -1.318 -3.454 -2.786 -3.62 -4.896 0.092 -0.366 0.17 -1.348 0.8 -1.332 0.63 0.016 0.668 0.762 0.704 1.2 0.126 1.478 1.746 2.862 3.072 3.88a22.94 22.94 0 0 0 5.538 2.762Z" stroke-width="1"></path><path fill="#0a0430" d="M280.2 246.074c0.85 0.834 0.12 1 -0.272 1.328 -1.984 -0.638 -1.412 -0.066 -6.13 -2.99 -0.334 -0.2 -1.154 -1.144 -0.912 -1.348 0.62 -0.524 0.834 -0.302 1.498 0.146a26.646 26.646 0 0 0 5.816 2.864Z" stroke-width="1"></path><path fill="#0a0430" d="M278.524 251.026c0.974 0.33 1.144 0.932 1.052 1.136 -0.814 1.822 -10.556 -3.82 -12.034 -7.266 -0.23 -0.542 0.416 -0.8 0.742 -0.642 1.184 0.6 3.054 4.346 10.24 6.772Z" stroke-width="1"></path><path fill="#0a0430" d="M275.96 256.88c2.106 0.748 1.044 1.872 0.29 1.664 -6.624 -1.826 -8.33 -3.714 -10.13 -5.386 -1.288 -1.2 -3.426 -3.23 -1.694 -3.256 0.912 0.604 1.75 1.312 2.496 2.112a19.452 19.452 0 0 0 9.038 4.866Z" stroke-width="1"></path><path fill="#0a0430" d="M274.874 140.782c0.562 0.212 0.8 1.97 -3.49 2.968a12.52 12.52 0 0 0 -5.848 2.4c-4.284 3.37 -6.096 2.97 -9.116 6.09 -3.884 4.014 -11.388 8.36 -16.234 11.142 -1.866 1.072 -2.622 -0.646 -0.952 -1.526 4.2 -2.218 12.048 -7.354 12.246 -7.494a32.386 32.386 0 0 0 4.616 -4.112c2.772 -2.764 4.748 -2.426 8.742 -5.616 2.67 -2.132 4.63 -1.96 8.108 -3.13 0.524 -0.174 1.278 -0.968 1.928 -0.722Z" stroke-width="1"></path><path fill="#0a0430" d="M270.22 206.092c0.036 0.484 -1.042 0.6 -1.486 0.478 -3.44 -0.966 -3.522 -1.218 -4.068 -1.684a1.644 1.644 0 0 1 -0.65 -1.78 1.658 1.658 0 0 1 1.45 -1.22c0.232 -0.054 0.474 -0.076 0.856 -0.13 1 0.296 2.446 0.528 2.036 1.228 -0.308 0.528 -1.414 0.146 -1.714 0.112 -1.27 -0.14 -1.356 0.4 -1.032 0.712 0.51 0.502 0.588 0.504 3.684 1.554 0.09 0.024 0.872 0.038 0.924 0.73Z" stroke-width="1"></path><path fill="#0a0430" d="M254.372 225.174c2.332 -0.624 2.532 1.8 -3.122 1.848 -7.558 -0.526 -14.48 -0.734 -18.73 -1.848 -7.11 -1.866 -4.572 -5.416 -3.888 -3.984 1.886 3.948 16.622 3.544 20.52 4.212 1.736 0.3 3.516 0.224 5.22 -0.228Z" stroke-width="1"></path><path fill="#0a0430" d="M250.66 253.6c1.448 0.328 0.862 1.68 -0.18 1.664 -1.79 -0.026 -3.632 -1.772 -6.16 0.37 -3.75 3.178 -3.534 1.84 -4.246 -1.028 -0.54 -2.176 -2.176 -0.2 -4.948 2.274 -3.3 2.952 -3.446 3.464 -4.164 3.114 -1.574 -0.772 0.958 -9.432 -1.372 -7.856 -6.768 4.58 -5.77 5.57 -6.2 5.69a1.37 1.37 0 0 1 -0.742 0.108c-0.138 -0.046 -0.262 -0.416 -0.232 -0.6 0.222 -0.988 0.738 -1.886 1.482 -2.574 2.672 -2.826 7.456 -6.708 8.112 -2.884 0.15 0.892 0.172 1.8 0.062 2.698 0 3.218 -0.352 3.22 2.79 0.416a19.05 19.05 0 0 1 3.33 -2.772 2.22 2.22 0 0 1 1.898 -0.194 2.184 2.184 0 0 1 1.336 1.36c0.614 1.8 0.042 2.4 2.288 0.64 2.246 -1.76 3.982 -1.09 6.946 -0.426Z" stroke-width="1"></path><path fill="#0a0430" d="M245.248 115.15a0.624 0.624 0 0 1 0.1 0.778 0.628 0.628 0 0 1 -0.196 0.2 15.282 15.282 0 0 0 -2.2 2.952c-3.666 5.16 -6.16 2.526 -8.92 8.17 -1.752 3.588 -3.674 3.518 -7.754 9.612 -0.034 0.05 -8.488 9.936 -10.976 11.584 -1.55 -1.042 -1.708 -0.31 5.028 -7.438a42.528 42.528 0 0 0 5 -5.646c3.546 -5.284 5.956 -5.97 7.24 -8.74a10.522 10.522 0 0 1 5.922 -5.57c3.372 -1.206 5.068 -7.592 6.756 -5.902Z" stroke-width="1"></path><path fill="#0a0430" d="M235.742 266.662a0.75 0.75 0 0 1 0.278 1.464c-0.6 0.15 -1.22 0.216 -1.664 0.292 -1.694 -0.288 -2.542 0.916 -3.838 1.464a1.196 1.196 0 0 1 -1.744 -1.29c0.032 -0.454 0.6 -2.112 -0.534 -1.664A16.264 16.264 0 0 0 223 270c-1.69 0.8 -0.108 -3.224 5.536 -4.742a1.52 1.52 0 0 1 2.052 1.524c0.036 0.624 -0.268 1.348 0.832 0.632a7.104 7.104 0 0 1 4.322 -0.752Z" stroke-width="1"></path><path fill="#0a0430" d="M221.884 283.968c0.3 1.436 -2.498 0.826 -16.858 3.172 -17.576 2.872 -14.088 2.484 -28.892 -0.2 -2.498 -0.45 -2.424 -0.416 -2.468 -1.122 -0.048 -0.78 0.536 -0.872 1.46 -0.708 15.29 2.712 12.812 2.776 21.08 1.664 25.632 -3.444 25.412 -4.078 25.678 -2.806Z" stroke-width="1"></path><path fill="#0a0430" d="M217.368 225.776c1.036 0.096 0.888 1.26 -0.03 1.416 -0.53 0.09 -1.028 -0.054 -1.036 0.066 -4.028 -0.382 -4.454 -0.266 -4.52 -0.986 -0.12 -1.29 2.33 -0.796 5.586 -0.496Z" stroke-width="1"></path><path fill="#0a0430" d="M199.4 94.47c1.04 -0.448 0.942 0.384 0.674 1.486 -0.968 4.012 0.506 5.482 -0.766 12.4 -0.86 4.684 -0.352 6.058 -0.752 11.552 -0.088 1.2 -0.416 2.372 -0.566 3.566 -1.2 9.45 -1.272 16.032 -3.28 13.48 -0.358 -0.454 2.4 -16 2.342 -21.912 -0.072 -6.66 1.504 -8.578 1.07 -14.8a16.956 16.956 0 0 1 0.362 -4.612 1.52 1.52 0 0 1 0.916 -1.16Z" stroke-width="1"></path><path fill="#0a0430" d="M194.544 220.2c6.566 0.506 6.48 0.176 5.412 6.082 -1.2 6.688 -0.912 7.018 -3.2 6.826 -0.65 -0.054 -1.354 -0.102 -1.666 -0.14 -11.512 -1.4 -14.032 -1.386 -13.698 -3.838a51.66 51.66 0 0 1 1.664 -9.062c0.576 -2.118 2.168 -0.59 11.488 0.132Zm3.276 11.082c1.61 -8.48 2.082 -9.414 -0.108 -9.65a115.412 115.412 0 0 1 -12.866 -1.57c-0.956 -0.218 -1 0.252 -2.28 8.898 -0.152 1.02 -0.896 1.244 10.954 2.744 4.226 0.528 4.142 0.404 4.3 -0.428v0.006Z" stroke-width="1"></path><path fill="#0a0430" d="M195.672 224.616c1.104 -0.142 1.304 0.854 0.438 1.36 -0.178 0.106 -1.362 0.426 -2.568 0.834 -1 0.336 -1.438 -0.076 -1.744 -1.038 -0.484 -1.52 -0.566 -0.516 -1.736 0.168a1.586 1.586 0 0 1 -2.08 -0.1 1.578 1.578 0 0 1 -0.396 -0.638c-0.412 -0.8 -0.6 -0.834 -1.332 -0.324 -0.6 0.414 -1.224 0.982 -1.35 0.162 -0.158 -1.032 1.462 -2.082 2.29 -2.106 1.836 0.078 1.248 2.6 2.914 1.136 0.296 -0.29 0.616 -0.552 0.956 -0.786a1.338 1.338 0 0 1 1.816 0.274c0.14 0.178 0.23 0.388 0.266 0.612 0.408 1.59 0.716 0.678 2.526 0.446Z" stroke-width="1"></path><path fill="#0a0430" d="M191.848 294.908c0.554 38.948 -0.442 40.826 -0.33 58.108 0.116 17.828 0.68 18.574 -0.582 18.544a0.904 0.904 0 0 1 -0.6 -0.448c-0.824 -1.5 0.162 -77.386 0.166 -77.424 0.036 -0.284 0.188 -0.6 0.522 -0.512 0.822 0.21 0.812 0.858 0.824 1.732Z" stroke-width="1"></path><path fill="#0a0430" d="M183.772 169.026c2.082 1.484 1.898 2.772 0.6 2.812 -2.232 0.07 -3.49 -0.518 -11.24 -1.8 -1.4 -0.23 -4 -0.232 -4.336 -0.34 -3.758 -1.18 5.072 -7.74 14.976 -0.672Zm-1.292 1.486c2.4 0.212 -1.27 -1.74 -3.472 -2.678a11.276 11.276 0 0 0 -8.05 -0.228c-0.242 0.1 -2.31 1.056 -0.642 1 4.894 -0.134 10.146 1.726 12.164 1.906Z" stroke-width="1"></path><path fill="#0a0430" d="M182.76 273.546c-0.06 1.8 -2.62 0.116 -8.494 -3.272 -1.524 -0.878 -1.744 -1.066 -8.676 -7.238 -1.82 -1.62 -2.36 -2.702 -4.1 -4.538 -2.852 -3 -3.68 -6.498 -6 -8.288 -3.716 -2.864 0.124 -4.034 3.926 2.914 3.4 6.2 10.4 11.51 11.87 13.074 3.22 3.43 10.696 6.19 11.474 7.348Z" stroke-width="1"></path><path fill="#0a0430" d="M181.908 183.948a0.896 0.896 0 0 1 0.2 1.056c-0.662 1.368 -3.898 0.042 -12.612 -1.326 -1.8 -0.284 -3.46 0.04 -4.35 -0.576 -2.21 -1.528 5.568 -7.076 15.4 -0.416 0.496 0.372 0.952 0.796 1.362 1.262Zm-1.766 0.528c0.788 0.096 0.438 -0.6 -1.532 -1.56a24.264 24.264 0 0 0 -5.944 -2.182 9.9 9.9 0 0 0 -5 0.582c-2.268 1.076 -1.22 1 -0.832 1.12 0.71 0.218 2.946 0.042 4.42 0.284 2.326 0.254 7.15 1.238 7.658 1.4 0.414 0.134 0.814 0.262 1.23 0.356Z" stroke-width="1"></path><path fill="#0a0430" d="M178.466 197.2c1.522 1.084 2.318 2.57 0.666 2.774a100.178 100.178 0 0 1 -11.656 -1.828c-1.316 -0.21 -3.63 -0.2 -3.926 -0.274 -3.872 -0.992 4.708 -7.928 14.916 -0.672Zm-0.622 1.696c1.342 0.07 -0.2 -1.21 -4.078 -2.81 -5.8 -2.4 -12.012 0.946 -9 0.852 0.8 -0.024 1.694 -0.054 1.932 -0.028 3.866 0.396 9.428 1.89 11.146 1.982v0.004Z" stroke-width="1"></path><path fill="#0a0430" d="M166.776 140.616c-0.066 0.562 -0.178 1.158 -0.748 1.152 -0.832 0 -0.884 -0.682 -1.154 -2.042 -0.922 -4.646 -2.472 -3.968 -3.584 -10.72 -1.422 -8.64 -1.372 -8.496 -2.464 -10.942 -1.736 -3.89 -3.182 -5.308 -4.054 -11.082 -1.038 -6.876 -1.7 -6.34 -1.148 -7.154 0.42 -0.622 1.362 0.116 1.536 0.948 1.348 6.468 1.256 8.634 2.708 11.622 4.528 9.308 3.046 5.734 5.126 17 0.932 5.062 2.18 4.52 3.782 11.218Z" stroke-width="1"></path><path fill="#0a0430" d="M162.922 58.064c0.11 6.982 0.878 5.156 -16.026 3.71 -1.12 -0.096 -7.35 -0.356 -7.454 -0.354 -7.074 0.184 -6.632 0.096 -6.732 1.17 -0.74 8.066 0.522 27.98 -0.378 37.378a3.94 3.94 0 0 1 -2.498 3.032 15.756 15.756 0 0 1 -5.124 0.274c-15.246 -0.554 -12.708 0.172 -12.782 -13.35 0 -0.054 -0.244 -15.98 -0.118 -20.662 0.214 -7.884 -1.146 -18.732 -0.282 -31.024 0.322 -4.578 2.656 -3.788 11.976 -3.67 10.434 0.132 8.714 -0.072 8.64 9.8 -0.028 3.838 0.076 -0.754 -0.024 6.526 -0.032 2.298 3.172 -0.338 25.358 4.022 4.3 0.842 5.416 1.368 5.444 3.148Zm-2.572 3.414c1.4 0.146 1.108 -0.858 1.07 -3.064 -0.05 -2.876 -27.466 -5.41 -31.142 -4.69a10.842 10.842 0 0 1 2.08 4.4c0.714 3.498 -1.158 0.302 27.992 3.354ZM130.908 96.052c0.42 -2.126 -0.074 -14.686 -0.074 -14.728 -0.258 -20.4 1.464 -12.972 -5.416 -12.928 -10.78 0.07 -12.738 -10.506 -7.492 -15.188 3.936 -3.514 7.246 -1.426 11.696 -1.446 1 0 0.654 -0.282 0.72 -2.276 0.134 -4.072 0.29 -7.46 0.27 -11.2 0 -0.8 -0.224 -1.506 -1.014 -1.548 -1.112 -0.058 -3.826 -0.338 -8.576 -0.328 -0.902 0 -6.352 0.2 -6.4 0.2 -2.464 0.308 -1.02 -1.084 -1.044 62.6a1.98 1.98 0 0 0 1.51 1.864c13.978 0.8 13.878 0.832 14.2 0.458 2.598 -2.914 1.208 -3.398 1.62 -5.48Zm-14.064 -37.762c-1.506 10.688 14.286 10.616 13.828 1.056a5.94 5.94 0 0 0 -2.778 -5.482c-4.608 -2.576 -10.356 -0.502 -11.05 4.426Z" stroke-width="1"></path><path fill="#0a0430" d="M143.184 279.07c3.874 0.272 12.692 1.502 11.654 5.252a13.278 13.278 0 0 1 -3.584 6.66 6.364 6.364 0 0 1 -6.244 2.498c-7.906 -0.744 -11.738 -5.412 -11.738 -10.898 0.626 -6.36 2.432 -4.038 9.912 -3.512Zm9.918 5.542c1.114 -3.168 -8.658 -3.682 -15.8 -4.578a2.02 2.02 0 0 0 -1.766 0.558 2.012 2.012 0 0 0 -0.55 1.77c0.478 5.12 2.116 8.964 11.36 9.47 2.186 0.12 3.6 -1.844 5.082 -3.668 0.758 -1.08 1.324 -2.28 1.674 -3.552Z" stroke-width="1"></path><path fill="#0a0430" d="M138.226 145.57c0.832 0.974 -0.414 2.138 -1.136 1.472a28.156 28.156 0 0 1 -4.03 -6c-2.374 -4.354 -5.468 -5.928 -8.512 -10.23a85.434 85.434 0 0 0 -5.628 -7.91c-0.964 -1.248 -0.574 -1.894 0.3 -1.898 1.012 0.112 0.3 0.458 1.52 1.716a61.348 61.348 0 0 1 5.248 7.288c3.746 5.328 4.668 3.514 8.912 10.822a31.34 31.34 0 0 0 3.326 4.74Z" stroke-width="1"></path><path fill="#0a0430" d="M137.244 230.226c0.282 0.566 -0.314 0.83 -0.616 1.17 -1 1.13 -2.504 3.016 -6.34 7.276 -1.564 1.738 -1.248 1.312 -16.2 0.696 -1.72 0.182 -3.46 0.088 -5.15 -0.276 -1.976 -0.332 3.646 -3.75 5.774 -6.056 3.502 -3.8 5.8 -1.924 15.738 -3.05 0.508 -0.058 1.038 0.064 1.554 0.05 4.444 -0.13 4.91 -0.47 5.24 0.19Zm-8.342 7.534c7.4 -8.07 7 -6.296 -0.366 -5.986 -10.98 0.464 -10.586 -0.466 -12.518 1.758 -5.932 6.83 -10.038 3.33 10.486 4.966 1.57 -0.184 1.81 -0.098 2.398 -0.738Z" stroke-width="1"></path><path fill="#0a0430" d="M127.062 55.468c0.868 -0.512 2.386 2.334 0.932 4.216 -2.022 2.618 -6.812 0.52 -6.526 -2.864 0.236 -2.8 3.544 -3.2 3.7 -2.284 0.128 0.76 -0.878 0.686 -1.4 0.89 -2.36 0.908 -0.834 4.092 1.586 4.12a1.848 1.848 0 0 0 1.752 -2.914c-0.42 -0.588 -0.36 -0.98 -0.044 -1.164Z" stroke-width="1"></path><path fill="#0a0430" d="M124.414 75.298c1.174 2.664 -0.722 3.774 -0.24 5.506 1.334 4.8 1.4 4.954 -1.844 5.142 -1.312 -0.084 -3.302 0.1 -2.89 -1.882 0.694 -3.33 1.25 -3.53 0.634 -4.67 -2.636 -4.878 2.83 -7.526 4.34 -4.096Z" stroke-width="1"></path><path fill="#0a0430" d="M75.172 11.238c1.172 5.044 0.322 38.836 -0.2 65.956h-1.22c0 -22.816 0.45 -26.86 0.496 -33.04 0.068 -9 -0.218 -10.856 -0.2 -12.884 0.236 -2.754 0.332 -5.52 0.284 -8.282 -0.306 -8.188 -0.68 -3.332 -0.266 -11.922 0.028 -0.43 0.836 -0.988 1.106 0.172Z" stroke-width="1"></path></svg>