<?xml version="1.0" encoding="utf-8"?>
<!-- Generator: Adobe Illustrator 27.5.0, SVG Export Plug-In . SVG Version: 6.00 Build 0)  -->
<svg version="1.1" xmlns="http://www.w3.org/2000/svg" xmlns:xlink="http://www.w3.org/1999/xlink" x="0px" y="0px"
	 viewBox="0 0 500 500" style="enable-background:new 0 0 500 500;" xml:space="preserve">
<g id="Background_Simple">
	<g>
		<path style="fill:#92E3A9;" d="M330.486,47.673c0,0-80.235-29.893-158.072,15.103C94.578,107.771,56.149,198.559,23.084,271.255
			C-9.982,343.951,10.497,418.579,70.772,453.25c60.275,34.671,100.353-14.81,184.288-16.184
			c83.936-1.374,106.669,11.119,175.744-36.239c69.076-47.358,80.255-161.121,24.246-246.11
			C399.042,69.729,330.486,47.673,330.486,47.673z"/>
		<path style="opacity:0.7;fill:#FFFFFF;" d="M330.486,47.673c0,0-80.235-29.893-158.072,15.103
			C94.578,107.771,56.149,198.559,23.084,271.255C-9.982,343.951,10.497,418.579,70.772,453.25
			c60.275,34.671,100.353-14.81,184.288-16.184c83.936-1.374,106.669,11.119,175.744-36.239
			c69.076-47.358,80.255-161.121,24.246-246.11C399.042,69.729,330.486,47.673,330.486,47.673z"/>
	</g>
</g>
<g id="Graphics">
	<g style="opacity:0.3;">
		
			<rect x="392.69" y="287.684" transform="matrix(0.7071 -0.7071 0.7071 0.7071 -92.4071 371.5914)" style="fill:none;stroke:#000000;stroke-linecap:round;stroke-linejoin:round;stroke-miterlimit:10;" width="19.315" height="19.315"/>
		
			<rect x="98.176" y="46.346" transform="matrix(0.7071 -0.7071 0.7071 0.7071 -8.0168 92.6519)" style="fill:none;stroke:#000000;stroke-linecap:round;stroke-linejoin:round;stroke-miterlimit:10;" width="19.315" height="19.315"/>
		
			<rect x="77.053" y="329.549" transform="matrix(0.7071 -0.7071 0.7071 0.7071 -212.9318 156.9788)" style="fill:none;stroke:#000000;stroke-linecap:round;stroke-linejoin:round;stroke-miterlimit:10;" width="11.939" height="11.939"/>
		
			<rect x="29.331" y="192.518" transform="matrix(0.7071 -0.7071 0.7071 0.7071 -130.0122 83.096)" style="fill:none;stroke:#000000;stroke-linecap:round;stroke-linejoin:round;stroke-miterlimit:10;" width="11.939" height="11.939"/>
		
			<rect x="374.533" y="94.79" transform="matrix(0.7071 -0.7071 0.7071 0.7071 40.1991 298.5677)" style="fill:none;stroke:#000000;stroke-linecap:round;stroke-linejoin:round;stroke-miterlimit:10;" width="11.939" height="11.939"/>
		
			<rect x="93.465" y="339.981" transform="matrix(0.7071 -0.7071 0.7071 0.7071 -216.5448 174.1582)" style="fill:none;stroke:#000000;stroke-linecap:round;stroke-linejoin:round;stroke-miterlimit:10;" width="16.981" height="16.981"/>
		
			<rect x="335.434" y="326.14" transform="matrix(0.7071 -0.7071 0.7071 0.7071 -134.8423 338.6792)" style="fill:none;stroke:#000000;stroke-linecap:round;stroke-linejoin:round;stroke-miterlimit:10;" width="11.939" height="11.939"/>
		
			<rect x="394.745" y="79.813" transform="matrix(0.7071 -0.7071 0.7071 0.7071 54.4493 313.9287)" style="fill:none;stroke:#000000;stroke-linecap:round;stroke-linejoin:round;stroke-miterlimit:10;" width="22.85" height="22.85"/>
		
			<rect x="227.037" y="459.081" transform="matrix(0.7071 -0.7071 0.7071 0.7071 -260.5951 300.9736)" style="fill:none;stroke:#000000;stroke-linecap:round;stroke-linejoin:round;stroke-miterlimit:10;" width="11.939" height="11.939"/>
		
			<circle style="fill:none;stroke:#000000;stroke-linecap:round;stroke-linejoin:round;stroke-miterlimit:10;" cx="64.877" cy="189.625" r="12.271"/>
		
			<circle style="fill:none;stroke:#000000;stroke-linecap:round;stroke-linejoin:round;stroke-miterlimit:10;" cx="420.748" cy="227.803" r="11.59"/>
		
			<circle style="fill:none;stroke:#000000;stroke-linecap:round;stroke-linejoin:round;stroke-miterlimit:10;" cx="462.335" cy="148.039" r="6.817"/>
		<path style="fill:none;stroke:#000000;stroke-linecap:round;stroke-linejoin:round;stroke-miterlimit:10;" d="M325.986,58.73
			c0-2.259-1.831-4.09-4.091-4.09c-2.259,0-4.09,1.831-4.09,4.09c0,2.259,1.831,4.09,4.09,4.09
			C324.154,62.82,325.986,60.989,325.986,58.73z"/>
		
			<circle style="fill:none;stroke:#000000;stroke-linecap:round;stroke-linejoin:round;stroke-miterlimit:10;" cx="154.186" cy="291.887" r="4.09"/>
		
			<circle style="fill:none;stroke:#000000;stroke-linecap:round;stroke-linejoin:round;stroke-miterlimit:10;" cx="57.378" cy="401.648" r="6.136"/>
		<path style="fill:none;stroke:#000000;stroke-linecap:round;stroke-linejoin:round;stroke-miterlimit:10;" d="M428.929,391.422
			c0-3.012-2.442-5.454-5.454-5.454c-3.012,0-5.454,2.442-5.454,5.454c0,3.012,2.442,5.454,5.454,5.454
			C426.487,396.876,428.929,394.434,428.929,391.422z"/>
		<path style="fill:none;stroke:#000000;stroke-linecap:round;stroke-linejoin:round;stroke-miterlimit:10;" d="M385.297,38.959
			c0-3.012-2.442-5.454-5.454-5.454c-3.012,0-5.454,2.442-5.454,5.454c0,3.012,2.442,5.454,5.454,5.454
			C382.856,44.413,385.297,41.972,385.297,38.959z"/>
	</g>
</g>
<g id="Lines">
	<g>
		
			<line style="fill:none;stroke:#263238;stroke-width:3;stroke-linecap:round;stroke-linejoin:round;stroke-miterlimit:10;" x1="167.139" y1="248.255" x2="128.279" y2="269.389"/>
		
			<line style="fill:none;stroke:#263238;stroke-width:3;stroke-linecap:round;stroke-linejoin:round;stroke-miterlimit:10;" x1="93.51" y1="133.04" x2="135.097" y2="149.402"/>
		
			<line style="fill:none;stroke:#263238;stroke-width:3;stroke-linecap:round;stroke-linejoin:round;stroke-miterlimit:10;" x1="143.278" y1="40.323" x2="169.866" y2="83.273"/>
		
			<line style="fill:none;stroke:#263238;stroke-width:3;stroke-linecap:round;stroke-linejoin:round;stroke-miterlimit:10;" x1="233.95" y1="21.234" x2="232.586" y2="55.321"/>
		
			<line style="fill:none;stroke:#263238;stroke-width:3;stroke-linecap:round;stroke-linejoin:round;stroke-miterlimit:10;" x1="311.669" y1="102.362" x2="346.438" y2="67.593"/>
		
			<line style="fill:none;stroke:#263238;stroke-width:3;stroke-linecap:round;stroke-linejoin:round;stroke-miterlimit:10;" x1="360.073" y1="172.581" x2="390.07" y2="162.355"/>
		
			<line style="fill:none;stroke:#263238;stroke-width:3;stroke-linecap:round;stroke-linejoin:round;stroke-miterlimit:10;" x1="331.439" y1="248.937" x2="356.664" y2="263.254"/>
		
			<line style="fill:none;stroke:#263238;stroke-width:3;stroke-linecap:round;stroke-linejoin:round;stroke-miterlimit:10;" x1="134.415" y1="101.68" x2="154.867" y2="117.36"/>
		
			<line style="fill:none;stroke:#263238;stroke-width:3;stroke-linecap:round;stroke-linejoin:round;stroke-miterlimit:10;" x1="354.619" y1="130.995" x2="332.803" y2="141.221"/>
		
			<line style="fill:none;stroke:#263238;stroke-width:3;stroke-linecap:round;stroke-linejoin:round;stroke-miterlimit:10;" x1="141.914" y1="205.305" x2="118.735" y2="212.123"/>
		
			<line style="fill:none;stroke:#263238;stroke-width:3;stroke-linecap:round;stroke-linejoin:round;stroke-miterlimit:10;" x1="340.984" y1="214.168" x2="351.892" y2="216.895"/>
	</g>
</g>
<g id="Hand_2">
	<g>
		<path style="fill:#FFFFFF;stroke:#263238;stroke-linecap:round;stroke-linejoin:round;stroke-miterlimit:10;" d="M350.315,173.578
			c-3.853-2.668-18.377-0.296-27.566,7.114c-9.189,7.41-11.264,10.078-11.264,10.078s-4.15-29.048-4.15-29.937
			c0-0.889-5.928-55.428-7.114-63.431c-1.186-8.003-2.964-19.859-4.742-22.527c-1.779-2.668-8.892-2.964-11.264-1.778
			c-2.371,1.186-2.371,1.186-2.371,1.186s1.186-20.749-1.186-25.787c-2.371-5.039-9.781-2.075-11.856,0.593
			c-2.075,2.668-3.557,6.817-3.557,6.817s-6.817-2.371-10.671,5.335c-3.853,7.707-6.817,14.524-7.41,21.934
			c-0.593,7.41-3.853,16.895-3.853,16.895s-3.853-6.225-8.003-2.668c-4.15,3.557-8.892,17.488-10.078,27.566
			c-1.186,10.078-2.371,36.755-2.371,36.755s-2.371,12.153-3.557,21.934c-1.186,9.781-0.296,50.389,4.15,67.284
			c4.446,16.895,10.374,27.566,10.374,27.566s10.374,34.087,11.856,38.829c1.482,4.743,17.784,69.359,17.784,69.359l48.611-61.653
			c0,0-12.153-33.494-14.82-41.201c-2.668-7.707-4.446-10.078-4.446-10.078s14.82-21.045,22.823-27.269
			c8.003-6.225,12.153-26.973,14.227-36.162c2.075-9.189,10.671-21.934,15.413-26.084
			C350.019,180.099,354.169,176.246,350.315,173.578z M240.645,159.35c-0.889,0-0.593-11.56-0.593-25.491
			c0-13.931,2.371-20.156,2.371-20.156c-1.186,6.225,1.186,37.051,1.186,39.126C243.609,154.904,241.534,159.35,240.645,159.35z"/>
		<path style="fill:none;stroke:#263238;stroke-linecap:round;stroke-linejoin:round;stroke-miterlimit:10;" d="M285.472,278.826
			c3.71-1.876,4.377-3.876,4.377-3.876"/>
		<path style="fill:none;stroke:#263238;stroke-linecap:round;stroke-linejoin:round;stroke-miterlimit:10;" d="M256.354,271.985
			c0,0,16.302,10.671,24.305,8.596"/>
		<path style="fill:none;stroke:#263238;stroke-linecap:round;stroke-linejoin:round;stroke-miterlimit:10;" d="M311.486,190.77
			c0,0-6.225,9.781-7.707,13.338c-1.482,3.557-2.371,6.521-5.039,8.003c-2.668,1.482-6.224,3.557-6.224,3.557"/>
		<path style="fill:none;stroke:#263238;stroke-linecap:round;stroke-linejoin:round;stroke-miterlimit:10;" d="M293.579,193.667
			c-7.538,3.503-18.146,9.686-24.182,18.74"/>
		<path style="fill:none;stroke:#263238;stroke-linecap:round;stroke-linejoin:round;stroke-miterlimit:10;" d="M302.297,190.177
			c0,0-2.172,0.677-5.473,2.058"/>
		<path style="fill:none;stroke:#263238;stroke-linecap:round;stroke-linejoin:round;stroke-miterlimit:10;" d="M266.136,216.261
			c0,0-5.335,9.781-7.707,17.488"/>
		<path style="fill:none;stroke:#263238;stroke-linecap:round;stroke-linejoin:round;stroke-miterlimit:10;" d="M265.246,55.904
			c0,0-1.482,12.449-3.557,31.123c-2.075,18.674-3.26,27.862-2.964,39.719s3.557,22.231,3.26,23.713"/>
		<path style="fill:none;stroke:#263238;stroke-linecap:round;stroke-linejoin:round;stroke-miterlimit:10;" d="M281.845,74.282
			c0,0-0.889,7.707,0,17.785c0.889,10.078-0.889,28.751-0.889,35.865s0.296,17.784,0.593,21.045c0.296,3.26,2.075,5.632,2.075,5.632
			"/>
		<path style="fill:none;stroke:#263238;stroke-linecap:round;stroke-linejoin:round;stroke-miterlimit:10;" d="M287.477,156.387
			c0,0,1.482,2.668,11.263,2.964"/>
		<path style="fill:none;stroke:#263238;stroke-linecap:round;stroke-linejoin:round;stroke-miterlimit:10;" d="M264.95,149.273
			c0,0,7.114,1.482,11.856,0.593"/>
		<path style="fill:none;stroke:#263238;stroke-linecap:round;stroke-linejoin:round;stroke-miterlimit:10;" d="M239.163,161.722
			c0,0,0,2.964-8.596,5.632"/>
		<path style="fill:none;stroke:#263238;stroke-linecap:round;stroke-linejoin:round;stroke-miterlimit:10;" d="M256.058,153.719
			c0.889-0.593,4.446-1.778,5.335-5.928"/>
		<path style="fill:none;stroke:#263238;stroke-linecap:round;stroke-linejoin:round;stroke-miterlimit:10;" d="M256.567,199.125
			c0,0,18.43-6.758,30.103-9.215"/>
		<path style="fill:#263238;stroke:#263238;stroke-linecap:round;stroke-linejoin:round;stroke-miterlimit:10;" d="M308.892,499.138
			h159.342c-11.13-14.685-51.747-68.215-54.396-70.864c-3.072-3.072-16.587-4.915-16.587-4.915l-39.932-33.174l-49.762-82.322
			l-47.304,65.734l-7.986-31.946L234.451,408c0,0,64.506,78.636,66.963,81.707C301.891,490.304,304.672,493.828,308.892,499.138z"/>
	</g>
</g>
<g id="Hand_1">
	<g>
		<path style="fill:#FFFFFF;stroke:#263238;stroke-linecap:round;stroke-linejoin:round;stroke-miterlimit:10;" d="M184.121,268.679
			c0,0-13.192-33.781-16.373-39.996s-20.441-33.229-21.31-40.557c-0.87-7.328-3.567-19.516-6.351-24.616
			c-2.783-5.1,5.503-8.438,12.347-1.981c6.844,6.457,10.977,16.974,10.894,20c-0.082,3.026,15.359,14.349,15.359,14.349l2.81-26.042
			c0,0,3.002-64.589,2.373-74.227c-0.629-9.638-1.249-30.107,6.398-30.897c7.646-0.79,8.836,5.264,8.836,5.264
			s0.274-15.254,8.78-14.271c6.497,0.75,8.987,6.879,9.94,9.827c0.953,2.948,2.065,6.612,2.065,6.612s5.365-3.637,10.589,5.027
			c3,4.975,9.381,20.636,10.413,24.619s1.349,5.417,1.349,5.417s7.168-0.233,10.348,7.336c3.179,7.569,7.702,27.325,12.069,43.656
			s4.194,31.861,4.194,31.861s1.707,52.567-1.811,69.29c-3.519,16.722-10.141,30.973-11.496,32.326
			c-1.355,1.353-20.917,59.079-20.917,59.079L166.79,325.61c0,0,14.127-34.713,16.363-42.277
			C185.39,275.768,184.121,268.679,184.121,268.679z"/>
		<path style="fill:none;stroke:#263238;stroke-linecap:round;stroke-linejoin:round;stroke-miterlimit:10;" d="M169.924,219.4
			c0.144,3.308,0.854,5.304,0.854,5.304"/>
		<path style="fill:none;stroke:#263238;stroke-linecap:round;stroke-linejoin:round;stroke-miterlimit:10;" d="M176.615,198.744
			c0,0-3.827,4.457-5.825,12.42c-0.401,1.6-0.642,3.103-0.77,4.484"/>
		<path style="fill:none;stroke:#263238;stroke-linecap:round;stroke-linejoin:round;stroke-miterlimit:10;" d="M199.104,69.978
			c0,0,1.177,20.948,1.964,31.302c0.788,10.354,1.172,26.363,1.243,36.877c0.071,10.513-1.215,23.733-1.934,26.6
			c-0.719,2.867-2.315,6.529-2.315,6.529"/>
		<path style="fill:none;stroke:#263238;stroke-linecap:round;stroke-linejoin:round;stroke-miterlimit:10;" d="M219.889,72.146
			c0,0-3.348,3.9-2.238,8.918c1.111,5.019,6.264,33.058,6.26,37.12c-0.003,4.062,0.285,39.345,0.363,41.734
			c0.078,2.389-1.602,10.432-2.401,13.617"/>
		<path style="fill:none;stroke:#263238;stroke-linecap:round;stroke-linejoin:round;stroke-miterlimit:10;" d="M242.24,107.208
			c0,0-3.823,0.395-2.952,6.369s2.766,25.409,2.761,30.825c-0.005,5.416,1.259,17.921,1.01,29.708
			c-0.249,11.787,2.456,15.851,3.727,18.879"/>
		<path style="fill:none;stroke:#263238;stroke-linecap:round;stroke-linejoin:round;stroke-miterlimit:10;" d="M183.236,185.847
			c0,0-1.36,6.769,0.469,10.275c1.829,3.506,4.371,10.915,4.368,14.977"/>
		<path style="fill:none;stroke:#263238;stroke-linecap:round;stroke-linejoin:round;stroke-miterlimit:10;" d="M196.938,182.514
			c0,0-0.721,5.574,0.072,9.159c0.793,3.585,3.259,7.25,3.259,7.25"/>
		<path style="fill:none;stroke:#263238;stroke-linecap:round;stroke-linejoin:round;stroke-miterlimit:10;" d="M219.788,191.294
			c0,0-0.801,5.893,0.629,9.637c1.43,3.745,3.101,6.534,3.101,6.534"/>
		<g>
			<path style="fill:#92E3A9;stroke:#263238;stroke-linecap:round;stroke-linejoin:round;stroke-miterlimit:10;" d="
				M189.024,499.138l63.069-142.305c0,0-26.909-22.22-44.609-33.88c-17.7-11.66-38.927-11.314-38.927-11.314
				s-27.706,59.049-29.165,62.808c-1.459,3.759-20.779,43.771-20.779,43.771s-8.493,3.025-12.259,9.815
				c-2.951,5.321-24.237,51.413-33.308,71.105H189.024z"/>
			
				<ellipse transform="matrix(0.8607 -0.5091 0.5091 0.8607 -151.6904 167.7226)" style="fill:#263238;stroke:#263238;stroke-linecap:round;stroke-linejoin:round;stroke-miterlimit:10;" cx="230.672" cy="361.079" rx="5.879" ry="5.879"/>
			<path style="fill:#263238;stroke:#263238;stroke-linecap:round;stroke-linejoin:round;stroke-miterlimit:10;" d="
				M227.484,384.522c-0.79,3.149-3.983,5.061-7.132,4.271c-3.149-0.79-5.061-3.983-4.271-7.132c0.79-3.149,3.983-5.061,7.132-4.271
				C226.361,378.18,228.274,381.373,227.484,384.522z"/>
		</g>
	</g>
</g>
</svg>
